<svg id="Layer_1" data-name="Layer 1" xmlns="http://www.w3.org/2000/svg" viewBox="0 0 32 32"><title>analytics-icon-click-timing</title><g id="Layer_2" data-name="Layer 2"><path d="M19.13,28.74l-0.77.17a1.25,1.25,0,1,0,.45,2.45c0.31-.06.62-0.12,0.92-0.2A1.25,1.25,0,0,0,19.13,28.74Z" fill="#e76f79"/><path d="M28.35,12a1.25,1.25,0,0,0,2.37-.78c-0.1-.3-0.21-0.6-0.33-0.89a1.25,1.25,0,0,0-2.31.93C28.17,11.53,28.27,11.78,28.35,12Z" fill="#e76f79"/><path d="M23.18,27l-0.67.42a1.25,1.25,0,0,0-.46,1.7,1.22,1.22,0,0,0,.36.39,1.25,1.25,0,0,0,1.34.06c0.27-.16.54-0.32,0.8-0.5A1.25,1.25,0,1,0,23.18,27Z" fill="#e76f79"/><path d="M31.49,15.51a1.25,1.25,0,0,0-2.49.1c0,0.26,0,.53,0,0.79a1.25,1.25,0,1,0,2.49.06C31.5,16.14,31.5,15.83,31.49,15.51Z" fill="#e76f79"/><path d="M28.14,23.68a1.24,1.24,0,0,0-1.74.25c-0.16.21-.32,0.42-0.5,0.62A1.25,1.25,0,0,0,26,26.3l0.09,0.07a1.25,1.25,0,0,0,1.66-.21c0.2-.24.4-0.49,0.59-0.74A1.25,1.25,0,0,0,28.14,23.68Z" fill="#e76f79"/><path d="M30,19.17a1.25,1.25,0,0,0-1.56.82c-0.08.25-.17,0.5-0.26,0.75a1.25,1.25,0,0,0,.45,1.46,1.15,1.15,0,0,0,.28.14,1.24,1.24,0,0,0,1.61-.72c0.11-.29.21-0.59,0.31-0.89A1.25,1.25,0,0,0,30,19.17Z" fill="#e76f79"/><path d="M13.69,28.92a12.85,12.85,0,0,1-3.2-1l0,0-0.71-.36h0a13.57,13.57,0,0,1-1.24-.78,13,13,0,0,1,.05-21.3l0,0a13,13,0,0,1,14.6-.12l-1,1.41c-0.27.39-.1,0.68,0.37,0.63L26.83,7A0.7,0.7,0,0,0,27.47,6L26.33,2c-0.13-.46-0.45-0.51-0.72-0.12l-1,1.41A15.4,15.4,0,0,0,13.35.84q-0.6.1-1.18,0.25H12.12A15.36,15.36,0,0,0,3.6,6.82l-0.06.07-0.21.29L3,7.66,3,7.72A15.35,15.35,0,0,0,.52,16.78a0.23,0.23,0,0,0,0,0c0,0.31,0,.63.07,0.94a0.27,0.27,0,0,0,0,.06c0,0.31.08,0.63,0.13,0.94A15.39,15.39,0,0,0,5.07,27.1l0,0h0a15.59,15.59,0,0,0,2,1.66,15.36,15.36,0,0,0,6.18,2.59A1.25,1.25,0,1,0,13.69,28.92Z" fill="#e76f79"/><path d="M15.23,6a1,1,0,0,0-1,1v10l9.19,4.75a1,1,0,0,0,.46.11,1,1,0,0,0,.47-1.9l-8.1-4.19V7.05A1,1,0,0,0,15.23,6Z" fill="#e76f79"/></g></svg>