<svg id="Layer_1" data-name="Layer 1" xmlns="http://www.w3.org/2000/svg" viewBox="0 0 32 32"><title>analytics-icon-performance</title><path d="M27.66,27.91l-4.42-6.49L27.64,20a0.91,0.91,0,0,0,.64-0.75,0.92,0.92,0,0,0-.42-0.89L11.67,8a1,1,0,0,0-1,0,0.89,0.89,0,0,0-.41.92L13.7,27.33a1,1,0,0,0,1.64.46l3.07-3.34L22.84,31a1,1,0,0,0,1.31.27l3.24-2A0.9,0.9,0,0,0,27.66,27.91Zm-3.77,1.27-4.58-6.73a1,1,0,0,0-.6-0.4l-0.12,0a1,1,0,0,0-.78.3l-2.6,2.82L12.48,10.67l12.71,8.2L21.46,20a0.91,0.91,0,0,0-.59.56,0.9,0.9,0,0,0,.11.81l4.58,6.73Z" fill="#e76f79"/><path d="M8.38,3a1,1,0,0,0-1.32-.27A0.9,0.9,0,0,0,6.8,4L8.45,6.42a1,1,0,0,0,1.32.27A0.89,0.89,0,0,0,10,5.42Z" fill="#e76f79"/><path d="M7.79,9.35A0.93,0.93,0,0,0,7,8.26L4.12,7.65a0.92,0.92,0,1,0-.37,1.79l2.92,0.61A0.93,0.93,0,0,0,7.79,9.35Z" fill="#e76f79"/><path d="M6.84,12L4.35,13.6a0.89,0.89,0,0,0-.26,1.27,1,1,0,0,0,1.32.27l2.48-1.56a0.89,0.89,0,0,0,.26-1.27A1,1,0,0,0,6.84,12Z" fill="#e76f79"/><path d="M13.09,6a0.93,0.93,0,0,0,1.12-.7l0.59-2.82a0.95,0.95,0,0,0-1.86-.39L12.35,4.92A0.93,0.93,0,0,0,13.09,6Z" fill="#e76f79"/><path d="M16.37,7.91a1,1,0,0,0,.71-0.13l2.48-1.56A0.89,0.89,0,0,0,19.83,5a1,1,0,0,0-1.31-.27L16,6.24a0.9,0.9,0,0,0-.26,1.27A1,1,0,0,0,16.37,7.91Z" fill="#e76f79"/></svg>