<svg id="Layer_1" data-name="Layer 1" xmlns="http://www.w3.org/2000/svg" viewBox="0 0 32 32"><title>analytics-icon-platform</title><path d="M13.85,22H3a0.46,0.46,0,0,1-.46-0.46V3.95A0.46,0.46,0,0,1,3,3.49H29a0.46,0.46,0,0,1,.46.46V7.8a4.67,4.67,0,0,1,2.08.75V3.95A2.54,2.54,0,0,0,29,1.41H3A2.54,2.54,0,0,0,.5,3.95v17.6A2.54,2.54,0,0,0,3,24.08h8.69v3.4H10.35a1.56,1.56,0,0,0,0,3.12h4.37a4.68,4.68,0,0,1-.87-2.72V22h0Z" fill="#e76f79"/><path d="M22.57,29V26.77H18V12.44a0.55,0.55,0,0,1,.55-0.55H28.87a0.55,0.55,0,0,1,.55.55v4.44H30.2a2.55,2.55,0,0,1,1.3.36v-4.8a2.63,2.63,0,0,0-2.62-2.62H18.55a2.63,2.63,0,0,0-2.62,2.62V27.87a2.63,2.63,0,0,0,2.62,2.63H23A2.75,2.75,0,0,1,22.57,29Z" fill="#e76f79"/><path d="M30.2,18.18h-5a1.3,1.3,0,0,0-1.3,1.3V29a1.3,1.3,0,0,0,1.3,1.3h5A1.3,1.3,0,0,0,31.5,29V19.48A1.3,1.3,0,0,0,30.2,18.18Zm-4.78,1.56h4.52V28H25.42V19.73Zm2.26,9.95a0.56,0.56,0,0,1-.55-0.55,0.55,0.55,0,1,1,1.1,0A0.56,0.56,0,0,1,27.68,29.68Z" fill="#e76f79"/></svg>