<?xml version="1.0" encoding="utf-8"?>
<!-- Generator: Adobe Illustrator 16.0.0, SVG Export Plug-In . SVG Version: 6.00 Build 0)  -->
<!DOCTYPE svg PUBLIC "-//W3C//DTD SVG 1.1//EN" "http://www.w3.org/Graphics/SVG/1.1/DTD/svg11.dtd">
<svg version="1.1" id="Layer_1" xmlns="http://www.w3.org/2000/svg" xmlns:xlink="http://www.w3.org/1999/xlink" x="0px" y="0px"
	 width="754.793px" height="424.148px" viewBox="0 0 754.793 424.148" enable-background="new 0 0 754.793 424.148"
	 xml:space="preserve">
<g>
	<rect x="375.237" y="258.375" fill="#E76F79" width="7.515" height="9.387"/>
	<path fill="#6B6B7C" d="M382.762,240.375h-7.514v-18.002h7.514V240.375z M382.762,204.368h-7.514v-18.003h7.514V204.368z
		 M382.762,168.365h-7.514v-18.003h7.514V168.365z M382.762,132.366h-7.514v-18.014h7.514V132.366z M382.762,96.358h-7.514V78.355
		h7.514V96.358z"/>
	<rect x="375.237" y="50.968" fill="#E76F79" width="7.515" height="9.385"/>
	<rect x="375.237" y="267.761" fill="#E76F79" width="7.515" height="9.396"/>
	
		<rect x="191.586" y="369.115" transform="matrix(-0.5 -0.8661 0.8661 -0.5 -30.7359 729.8795)" fill="#E76F79" width="7.514" height="9.395"/>
	<path fill="#6B6B7C" d="M216.86,365.714l-3.755-6.51l15.591-9.002l3.755,6.51L216.86,365.714z M248.042,347.708l-3.755-6.508
		l15.591-8.992l3.755,6.504L248.042,347.708z M279.222,329.712l-3.756-6.51l15.588-9.004l3.761,6.508L279.222,329.712z
		 M310.405,311.708l-3.761-6.498l15.592-9.006l3.752,6.51L310.405,311.708z M341.568,293.708l-3.743-6.508l15.591-8.99l3.743,6.496
		L341.568,293.708z"/>
	<polygon fill="#E76F79" points="372.748,275.712 369.004,269.201 371.492,267.761 369.004,266.326 372.748,259.813 
		386.522,267.761 	"/>
	<path fill="#6B6B7C" d="M353.416,257.313l-15.591-8.987l3.745-6.513l15.591,9.006L353.416,257.313z M322.234,239.319l-15.592-9.006
		l3.76-6.497l15.584,8.993L322.234,239.319z M291.053,221.322l-15.587-9.001l3.756-6.508l15.591,9L291.053,221.322z
		 M259.875,203.314l-15.591-8.993l3.756-6.512l15.591,9L259.875,203.314z M228.696,185.318l-15.591-9.003l3.755-6.509l15.591,9.003
		L228.696,185.318z"/>
	
		<rect x="190.656" y="157.951" transform="matrix(-0.8662 -0.4997 0.4997 -0.8662 283.7527 399.3989)" fill="#E76F79" width="9.391" height="7.515"/>
	
		<rect x="558.904" y="157.001" transform="matrix(-0.5001 -0.866 0.866 -0.5001 703.9939 729.8102)" fill="#E76F79" width="7.511" height="9.387"/>
	<path fill="#6B6B7C" d="M404.602,257.313l-3.75-6.494l15.592-9.006l3.75,6.513L404.602,257.313z M435.782,239.319l-3.746-6.51
		l15.584-8.993l3.752,6.497L435.782,239.319z M466.959,221.322l-3.756-6.509l15.592-9l3.756,6.508L466.959,221.322z
		 M498.139,203.314l-3.754-6.504l15.59-9.001l3.756,6.512L498.139,203.314z M529.319,185.318l-3.756-6.509l15.592-9.003l3.756,6.509
		L529.319,185.318z"/>
	<polygon fill="#E76F79" points="385.264,275.712 371.496,267.761 385.264,259.813 389.014,266.326 386.522,267.761 
		389.014,269.201 	"/>
	<path fill="#6B6B7C" d="M541.151,365.714l-15.594-9l3.756-6.51l15.594,9.002L541.151,365.714z M509.971,347.708l-15.592-8.996
		l3.756-6.504l15.59,8.992L509.971,347.708z M478.792,329.712l-15.592-9.006l3.756-6.508l15.592,9.004L478.792,329.712z
		 M447.616,311.708l-15.582-8.994l3.744-6.51l15.592,9.006L447.616,311.708z M416.444,293.71l-15.592-9.006l3.748-6.494l15.592,8.99
		L416.444,293.71z"/>
	
		<rect x="558.011" y="370.055" transform="matrix(-0.8656 -0.5007 0.5007 -0.8656 862.6118 979.1412)" fill="#E76F79" width="9.389" height="7.509"/>
	<polygon fill="#E76F79" points="197.518,384.102 187.514,378.315 187.514,366.768 195.018,366.768 195.018,373.987 
		201.272,377.589 	"/>
	<polygon fill="#E76F79" points="195.01,168.753 187.507,168.753 187.507,157.21 197.518,151.422 201.272,157.931 195.01,161.531 	
		"/>
	<polygon fill="#E76F79" points="372.748,58.911 369.004,52.402 379.002,46.625 389.006,52.402 385.26,58.911 379.002,55.3 	"/>
	<polygon fill="#E76F79" points="570.5,168.753 562.993,168.753 562.993,161.531 556.741,157.931 560.499,151.422 570.5,157.21 	"/>
	<polygon fill="#E76F79" points="560.499,384.102 556.741,377.589 562.993,373.987 562.993,366.768 570.5,366.768 570.5,378.315 	
		"/>
	<path fill="#8697CB" d="M233.472,142.078c11.314,19.613,4.598,44.698-15.018,55.996c-19.605,11.335-44.667,4.608-55.988-14.988
		c-11.318-19.608-4.607-44.687,15.011-56.016C197.084,115.744,222.142,122.466,233.472,142.078z"/>
</g>
<path fill="#36404A" d="M414.198,37.758c11.322,19.614,4.611,44.685-14.992,55.988c-19.619,11.323-44.686,4.612-56.009-14.991
	c-11.315-19.593-4.602-44.671,15.016-55.993C377.813,11.444,402.887,18.165,414.198,37.758z"/>
<path fill="#6AC397" d="M596.6,144.961c11.314,19.614,4.604,44.694-15.018,55.999c-19.598,11.331-44.67,4.608-55.975-14.988
	c-11.342-19.609-4.613-44.694,14.986-56.019C560.208,118.621,585.268,125.348,596.6,144.961z"/>
<path fill="#8BBCE5" d="M591.758,343.639c11.314,19.614,4.604,44.69-15.018,56.015c-19.613,11.332-44.67,4.611-55.977-15.007
	c-11.338-19.619-4.621-44.692,14.988-56.006C555.366,317.328,580.426,324.039,591.758,343.639z"/>
<path fill="#F8A37D" d="M237.285,344.419c11.314,19.615,4.598,44.69-15.024,56.021c-19.601,11.324-44.659,4.604-55.981-15.016
	c-11.318-19.605-4.612-44.69,15.011-55.991C200.897,318.11,225.956,324.826,237.285,344.419z"/>
<g>
	<circle id="SVGID_3_" fill="#FFDB7A" cx="379.002" cy="267.762" r="84.096"/>
</g>
<g>
	<g>
		<path fill="#FFD7A3" d="M315.749,321.708c3.259-2.098,2.893-8.344,2.893-9.801h26.227c0,1.457-0.402,7.703,2.854,9.801
			l-15.968,17.883L315.749,321.708z"/>
	</g>
	<g>
		<path fill="#FDC98E" d="M341.954,327.936l5.769-6.228c-3.258-2.098-2.854-8.344-2.854-9.801h-26.226
			C320.525,317.321,332.971,326.6,341.954,327.936z"/>
	</g>
	<g>
		<path fill="#FFE1B2" d="M352.153,292.968c0,11.669-6.721,26.228-20.398,26.228s-20.396-14.559-20.396-26.228
			c0-11.668,9.133-16.024,20.396-16.024S352.153,281.3,352.153,292.968z"/>
	</g>
	<g>
		<path fill="#F26956" d="M365.265,357.078c2.414,0,4.372-1.955,4.372-4.371v-14.054c0-6.409-4.997-13.254-11.101-15.207
			l-9.117-2.916c-4.905,3.748-11.912,8.865-17.664,8.865c-5.751,0-12.762-5.117-17.663-8.865l-9.117,2.916
			c-6.104,1.953-11.1,8.798-11.1,15.207v14.054c0,2.416,1.955,4.371,4.37,4.371H365.265L365.265,357.078z"/>
	</g>
	<g>
		<path fill="#F9AB8A" d="M352.153,266.746c-9.636,0-24.675-7.465-30.561,1.457c-0.394,0-0.782,0-1.492,0
			c-5.633,0-10.2,4.616-10.2,10.25c0,5.229,1.457,17.418,1.457,17.418s3.098-9.195,8.743-14.568
			c0.001-0.002,27.681,2.916,27.681,2.916l4.372,11.654C354.611,287.585,353.609,268.837,352.153,266.746z"/>
	</g>
	<g>
		<g>
			<path fill="#F26956" d="M352.153,266.746c-9.636,0-24.675-7.465-30.561,1.457c-0.394,0-0.782,0-1.492,0
				c-3.992,0-7.438,2.321-9.113,5.678c13.168,15.604,33.702,12.531,42.612,10.219C353.828,276.231,353.084,268.083,352.153,266.746z
				"/>
		</g>
	</g>
	<g>
		<path fill="#F0533E" d="M308.444,341.039l-9.779-13.484c-2.889,3.035-4.79,7.146-4.79,11.1v14.053c0,2.416,1.955,4.371,4.37,4.371
			h10.199V341.039z"/>
	</g>
	<g>
		<path fill="#F0533E" d="M355.066,341.039l9.78-13.484c2.889,3.035,4.789,7.146,4.789,11.1v14.053c0,2.416-1.958,4.371-4.372,4.371
			h-10.197V341.039z"/>
	</g>
	<g>
		<path fill="#F0533E" d="M331.755,333.75c7.237,0,15.131-5.946,22.596-11.645l-4.932-1.576c-4.905,3.748-11.912,8.865-17.664,8.865
			c-5.751,0-12.762-5.117-17.663-8.865l-4.932,1.576C316.627,327.803,324.519,333.75,331.755,333.75z"/>
	</g>
	<g>
		<path fill="#F9AB8A" d="M331.755,342.494c-8.046,0-14.569,6.522-14.569,14.569h29.142
			C346.326,349.016,339.801,342.494,331.755,342.494z"/>
	</g>
</g>
<g>
	<g>
		<path fill="#B06E53" d="M416.014,265.393l7.473,49.803l-9.76,16.4C398.43,309.278,394.364,265.393,416.014,265.393z"/>
	</g>
	<g>
		<path fill="#B06E53" d="M415.231,265.393c5.018-4.267,17.771-6.744,28.59-1.604c14.857,7.059,14.797,38.649,1.504,64.799
			c-0.021,0.039-10.533-7.523-10.533-7.523L415.231,265.393z"/>
	</g>
	<g>
		<path fill="#FFD7A3" d="M439.366,313.946h-0.08v-3.514h-21.064v3.51c0,3.438-0.016,7.181-3.01,9.44v33.693h13.539
			c0,0,7.094,0,13.543,0V323.33C439.377,321.063,439.366,317.356,439.366,313.946z"/>
	</g>
	<g>
		<path fill="#E5EBF0" d="M451.323,325.479h-0.5c-5.717,0-8.578-1.521-10.033-3.696l-10.498,7.166l0.008,0.01l-1.525,10.961
			l-1.521-10.945l-10.535-7.191c-1.457,2.178-4.316,3.699-10.033,3.699h-0.502c-9.139,0-16.549,7.408-16.549,16.549v10.531
			c0,2.496,2.021,4.516,4.516,4.516h25.578h5.297h7.461h8.307h22.57c2.492,0,4.514-2.02,4.514-4.516V342.03
			C467.874,332.889,460.463,325.479,451.323,325.479z"/>
	</g>
	<g>
		<path fill="#FDC98E" d="M439.305,328.585c0.553,0.152-0.461-1.543,0-1.502l2.988-3.754c-2.916-2.268-2.928-5.975-2.928-9.385
			h-0.08v-3.514h-16.553l-4.514,1.504C421.231,315.324,428.959,325.766,439.305,328.585z"/>
	</g>
	<g>
		<path fill="#FFE1B2" d="M449.819,290.871c0,12.051-11.984,27.086-21.068,27.086c-9.078,0-21.063-15.035-21.063-27.086
			c0-12.05,9.432-16.552,21.063-16.552C440.385,274.319,449.819,278.822,449.819,290.871z"/>
	</g>
	<g>
		<path fill="#B06E53" d="M425.827,266.796c0.848,0,3.592,0.949,5.836,1.781l0.184-0.277c0,0,0.311,0.242,0.846,0.664
			c1.248,0.476,2.164,0.841,2.164,0.841l-0.354,0.588c5.713,4.498,18.742,14.791,19.914,15.965
			c1.504,1.504-7.461,39.115-7.461,17.274c0-18.241-10.137-21.854-19.563-24.071c-4.264-1.004-7.082-2.733-7.586-5.242
			C419.307,271.811,424.323,266.796,425.827,266.796z"/>
	</g>
	<g>
		<path fill="#B06E53" d="M421.313,276.977c0,0-11.449,3.515-13.518,15.931c-0.482,2.885-4.477-9.837-4.477-9.837
			s2.256-10.028,2.76-10.282c0.5-0.248,10.656-4.388,10.656-4.388l3.039,2.627L421.313,276.977z"/>
	</g>
	<g>
		<path fill="#D0D7DC" d="M427.249,328.958l-10.387-7.379l-3.68,2.918l6.951,9.676c0.563,0.781,1.705,0.842,2.346,0.127
			L427.249,328.958z"/>
	</g>
	<g>
		<path fill="#D0D7DC" d="M430.258,328.958l10.383-7.379l3.68,2.918l-6.949,9.676c-0.561,0.781-1.703,0.842-2.344,0.127
			L430.258,328.958z"/>
	</g>
	<g>
		<path fill="#537992" d="M413.159,324.494c-1.598,0.621-3.691,0.985-6.477,0.985h-0.502c-9.139,0-16.549,7.41-16.549,16.551v10.531
			c0,2.496,2.021,4.517,4.514,4.517h25.58l-6.543-32.58C413.184,324.498,413.161,324.494,413.159,324.494z"/>
	</g>
	<g>
		<path fill="#537992" d="M444.37,324.494c1.596,0.621,3.689,0.985,6.473,0.985h0.502c9.139,0,16.551,7.41,16.551,16.551v10.531
			c0,2.496-2.021,4.517-4.514,4.517h-25.58l6.541-32.58C444.342,324.498,444.364,324.494,444.37,324.494z"/>
	</g>
	<g>
		<path fill="#FFE1B2" d="M409.256,293.046c-2.254-0.565-3.732,0.642-3.732,3.009c0,3.133,3.031,10.813,6.221,6.021
			C414.932,297.278,409.256,293.046,409.256,293.046z"/>
	</g>
	<g>
		<circle fill="#555566" cx="410.719" cy="340.625" r="1.504"/>
	</g>
	<g>
		<path fill="#D0D7DC" d="M428.75,343.632c0.832,0,1.508,0.677,1.508,1.507s-0.676,1.506-1.508,1.506
			c-0.828,0-1.502-0.676-1.502-1.506S427.922,343.632,428.75,343.632z"/>
	</g>
	<g>
		<circle fill="#D0D7DC" cx="428.774" cy="352.731" r="1.504"/>
	</g>
	<g>
		<circle fill="#555566" cx="412.221" cy="349.652" r="1.505"/>
	</g>
	<g>
		<g>
			<path fill="#486080" d="M454.008,351.227h-8.684c-1.246,0-2.258,1.012-2.258,2.256v3.593h13.197v-3.593
				C456.264,352.24,455.252,351.227,454.008,351.227z"/>
		</g>
	</g>
</g>
<g>
	<g>
		<path fill="#555566" d="M356.943,294.311l3.107,13.978c0.171,0.778,0.862,1.334,1.658,1.334h3.74v-13.609L356.943,294.311z"/>
	</g>
	<g>
		<path fill="#555566" d="M401.174,294.311l-3.105,13.978c-0.174,0.778-0.863,1.334-1.66,1.334h-3.74v-13.609L401.174,294.311z"/>
	</g>
	<g>
		<path fill="#FFD7A3" d="M360.371,315.958c3.803-2.449,3.376-9.738,3.376-11.439h30.623c0,1.701-0.473,8.99,3.332,11.439
			l-18.643,20.881L360.371,315.958z"/>
	</g>
	<g>
		<path fill="#FDC98E" d="M390.967,323.231l6.734-7.272c-3.805-2.449-3.332-9.738-3.332-11.439h-30.623
			C365.945,310.835,380.475,321.669,390.967,323.231z"/>
	</g>
	<g>
		<path fill="#FFE1B2" d="M402.875,282.403c0,13.623-7.844,30.621-23.816,30.621c-15.97,0-23.813-16.998-23.813-30.621
			c0-13.622,10.663-18.713,23.813-18.713C392.213,263.69,402.875,268.781,402.875,282.403z"/>
	</g>
	<g>
		<path fill="#555465" d="M418.184,358.375c2.82,0,5.105-2.285,5.105-5.103v-17.528c0-7.486-5.834-15.476-12.963-17.757
			l-10.641-3.405c-5.729,4.377-13.91,10.352-20.627,10.352c-6.715,0-14.899-5.975-20.625-10.352l-10.643,3.405
			c-7.129,2.281-12.963,10.271-12.963,17.757v17.528c0,2.815,2.285,5.103,5.104,5.103H418.184z"/>
	</g>
	<g>
		<path fill="#0787A1" d="M348.438,358.375h61.243V317.78l-9.994-3.198c-5.729,4.377-13.91,10.352-20.627,10.352
			c-6.715,0-14.899-5.975-20.625-10.352l-9.997,3.198L348.438,358.375L348.438,358.375z"/>
	</g>
	<g>
		<path fill="#393950" d="M373.956,328.333l2.696,2.695c1.331,1.33,3.483,1.33,4.813,0l4.398-4.398l-6.805-1.698L373.956,328.333z"
			/>
	</g>
	<g>
		<path fill="#555566" d="M367.151,253.483c14.884-10.207,45.187-1.274,35.724,32.322l-5.104-5.104c0,0-18.996-4.535-35.725-13.609"
			/>
	</g>
	<g>
		<path fill="#393950" d="M379.059,324.932l-7.097,7.096c-0.739,0.738-1.965,0.646-2.579-0.202l-12.438-17.103l3.964-3.961
			c0.64-0.642,1.668-0.668,2.339-0.063L379.059,324.932z"/>
	</g>
	<g>
		<path fill="#393950" d="M379.059,324.932l7.098,7.096c0.738,0.738,1.965,0.646,2.58-0.202l12.438-17.103l-3.965-3.961
			c-0.639-0.642-1.666-0.668-2.34-0.063L379.059,324.932z"/>
	</g>
	<g>
		<path fill="#FFE1B2" d="M356.061,285.805c-2.548-0.64-4.218,0.725-4.218,3.401c0,3.543,3.427,12.228,7.032,6.806
			C362.48,290.589,356.061,285.805,356.061,285.805z"/>
	</g>
	<g>
		<path fill="#FFE1B2" d="M401.67,285.805c2.785-0.64,4.607,0.725,4.607,3.401c0,3.543-3.744,12.228-7.68,6.806
			C394.665,290.589,401.67,285.805,401.67,285.805z"/>
	</g>
	<g>
		<path fill="#555566" d="M355.244,285.805c0.556,1.688,1.699,3.401,1.699,3.401s9.924-12.758,10.208-22.115
			c0.282-9.354-1.701-8.506-1.701-8.506l3.401-1.701c0,0,5.948-2.641-1.699-3.401C356.466,252.419,346.738,260.147,355.244,285.805z
			"/>
	</g>
</g>
<g>
	<path fill="#FFE1B2" d="M311.033,284.391c-2.195-0.552-3.635,0.625-3.635,2.93c0,3.052,2.952,10.531,6.059,5.861
		C316.563,288.509,311.033,284.391,311.033,284.391z"/>
</g>
<path fill="#FFFFFF" d="M389.643,40.657L389.643,40.657c-6.045-6.043-15.84-6.043-21.884,0l0,0
	c-5.443,5.444-6.057,15.695-1.435,21.855l12.377,17.877l12.377-17.877C395.698,56.352,395.086,46.102,389.643,40.657z
	 M378.85,56.554c-2.818,0-5.105-2.287-5.105-5.108c0-2.82,2.287-5.107,5.105-5.107c2.82,0,5.107,2.287,5.107,5.107
	C383.958,54.268,381.67,56.554,378.85,56.554z"/>
<g>
	<g id="Link_2_">
		<g>
			<path fill="#FFFFFF" d="M217.186,149.761l-6.406-6.406c-0.589-0.589-1.547-0.589-2.136,0l-11.746,11.746
				c-0.589,0.589-0.589,1.547,0,2.135l1.066,1.066l11.749-11.746l4.271,4.271l-11.746,11.746l1.069,1.069
				c0.589,0.589,1.547,0.589,2.136,0l11.746-11.746C217.777,151.308,217.777,150.35,217.186,149.761z M196.892,165.772l6.389-6.391
				c0.589-0.589,0.589-1.546,0-2.135c-0.59-0.589-1.547-0.589-2.137,0l-6.391,6.391l-2.125-2.129c-0.59-0.589-1.547-0.589-2.137,0
				l-11.746,11.746c-0.588,0.589-0.588,1.546,0,2.135l6.407,6.406c0.589,0.589,1.546,0.589,2.135,0l11.746-11.746
				c0.589-0.589,0.589-1.546,0-2.135L196.892,165.772z M186.218,178.593l-4.271-4.27l11.746-11.75l1.06,1.06l-2.149,2.153
				c-0.589,0.589-0.589,1.547,0,2.135c0.589,0.59,1.546,0.59,2.135,0l2.153-2.153l1.072,1.079L186.218,178.593z"/>
		</g>
	</g>
</g>
<g>
	<g>
		<path fill="#FFFFFF" d="M201.779,344.602c-11.213,0-20.334,9.121-20.334,20.333c0,11.213,9.121,20.334,20.334,20.334
			c11.212,0,20.333-9.121,20.333-20.334C222.112,353.723,212.991,344.602,201.779,344.602z M201.779,380.942
			c-8.826,0-16.008-7.18-16.008-16.007c0-8.825,7.182-16.007,16.008-16.007c8.825,0,16.007,7.182,16.007,16.007
			C217.786,373.762,210.604,380.942,201.779,380.942z"/>
		<path fill="#FFFFFF" d="M212.376,364.307h-9.139v-10.986c0-0.926-0.749-1.675-1.673-1.675c-0.925,0-1.675,0.749-1.675,1.675
			v12.661c0,0.926,0.75,1.674,1.675,1.674h10.812c0.925,0,1.674-0.748,1.674-1.674C214.05,365.057,213.301,364.307,212.376,364.307z
			"/>
	</g>
</g>
<g>
	<path fill="#FFFFFF" d="M558.366,173.08h-13.744c-0.318,0-0.58-0.26-0.58-0.58v-22.357c0-0.32,0.262-0.58,0.58-0.58h32.947
		c0.318,0,0.58,0.26,0.58,0.58v4.896c0.965,0.114,1.867,0.43,2.639,0.949v-5.846c0-1.775-1.445-3.219-3.219-3.219h-32.947
		c-1.773,0-3.217,1.443-3.217,3.219V172.5c0,1.775,1.443,3.219,3.217,3.219h11.043v4.313h-1.74c-1.092,0-1.979,0.886-1.979,1.979
		c0,1.093,0.887,1.979,1.979,1.979h5.555c-0.693-0.977-1.111-2.161-1.111-3.448v-7.462H558.366z"/>
	<path fill="#FFFFFF" d="M569.438,181.994v-2.85h-5.799v-18.203c0-0.385,0.314-0.697,0.697-0.697h13.115
		c0.385,0,0.695,0.313,0.695,0.697v5.633h0.988c0.604,0,1.162,0.174,1.65,0.459v-6.092c0-1.839-1.496-3.334-3.334-3.334h-13.115
		c-1.838,0-3.336,1.495-3.336,3.334v19.6c0,1.839,1.498,3.334,3.336,3.334h5.695C569.67,183.353,569.438,182.626,569.438,181.994z"
		/>
	<path fill="#FFFFFF" d="M579.137,168.223h-6.398c-0.91,0-1.65,0.741-1.65,1.651v12.119c0,0.91,0.74,1.652,1.65,1.652h6.398
		c0.91,0,1.65-0.742,1.65-1.652v-12.119C580.788,168.964,580.047,168.223,579.137,168.223z M573.065,170.201h5.744v10.477h-5.744
		V170.201z M575.938,182.842c-0.182,0-0.344-0.073-0.467-0.187c-0.141-0.127-0.23-0.307-0.23-0.512c0-0.385,0.313-0.695,0.697-0.695
		s0.695,0.311,0.695,0.695c0,0.205-0.09,0.385-0.229,0.512C576.282,182.769,576.118,182.842,575.938,182.842z"/>
</g>
<g>
	<g>
		<path fill="#FFFFFF" d="M560.127,372.483h-11.807l-2.811,8.332h-6.854l12.234-33.325h6.713l12.234,33.325h-6.809L560.127,372.483z
			 M550.083,367.485h8.379l-4.238-12.093L550.083,367.485z"/>
	</g>
	<rect x="571.977" y="343.429" fill="#FFFFFF" width="1.875" height="41.445"/>
</g>
</svg>
