<?xml version="1.0" encoding="utf-8"?>
<!-- Generator: Adobe Illustrator 16.0.0, SVG Export Plug-In . SVG Version: 6.00 Build 0)  -->
<!DOCTYPE svg PUBLIC "-//W3C//DTD SVG 1.1//EN" "http://www.w3.org/Graphics/SVG/1.1/DTD/svg11.dtd">
<svg version="1.1" id="Layer_1" xmlns="http://www.w3.org/2000/svg" xmlns:xlink="http://www.w3.org/1999/xlink" x="0px" y="0px"
	 width="1100px" height="658px" viewBox="0 0 1100 658" enable-background="new 0 0 1100 658" xml:space="preserve">
<g id="Layer_1_1_">
	<g id="Layer_2">
	</g>
	<path display="none" fill="#FFFFFF" stroke="#353F49" stroke-width="3" stroke-miterlimit="10" d="M690.822,329.564h157.729v10.802
		v-10.802h164.822v34.898v-34.898H848.551h-77.514v105v-105h162.318c0,0,0,81.295,0,108.393"/>
	<g>
		<g>
			<path fill="#4D1B02" d="M947.596,485.981c4.291,0,7.791-3.499,7.791-7.791c0-4.291-3.5-7.791-7.791-7.791s-7.791,3.5-7.791,7.791
				C939.805,482.483,943.305,485.981,947.596,485.981z"/>
			<path fill="#4D1B02" d="M939.939,482.556c4.291,0,7.791-3.499,7.791-7.791c0-4.29-3.5-7.791-7.791-7.791
				c-4.292,0-7.791,3.501-7.791,7.791C932.148,479.058,935.646,482.556,939.939,482.556z"/>
			<path fill="#4D1B02" d="M928.252,481.348c4.292,0,7.791-3.5,7.791-7.792c0-4.289-3.499-7.791-7.791-7.791
				c-4.291,0-7.79,3.502-7.79,7.791C920.462,477.848,923.961,481.348,928.252,481.348z"/>
			<path fill="#4D1B02" d="M917.774,485.176c4.291,0,7.792-3.5,7.792-7.791c0-4.292-3.501-7.791-7.792-7.791
				c-4.29,0-7.791,3.499-7.791,7.791S913.483,485.176,917.774,485.176z"/>
			<path fill="#4D1B02" d="M911.729,493.839c4.294,0,7.794-3.498,7.794-7.79c0-4.291-3.5-7.791-7.794-7.791
				c-4.287,0-7.789,3.502-7.789,7.792C903.938,490.341,907.438,493.839,911.729,493.839z"/>
			<path fill="#4D1B02" d="M954.246,494.041c4.291,0,7.789-3.497,7.789-7.788c0-4.294-3.499-7.793-7.789-7.793
				c-4.293,0-7.791,3.5-7.791,7.793C946.455,490.544,949.953,494.041,954.246,494.041z"/>
			<path fill="#4D1B02" d="M954.646,504.922c4.293,0,7.791-3.5,7.791-7.791s-3.498-7.791-7.791-7.791
				c-4.289,0-7.789,3.5-7.789,7.791C946.857,501.423,950.356,504.922,954.646,504.922z"/>
			<path fill="#4D1B02" d="M949.006,518.02c4.29,0,7.791-3.5,7.791-7.789c0-4.292-3.501-7.792-7.791-7.792
				c-4.291,0-7.79,3.5-7.79,7.792C941.216,514.519,944.715,518.02,949.006,518.02z"/>
			<path fill="#4D1B02" d="M911.125,503.714c4.291,0,7.792-3.5,7.792-7.79c0-4.292-3.501-7.792-7.792-7.792
				c-4.292,0-7.792,3.5-7.792,7.792C903.334,500.214,906.833,503.714,911.125,503.714z"/>
			<path fill="#4D1B02" d="M916.767,519.027c4.292,0,7.79-3.5,7.79-7.791c0-4.292-3.498-7.79-7.79-7.79
				c-4.29,0-7.791,3.498-7.791,7.79C908.976,515.527,912.477,519.027,916.767,519.027z"/>
			<path fill="#4D1B02" d="M953.528,512.365c4.292,0,7.792-3.499,7.792-7.791c0-4.29-3.5-7.79-7.792-7.79
				c-4.291,0-7.791,3.5-7.791,7.79C945.737,508.866,949.237,512.365,953.528,512.365z"/>
			<path fill="#4D1B02" d="M912.256,511.816c4.291,0,7.791-3.499,7.791-7.791c0-4.29-3.5-7.79-7.791-7.79
				c-4.292,0-7.791,3.5-7.791,7.79C904.465,508.317,907.964,511.816,912.256,511.816z"/>
		</g>
		<path fill="#E6A875" d="M924.045,532.253c-20.127,8.823-26.164,13.525-28.554,15.641c-3.677,3.255-5.711,15.388-7.881,25.687
			h45.538h45.539c-2.171-10.299-4.205-22.432-7.885-25.687c-2.387-2.113-8.203-6.695-28.329-15.521L924.045,532.253z"/>
		<path fill="#E6A875" d="M942.921,514.662v22.313c-5.375,6.583-14.169,6.354-19.544,0v-22.313
			C923.377,502.616,942.921,502.616,942.921,514.662z"/>
		<path fill="#B88053" d="M942.921,514.662V529.6c-3.698,2.695-7.263,4.206-9.771,4.206c-2.51,0-6.075-1.511-9.772-4.206v-14.938
			C923.377,502.616,942.921,502.616,942.921,514.662z"/>
		<path fill="#E6A875" d="M933.149,474.606c-32.803,0-21.007,39.634-18.86,42.787c2.361,3.479,13.562,12.701,18.86,12.701
			c5.298,0,16.499-9.223,18.86-12.701C954.154,514.24,965.949,474.606,933.149,474.606z"/>
		
			<ellipse transform="matrix(0.9498 -0.3129 0.3129 0.9498 -112.5179 310.088)" fill="#E6A875" cx="909.943" cy="505.638" rx="3.282" ry="5.674"/>
		
			<ellipse transform="matrix(0.9498 0.3127 -0.3127 0.9498 206.1341 -273.8513)" fill="#E6A875" cx="956.745" cy="505.657" rx="3.282" ry="5.675"/>
		<g>
			<path fill="#4D1B02" d="M930.469,487.997c4.29,0,7.791-3.5,7.791-7.791c0-4.292-3.501-7.791-7.791-7.791
				c-4.292,0-7.79,3.499-7.79,7.791C922.679,484.497,926.177,487.997,930.469,487.997z"/>
			<path fill="#4D1B02" d="M941.146,487.595c4.293,0,7.791-3.5,7.791-7.791s-3.498-7.791-7.791-7.791
				c-4.291,0-7.791,3.5-7.791,7.791S936.856,487.595,941.146,487.595z"/>
			<path fill="#4D1B02" d="M922.61,490.415c4.292,0,7.791-3.501,7.791-7.791c0-4.291-3.499-7.792-7.791-7.792
				c-4.291,0-7.791,3.501-7.791,7.792C914.819,486.914,918.319,490.415,922.61,490.415z"/>
			<path fill="#4D1B02" d="M916.813,493.125c3.65,0,6.627-2.978,6.627-6.627c0-3.65-2.977-6.628-6.627-6.628
				c-3.651,0-6.628,2.978-6.628,6.628C910.186,490.148,913.16,493.125,916.813,493.125z"/>
			<path fill="#4D1B02" d="M947.394,492.43c4.292,0,7.791-3.499,7.791-7.79c0-4.292-3.499-7.792-7.791-7.792
				c-4.291,0-7.791,3.5-7.791,7.792C939.604,488.931,943.104,492.43,947.394,492.43z"/>
			<path fill="#4D1B02" d="M953.719,497.712c3.026,0,5.495-2.469,5.495-5.495c0-3.025-2.469-5.495-5.495-5.495
				c-3.025,0-5.496,2.47-5.496,5.495C948.223,495.244,950.692,497.712,953.719,497.712z"/>
			<path fill="#4D1B02" d="M913.286,498.768c2.931,0,5.317-2.39,5.317-5.316c0-2.929-2.389-5.317-5.317-5.317
				s-5.316,2.39-5.316,5.317C907.969,496.378,910.356,498.768,913.286,498.768z"/>
			<path fill="#4D1B02" d="M912.178,502.395c1.875,0,3.403-1.529,3.403-3.402c0-1.876-1.528-3.404-3.403-3.404
				c-1.874,0-3.402,1.528-3.402,3.404C908.774,500.864,910.304,502.395,912.178,502.395z"/>
			<path fill="#4D1B02" d="M954.692,502.797c1.875,0,3.403-1.529,3.403-3.403c0-1.875-1.528-3.403-3.403-3.403
				c-1.874,0-3.403,1.528-3.403,3.403C951.289,501.268,952.818,502.797,954.692,502.797z"/>
			<path fill="#4D1B02" d="M912.58,505.416c1.319,0,2.396-1.075,2.396-2.396c0-1.317-1.076-2.396-2.396-2.396
				s-2.396,1.077-2.396,2.396C910.186,504.34,911.261,505.416,912.58,505.416z"/>
			<path fill="#4D1B02" d="M954.289,505.214c1.321,0,2.396-1.076,2.396-2.396c0-1.32-1.074-2.396-2.396-2.396
				c-1.317,0-2.396,1.075-2.396,2.396C951.895,504.14,952.972,505.214,954.289,505.214z"/>
		</g>
		<path fill="#FFFFFF" d="M923.377,532.546c-19.593,8.634-25.523,13.258-27.886,15.347c-3.677,3.255-5.711,15.388-7.881,25.687
			h45.538h45.539c-2.17-10.299-4.205-22.433-7.885-25.687c-2.367-2.097-8.117-6.628-27.882-15.322
			C939.032,537.839,928.42,538.702,923.377,532.546z"/>
		<path fill="#68C497" d="M920.863,533.665c-17.596,7.918-23.112,12.229-25.371,14.229c-3.677,3.255-5.711,15.388-7.881,25.687
			h45.538h45.539c-2.171-10.299-4.205-22.432-7.885-25.687c-2.243-1.986-7.525-6.158-24.887-13.987
			C938.151,542.098,923.587,539.485,920.863,533.665z"/>
		<g>
			<path fill="#388761" d="M906.169,573.578h1.562c-0.069-6.935-0.069-11.932-0.069-11.932S906.969,566.84,906.169,573.578z"/>
			<path fill="#388761" d="M960.129,573.578h-1.561c0.068-6.935,0.068-11.932,0.068-11.932S959.33,566.84,960.129,573.578z"/>
		</g>
	</g>
	<g>
		<path fill="#FFC65D" d="M820.521,432.184c-4.063-41.854,7.426-60.943,31.313-60.943c23.888-0.002,36.646,21.652,30.803,60.942
			C864.758,442.66,835.945,440.941,820.521,432.184z"/>
		<path fill="#FFDECC" d="M861.188,439.132c-0.195,0.313-19.623,0.619-19.839,0.928c-6.104,8.705-19.286,12.52-29.77,14.861
			c-10.436,2.334-10.837,15.585-10.854,24.409h101.701c-0.019-8.825-0.21-22.028-10.854-24.409
			C880.935,452.541,866.979,448.233,861.188,439.132z"/>
		<path fill="#FFDECC" d="M861.768,420.542v24.965c-5.604,7.365-14.773,7.11-20.377,0v-24.965
			C841.391,407.063,861.768,407.063,861.768,420.542z"/>
		<path fill="#F7C5AA" d="M861.768,420.542v16.715c-3.854,3.018-7.571,4.705-10.188,4.705c-2.615,0-6.334-1.688-10.188-4.705
			v-16.715C841.391,407.063,861.768,407.063,861.768,420.542z"/>
		<path fill="#FFDECC" d="M851.578,437.813c-6.634,0-20.647-10.433-24.979-25.369c-4.376-15.085,3.863-36.721,24.979-36.721
			c21.118,0,29.355,21.636,24.981,36.72C872.229,427.382,858.213,437.813,851.578,437.813z"/>
		
			<ellipse transform="matrix(0.9189 -0.3946 0.3946 0.9189 -95.761 359.0309)" fill="#FFDECC" cx="825.083" cy="412.353" rx="4.206" ry="7.273"/>
		
			<ellipse transform="matrix(0.9188 0.3946 -0.3946 0.9188 234.0116 -313.1229)" fill="#FFDECC" cx="878.259" cy="412.359" rx="4.206" ry="7.27"/>
		<path fill="#FFC65D" d="M865.445,386.76c10.729,6.836,11.357,16.018,11.797,23.112
			C882.065,403.861,882.481,382.578,865.445,386.76z"/>
		<path fill="#FFC65D" d="M837.867,386.76c-10.729,6.836-11.358,16.018-11.797,23.112
			C821.246,403.861,820.83,382.578,837.867,386.76z"/>
		<path fill="#FFC65D" d="M824.354,393.122c0.938-30.597,54.206-27.729,54.45,0c-5.478,1.313-12.122,2.093-19.028,2.417
			c-0.391-2.742-1.187-6.257-2.573-10.717c-0.731,2.109-1.229,6.72-1.448,10.854c-4.037,0.089-8.103,0.025-12.021-0.163
			c-0.228-4.037-0.716-8.439-1.429-10.486c-1.309,4.207-2.092,7.572-2.504,10.244C833.941,394.839,828.576,394.104,824.354,393.122z
			"/>
		<g>
			<path fill="#FFDECC" d="M832.776,405.381c0.923-0.855,4.143-1.096,7.349-0.938c3.203,0.154,7.386,0.897,8.204,2.734
				c0.821,1.836-0.742,5.119-3.007,5.938c-2.269,0.819-9.532,0.505-11.687-0.978C831.252,410.5,831.025,407.007,832.776,405.381z"/>
			<path fill="#FFDECC" d="M870.381,405.381c-0.922-0.855-4.144-1.096-7.349-0.938c-3.204,0.154-7.386,0.897-8.205,2.734
				c-0.819,1.836,0.742,5.119,3.009,5.938c2.266,0.819,9.532,0.505,11.684-0.978C871.903,410.5,872.132,407.007,870.381,405.381z"/>
		</g>
		<path fill="#68C497" d="M809.325,455.655c-8.237,3.63-8.584,15.535-8.597,23.676H902.43c-0.016-8.147-0.182-20.023-8.58-23.676
			C865.676,467.48,837.5,467.07,809.325,455.655z"/>
		<path fill="#9CE8C3" d="M899.406,460.848c-3.297,1.458-6.598,2.761-9.896,3.907v-1.263c3.09-1.087,6.18-2.311,9.27-3.67
			C899.002,460.152,899.211,460.494,899.406,460.848L899.406,460.848z M889.512,477.448v-1.247
			c4.223-1.318,8.442-2.866,12.666-4.643c0.035,0.418,0.063,0.835,0.094,1.251C898.019,474.587,893.765,476.131,889.512,477.448
			L889.512,477.448z M889.512,471.266v-1.258c3.89-1.323,7.78-2.854,11.671-4.602c0.103,0.391,0.194,0.782,0.281,1.181
			C897.479,468.365,893.496,469.923,889.512,471.266z M889.512,464.753c-12.629,4.396-25.26,6.523-37.896,6.479v-1.188
			c12.631,0.046,25.263-2.105,37.896-6.552V464.753L889.512,464.753z M889.512,470.008c-12.635,4.296-25.267,6.38-37.896,6.334
			v1.188c12.636,0.047,25.269-2.014,37.896-6.265V470.008L889.512,470.008z M889.512,476.201v1.247
			c-2.23,0.688-4.465,1.316-6.697,1.883h-5.254C881.544,478.488,885.528,477.446,889.512,476.201z M851.615,471.231h-0.028
			c-12.515-0.05-25.022-2.232-37.529-6.463v-1.255c12.517,4.272,25.026,6.479,37.533,6.527h0.024V471.231L851.615,471.231z
			 M851.615,476.342h-0.024c-12.507-0.05-25.019-2.188-37.533-6.329v1.254c12.509,4.1,25.019,6.214,37.529,6.264h0.028V476.342
			L851.615,476.342z M814.057,477.413v-1.242c4.103,1.255,8.203,2.308,12.304,3.16h-5.345
			C818.697,478.756,816.377,478.116,814.057,477.413z M814.057,464.77c-3.412-1.152-6.82-2.459-10.229-3.912
			c0.192-0.354,0.401-0.696,0.625-1.027c3.201,1.363,6.403,2.592,9.604,3.687V464.77L814.057,464.77z M814.057,470.013v1.254
			c-4.102-1.346-8.2-2.901-12.301-4.668c0.087-0.396,0.182-0.786,0.285-1.173C806.047,467.157,810.053,468.688,814.057,470.013
			L814.057,470.013z M814.057,476.169v1.243c-4.381-1.325-8.762-2.879-13.142-4.652c0.026-0.414,0.062-0.827,0.101-1.243
			C805.361,473.288,809.711,474.841,814.057,476.169z"/>
		<g>
			<path fill="#388761" d="M818.926,479.331c0.063-2.001,0.244-4.406,0.728-7.343c-0.9,2.861-1.54,5.258-1.989,7.343H818.926z"/>
			<path fill="#388761" d="M884.233,479.331c-0.063-2.001-0.245-4.406-0.728-7.343c0.9,2.861,1.54,5.258,1.987,7.343H884.233z"/>
		</g>
	</g>
	<g>
		<path fill="#FFDECC" d="M762.156,529.697c-21.208,9.296-27.57,14.251-30.086,16.479c-3.875,3.43-6.019,16.212-8.306,27.064h47.982
			h47.981c-2.285-10.854-4.431-23.637-8.305-27.064c-2.516-2.229-8.645-7.057-29.854-16.354L762.156,529.697z"/>
		<path fill="#497194" d="M762.155,529.697c-21.207,9.296-27.569,14.251-30.085,16.479c-3.875,3.43-6.019,16.212-8.306,27.064
			h47.982h47.981c-2.286-10.854-4.431-23.637-8.306-27.064c-2.515-2.229-8.644-7.057-29.853-16.354L762.155,529.697z"/>
		<path fill="#FFDECC" d="M782.047,511.162v23.509c-5.664,6.938-14.933,6.696-20.596,0v-23.509
			C761.451,498.468,782.047,498.468,782.047,511.162z"/>
		<path fill="#F7C5AA" d="M782.047,511.162v15.74c-3.896,2.84-7.653,4.432-10.299,4.432c-2.646,0-6.4-1.592-10.298-4.432v-15.74
			C761.451,498.468,782.047,498.468,782.047,511.162z"/>
		<path fill="#FFDECC" d="M771.748,468.957c-34.563,0-22.134,41.761-19.875,45.085c2.489,3.665,14.291,13.383,19.875,13.383
			s17.385-9.717,19.875-13.383C793.881,510.717,806.311,468.957,771.748,468.957z"/>
		
			<ellipse transform="matrix(0.9499 -0.3125 0.3125 0.9499 -119.4832 258.6584)" fill="#FFDECC" cx="747.136" cy="502.054" rx="3.456" ry="5.979"/>
		
			<ellipse transform="matrix(0.9498 0.3128 -0.3128 0.9498 197.0397 -223.9238)" fill="#FFDECC" cx="796.342" cy="502.081" rx="3.457" ry="5.979"/>
		<path fill="#FFC65D" d="M755.951,482.933c-2.004,10.952-7.024,9.931-6.627,22.783c-1.612-10.019-4.021-23.35,2.789-32.129
			c5.44-7.018,23.467-12.036,35.139-3.618c12.891,2.755,8.859,29,7.132,33.961c-1.207-8.035-3.91-11.382-7.322-20.828
			C782.43,486.421,761.886,487.161,755.951,482.933z"/>
		<path fill="#E6E6E6" d="M771.802,539.783c0,0-14.37,3.432-14.37,4.302c0,0.869,5.469,29.156,5.469,29.156h19.509l2.235-29.031
			L771.802,539.783z"/>
		<polygon fill="#86BCEB" points="761.451,530.005 761.451,534.671 765.924,573.241 758.232,573.241 749.771,556.063 
			757.848,550.677 747.977,546.063 757.055,531.979 		"/>
		<polygon fill="#86BCEB" points="782.047,530.03 782.047,534.671 777.529,573.241 785.221,573.241 793.682,556.063 
			785.605,550.677 795.477,546.063 787.409,532.412 		"/>
		<path fill="#FFFFFF" d="M761.451,526.902l-0.9,3.5l2.521,18.234l8.73-8.854L761.451,526.902z"/>
		<path fill="#9D3421" d="M767.32,544.553l2.494,3.862c1.289,0,2.578,0,3.866,0l2.496-3.862l-4.376-4.771L767.32,544.553z"/>
		<polygon fill="#9D3421" points="769.814,548.416 766.264,573.241 777.233,573.241 773.683,548.416 		"/>
		<path fill="#FFFFFF" d="M782.047,526.902l0.709,3.444l-2.365,18.474l-8.589-9.036L782.047,526.902z"/>
		<g>
			<path fill="#304D66" d="M743.32,573.241h1.644c-0.072-7.308-0.072-12.572-0.072-12.572S744.162,566.141,743.32,573.241z"/>
			<path fill="#304D66" d="M800.177,573.241h-1.645c0.071-7.308,0.071-12.572,0.071-12.572S799.334,566.141,800.177,573.241z"/>
		</g>
	</g>
	<g>
		<path fill="#A2400F" d="M691.537,486.735c-29.92,0.6-33.268-34.699-32.185-52.136c2.021-32.502,31.519-45.537,43.563-34.375
			c12.802,0,18.8,15.897,20.246,34.063C725.088,458.465,716.178,486.242,691.537,486.735z"/>
		<path fill="#FFDECC" d="M700.195,464.753c-0.191,0.302-19.14,0.604-19.35,0.902c-5.949,8.488-18.81,12.208-29.03,14.493
			c-10.176,2.274-11.487,15.199-11.506,23.807h100.104c-0.016-8.605-0.204-21.483-10.583-23.807
			C719.451,477.828,705.84,473.628,700.195,464.753z"/>
		<path fill="#FFDECC" d="M700.762,446.622v24.346c-5.467,7.186-14.41,6.937-19.875,0v-24.346
			C680.887,433.475,700.762,433.475,700.762,446.622z"/>
		<path fill="#F7C5AA" d="M700.762,446.622v16.3c-3.762,2.941-7.387,4.591-9.938,4.591c-2.555,0-6.18-1.647-9.938-4.591v-16.3
			C680.887,433.475,700.762,433.475,700.762,446.622z"/>
		<path fill="#FFDECC" d="M690.824,463.462c-6.472,0-20.139-10.173-24.363-24.74c-4.267-14.711,3.77-35.811,24.363-35.811
			s28.629,21.1,24.362,35.811C710.959,453.29,697.293,463.462,690.824,463.462z"/>
		
			<ellipse transform="matrix(0.9188 -0.3947 0.3947 0.9188 -118.2332 297.9674)" fill="#FFDECC" cx="665.168" cy="436.379" rx="4.101" ry="7.092"/>
		
			<ellipse transform="matrix(0.9188 0.3947 -0.3947 0.9188 230.4235 -247.5739)" fill="#FFDECC" cx="717.051" cy="436.36" rx="4.103" ry="7.09"/>
		<path fill="#A2400F" d="M717.152,438.46c7.819-33.522-15.783-39.225-29.556-39.225c-15.51,0-27.2,18.407-24.585,39.846
			c8.272-4.986,15.563-14.84,33.651-30.91c-2.631,4.716-7.76,13.299-25.191,28.852c9.381,1.55,26.855-10.275,36.17-22.649
			C709.867,423.168,713.066,432.799,717.152,438.46z"/>
		<path fill="#68C497" d="M669.611,474.462c-5.658,2.714-12.133,4.422-17.796,5.688c-10.176,2.273-11.487,15.198-11.506,23.806
			h100.104c-0.015-8.605-0.203-21.483-10.582-23.806c-5.563-1.243-12.049-3.027-17.742-5.779l-0.014,0.021
			c-8.535,14.195-16.341,21.932-21.255,24.662C685.918,496.326,678.131,488.612,669.611,474.462z"/>
		<g>
			<path fill="#3C8A64" d="M658.979,503.955c0.062-1.949,0.238-4.298,0.71-7.159c-0.88,2.791-1.503,5.127-1.939,7.159H658.979z"/>
			<path fill="#3C8A64" d="M722.668,503.955c-0.062-1.949-0.238-4.298-0.709-7.159c0.879,2.791,1.502,5.127,1.939,7.159H722.668z"/>
		</g>
		<path fill="none" stroke="#FFFFFF" stroke-width="1.1999" stroke-miterlimit="22.9256" stroke-dasharray="2.3998,3.5997" d="
			M667.813,475.204c4.621,9.477,14.171,22.383,23.011,26.627 M713.832,475.204c-4.621,9.477-14.168,22.383-23.01,26.627"/>
	</g>
	<g>
		<path fill="#FFDECC" d="M1003.026,461.791c-20.691,9.072-26.899,13.908-29.354,16.08c-3.781,3.347-5.873,15.816-8.104,26.408
			h46.816h46.814c-2.229-10.59-4.32-23.063-8.104-26.408c-2.452-2.172-8.434-6.883-29.126-15.955L1003.026,461.791z"/>
		<path fill="#FFDECC" d="M1022.434,443.71v22.938c-5.525,6.769-14.568,6.533-20.095,0V443.71
			C1002.339,431.324,1022.434,431.324,1022.434,443.71z"/>
		<path fill="#F7C5AA" d="M1022.434,443.71v15.356c-3.801,2.771-7.467,4.323-10.048,4.323c-2.579,0-6.246-1.553-10.048-4.322V443.71
			C1002.339,431.324,1022.434,431.324,1022.434,443.71z"/>
		<path fill="#FFDECC" d="M1012.386,402.528c-33.722,0-21.595,40.746-19.393,43.989c2.43,3.575,13.944,13.058,19.393,13.058
			c5.449,0,16.962-9.48,19.392-13.058C1033.98,443.274,1046.107,402.528,1012.386,402.528z"/>
		
			<ellipse transform="matrix(0.9498 -0.3128 0.3128 0.9498 -85.843 330.9201)" fill="#FFDECC" cx="988.331" cy="432.974" rx="3.373" ry="5.834"/>
		
			<ellipse transform="matrix(0.9498 0.3129 -0.3129 0.9498 187.4878 -302.5376)" fill="#FFDECC" cx="1036.406" cy="432.915" rx="3.374" ry="5.834"/>
		<path fill="#FFC65D" d="M994.201,423.648c-2.008,2.483-3.248,4.357-3.69,12.182c-1.612-9.771-4.297-23.521,2.163-32.374
			c4.397-6.026,26.657-13.179,35.82-2.504c15.436,0.229,8.029,27.683,7.142,33.138c-0.577-12.557-7.282-11.104-10.7-20.323
			C1020.298,417.005,1011.088,422.854,994.201,423.648z"/>
		<path fill="#497194" d="M978.644,474.182c-2.578,1.667-4.044,2.867-4.971,3.688c-3.781,3.347-5.873,15.816-8.104,26.408h46.816
			h46.814c-2.229-10.591-4.32-23.063-8.104-26.408c-1.567-1.389-4.579-3.814-11.958-7.759
			C1012.386,487.196,982.51,476.565,978.644,474.182z"/>
		<g>
			<path fill="#688DAD" d="M971.347,481.417h82.08c0.41,0.91,0.8,1.939,1.169,3.058h-84.42
				C970.546,483.355,970.936,482.327,971.347,481.417z"/>
			<path fill="#688DAD" d="M968.656,489.87h87.46c0.244,0.994,0.481,2.018,0.714,3.06h-88.891
				C968.174,491.887,968.414,490.863,968.656,489.87z"/>
			<path fill="#688DAD" d="M966.795,498.324h91.182c0.21,1.021,0.418,2.044,0.626,3.059H966.17
				C966.376,500.368,966.586,499.346,966.795,498.324z"/>
		</g>
		<g>
			<path fill="#29445C" d="M984.646,504.279h1.604c-0.071-7.13-0.071-12.268-0.071-12.268S985.471,497.352,984.646,504.279z"/>
			<path fill="#29445C" d="M1040.123,504.279h-1.604c0.07-7.13,0.07-12.268,0.07-12.268S1039.302,497.352,1040.123,504.279z"/>
		</g>
	</g>
	<polygon fill="#E6E5E5" points="237.928,619.483 157.813,619.483 165.1,578.632 230.643,578.632 	"/>
	<polygon fill="#D9D8D7" points="237.928,619.483 230.643,578.632 165.1,578.632 217.514,619.483 	"/>
	<g>
		<path fill="#EFEFEF" d="M259.381,625.471H136.368v-2.235c0-0.959,0.36-1.919,1.1-2.657c0.731-0.738,1.688-1.094,2.654-1.094
			h115.494c0.979,0,1.928,0.354,2.661,1.094c0.738,0.738,1.104,1.698,1.104,2.657V625.471L259.381,625.471z"/>
		<path fill="#EFEFEF" d="M342.131,552.217v19.402c0,3.861-3.173,7.013-7.025,7.013H60.66c-3.844,0-7.018-3.148-7.018-7.013v-19.402
			H342.131z"/>
	</g>
	<path fill="#353F49" d="M342.131,552.217V368.027c0-3.852-3.173-7.021-7.025-7.021H60.653c-3.844,0-7.005,3.172-7.005,7.021
		v184.189H342.131L342.131,552.217z"/>
	<rect x="68.217" y="375.58" fill="#ECF0F1" width="259.318" height="162.077"/>
	<rect x="67.605" y="375.568" display="none" fill="#FFFFFF" width="260.508" height="162.085"/>
	<rect x="67.605" y="412.755" display="none" fill="#FFDB79" width="260.508" height="61.486"/>
	<g display="none">
		<rect x="212.291" y="403.155" display="inline" fill="#E6E5E5" width="70.159" height="4.921"/>
		<rect x="198.563" y="393.316" display="inline" fill="#E6E5E5" width="83.886" height="4.921"/>
	</g>
	<rect x="222.36" y="381.654" display="none" fill="#F77B55" width="60.09" height="4.921"/>
	<g display="none">
		<rect x="112.563" y="507.834" display="inline" fill="#E6E5E5" width="163.871" height="3.799"/>
		<rect x="112.563" y="500.229" display="inline" fill="#E6E5E5" width="163.871" height="3.799"/>
		<rect x="112.563" y="492.643" display="inline" fill="#E6E5E5" width="163.871" height="3.799"/>
	</g>
	<rect x="112.563" y="485.038" display="none" fill="#474F59" width="117.153" height="3.802"/>
	<g display="none">
		<rect x="112.563" y="515.439" display="inline" fill="#E6E5E5" width="117.153" height="3.801"/>
		<rect x="112.563" y="523.042" display="inline" fill="#E6E5E5" width="58.566" height="3.801"/>
	</g>
	<rect x="121.266" y="430.037" display="none" fill="#EAEAEA" width="48.159" height="26.923"/>
	<rect x="112.563" y="381.654" display="none" fill="#E6E5E5" width="25.657" height="26.422"/>
	<path fill="#269AF2" d="M342.131,468.63"/>
	<g>
		<path fill="none" stroke="#353F49" stroke-width="3" stroke-miterlimit="10" d="M341.602,463.462h204.166c5.5,0,10-4.5,10-10
			V242.565"/>
	</g>
	<g>
		<g>
			<path fill="#353F49" d="M555.138,350.575l-12.665,19.604c-0.31,0.395-0.181,0.572,0.289,0.398l12.087-8.063
				c0.472-0.174,1.233-0.176,1.704-0.004l12.269,8.067c0.471,0.172,0.6-0.006,0.286-0.396l-12.839-19.615
				C555.955,350.182,555.449,350.184,555.138,350.575z"/>
		</g>
	</g>
	<g>
		<g>
			<path fill="#353F49" d="M452.614,463.284l-19.606-12.664c-0.394-0.312-0.572-0.181-0.398,0.289l8.062,12.088
				c0.174,0.472,0.176,1.234,0.004,1.703l-8.067,12.27c-0.172,0.472,0.006,0.6,0.396,0.286l19.614-12.839
				C453.006,464.103,453.004,463.597,452.614,463.284z"/>
		</g>
	</g>
	<polyline display="none" fill="#FFFFFF" stroke="#353F49" stroke-width="3" stroke-miterlimit="10" points="631.268,230.166 
		631.268,329.564 690.822,329.564 690.822,365.373 	"/>
	<g display="none">
		<g display="inline">
			<path fill="#353F49" d="M771.879,436.466l12.664-19.604c0.311-0.395,0.181-0.572-0.289-0.398l-12.088,8.063
				c-0.472,0.174-1.234,0.176-1.703,0.004l-12.27-8.067c-0.472-0.173-0.6,0.006-0.286,0.396l12.838,19.613
				C771.061,436.859,771.566,436.857,771.879,436.466z"/>
		</g>
	</g>
	<g display="none">
		<g display="inline">
			<path fill="#353F49" d="M691.479,376.091l12.664-19.604c0.312-0.395,0.183-0.572-0.289-0.398l-12.088,8.063
				c-0.471,0.174-1.233,0.176-1.703,0.004l-12.27-8.068c-0.471-0.172-0.599,0.007-0.285,0.396l12.838,19.613
				C690.66,376.484,691.166,376.482,691.479,376.091z"/>
		</g>
	</g>
	<g display="none">
		<g display="inline">
			<path fill="#353F49" d="M849.205,359.341l12.664-19.604c0.312-0.395,0.182-0.572-0.289-0.398l-12.088,8.063
				c-0.471,0.174-1.233,0.176-1.703,0.004l-12.27-8.068c-0.471-0.172-0.599,0.007-0.285,0.396l12.838,19.613
				C848.387,359.734,848.893,359.732,849.205,359.341z"/>
		</g>
	</g>
	<g display="none">
		<g display="inline">
			<path fill="#353F49" d="M1014.027,375.427l12.664-19.604c0.312-0.395,0.182-0.572-0.289-0.398l-12.088,8.063
				c-0.472,0.174-1.234,0.176-1.703,0.004l-12.27-8.067c-0.472-0.173-0.6,0.007-0.286,0.396l12.838,19.615
				C1013.209,375.82,1013.715,375.818,1014.027,375.427z"/>
		</g>
	</g>
	<g display="none">
		<g display="inline">
			<path fill="#353F49" d="M933.879,448.51l12.664-19.604c0.311-0.395,0.181-0.572-0.289-0.398l-12.088,8.063
				c-0.472,0.174-1.234,0.176-1.703,0.004l-12.27-8.067c-0.472-0.173-0.6,0.006-0.286,0.396l12.838,19.613
				C933.061,448.903,933.566,448.901,933.879,448.51z"/>
		</g>
	</g>
	<polyline display="none" fill="#353F49" stroke="#353F49" stroke-width="3" stroke-miterlimit="10" points="848.551,336.189 
		848.551,346.314 848.551,349.814 848.551,357.814 	"/>
	<path fill="#269AF2" d="M725.894,261.165c33.474,0,60.609-27.137,60.609-60.609c0-28.755-20.031-52.816-46.896-59.032
		C739.058,80.683,689.575,31.53,628.604,31.53c-41.858,0-78.302,23.171-97.217,57.383c-5.754-2.49-12.098-3.877-18.768-3.877
		c-24.025,0-43.854,17.915-46.891,41.112c-31.263,6.2-54.835,33.771-54.835,66.854c0,37.646,30.521,68.166,68.166,68.166
		C489.545,261.165,718.709,261.165,725.894,261.165z"/>
	<g>
		<path fill="#FFFFFF" d="M525.761,223.319c-2.842-0.85-5.215-1.956-7.119-3.318c-1.904-1.362-3.428-2.916-4.569-4.658
			c-1.144-1.743-1.956-3.663-2.439-5.757c-0.482-2.095-0.725-4.285-0.725-6.57v-9.932c0-1.729-0.191-3.296-0.571-4.702
			c-0.381-1.406-0.982-2.6-1.802-3.582c-0.82-0.981-1.875-1.743-3.164-2.285c-1.29-0.542-2.828-0.813-4.614-0.813v-4.57
			c1.787,0,3.325-0.264,4.614-0.791c1.289-0.527,2.344-1.289,3.164-2.285c0.819-0.996,1.421-2.182,1.802-3.56
			c0.38-1.377,0.571-2.929,0.571-4.658v-10.02c0-2.314,0.242-4.519,0.725-6.614c0.483-2.094,1.296-4.028,2.439-5.801
			c1.143-1.772,2.666-3.34,4.569-4.702c1.904-1.362,4.277-2.468,7.119-3.318l1.144,3.472c-1.935,0.615-3.582,1.472-4.944,2.571
			c-1.362,1.099-2.476,2.388-3.34,3.867s-1.487,3.105-1.868,4.878s-0.571,3.655-0.571,5.647v10.02c0,1.553-0.153,3.025-0.461,4.417
			s-0.791,2.666-1.45,3.823c-0.658,1.158-1.5,2.197-2.526,3.12c-1.026,0.923-2.241,1.663-3.647,2.219
			c1.406,0.586,2.622,1.34,3.647,2.263c1.024,0.923,1.868,1.971,2.526,3.142c0.659,1.172,1.144,2.461,1.45,3.867
			c0.308,1.406,0.461,2.872,0.461,4.395v9.932c0,1.993,0.198,3.867,0.594,5.625c0.395,1.758,1.032,3.362,1.911,4.812
			c0.88,1.45,2.007,2.709,3.385,3.779c1.377,1.069,3.031,1.926,4.966,2.571L525.761,223.319z"/>
		<path fill="#FFFFFF" d="M570.233,188.866h-26.808l-6.021,16.699h-8.701l24.434-63.984h7.384L585,205.565h-8.657L570.233,188.866z
			 M545.976,181.922h21.753l-10.897-29.927L545.976,181.922z"/>
		<path fill="#FFFFFF" d="M602.05,180.517v25.049h-8.438v-63.984h23.6c3.632,0,6.84,0.483,9.623,1.45
			c2.783,0.967,5.121,2.322,7.01,4.065c1.891,1.743,3.324,3.809,4.308,6.196c0.979,2.388,1.473,5.003,1.473,7.844
			c0,3.076-0.492,5.823-1.473,8.24c-0.982,2.417-2.417,4.446-4.308,6.086c-1.891,1.641-4.227,2.894-7.01,3.757
			c-2.783,0.864-5.991,1.296-9.623,1.296L602.05,180.517L602.05,180.517z M602.05,173.617h15.161c2.461,0,4.576-0.308,6.35-0.923
			c1.771-0.615,3.224-1.472,4.353-2.571c1.127-1.099,1.955-2.402,2.481-3.911c0.527-1.509,0.791-3.171,0.791-4.988
			c0-1.641-0.264-3.23-0.791-4.768c-0.526-1.538-1.354-2.893-2.481-4.065c-1.129-1.171-2.578-2.109-4.353-2.813
			c-1.772-0.703-3.889-1.055-6.35-1.055H602.05V173.617z"/>
		<path fill="#FFFFFF" d="M659.442,205.565h-8.438v-63.984h8.438V205.565z"/>
		<path fill="#FFFFFF" d="M667.836,219.803c1.934-0.645,3.588-1.501,4.966-2.571c1.377-1.07,2.505-2.329,3.384-3.779
			c0.88-1.45,1.517-3.054,1.912-4.812c0.396-1.758,0.594-3.632,0.594-5.625v-9.932c0-1.582,0.16-3.076,0.482-4.482
			c0.322-1.406,0.828-2.695,1.516-3.867c0.688-1.171,1.566-2.212,2.638-3.12c1.068-0.908,2.352-1.626,3.846-2.153
			c-1.494-0.527-2.776-1.237-3.846-2.131c-1.07-0.894-1.949-1.926-2.638-3.098c-0.688-1.171-1.192-2.468-1.516-3.889
			c-0.323-1.421-0.482-2.922-0.482-4.504v-10.02c0-1.992-0.19-3.874-0.571-5.647c-0.381-1.772-0.996-3.398-1.846-4.878
			c-0.851-1.479-1.956-2.769-3.318-3.867c-1.361-1.098-3.024-1.956-4.987-2.571l1.144-3.472c2.841,0.85,5.214,1.956,7.119,3.318
			c1.903,1.362,3.429,2.93,4.569,4.702c1.144,1.773,1.956,3.707,2.438,5.801c0.482,2.095,0.725,4.3,0.725,6.614v10.02
			c0,1.729,0.191,3.281,0.572,4.658c0.379,1.377,0.979,2.564,1.801,3.56c0.82,0.996,1.875,1.758,3.164,2.285
			c1.289,0.527,2.828,0.791,4.615,0.791v4.57c-1.787,0-3.326,0.271-4.615,0.813s-2.344,1.304-3.164,2.285
			c-0.819,0.982-1.42,2.175-1.801,3.582c-0.381,1.406-0.572,2.974-0.572,4.702v9.932c0,2.285-0.241,4.475-0.725,6.57
			c-0.482,2.094-1.296,4.014-2.438,5.757c-1.144,1.743-2.666,3.296-4.569,4.658c-1.905,1.362-4.278,2.468-7.119,3.318
			L667.836,219.803z"/>
	</g>
	<rect x="171.129" y="430.037" display="none" fill="#EDEDED" width="100.306" height="26.923"/>
	<rect x="276.88" y="388.721" fill="#BDC3C7" width="39.999" height="134.32"/>
	<rect x="76.891" y="388.721" fill="#BDC3C7" width="39.999" height="134.32"/>
	<rect x="141.888" y="500.655" fill="#8697CB" width="109.995" height="22.387"/>
	<rect x="141.888" y="388.721" fill="#8697CB" width="109.995" height="44.773"/>
	<path fill="#BDC3C7" d="M191.886,452.15h-44.998c-2.76,0-5-1.673-5-3.731s2.24-3.729,5-3.729h44.998c2.759,0,5,1.671,5,3.729
		C196.886,450.479,194.644,452.15,191.886,452.15z"/>
	<path fill="#BDC3C7" d="M246.883,467.074h-99.995c-2.76,0-5-1.671-5-3.729c0-2.06,2.24-3.73,5-3.73h99.995c2.76,0,5,1.672,5,3.73
		S249.643,467.074,246.883,467.074z"/>
	<path fill="#BDC3C7" d="M246.883,482h-99.995c-2.76,0-5-1.672-5-3.73c0-2.06,2.24-3.73,5-3.73h99.995c2.76,0,5,1.672,5,3.73
		S249.643,482,246.883,482z"/>
</g>
<g id="Layer_3">
	
		<line fill="none" stroke="#353F49" stroke-width="3" stroke-miterlimit="10" stroke-dasharray="8" x1="641.101" y1="261.165" x2="641.101" y2="318.065"/>
	
		<line fill="none" stroke="#353F49" stroke-width="3" stroke-miterlimit="10" stroke-dasharray="8" x1="639.601" y1="318.065" x2="691.3" y2="318.065"/>
	
		<line fill="none" stroke="#353F49" stroke-width="3" stroke-miterlimit="10" stroke-dasharray="8" x1="693.3" y1="318.065" x2="693.3" y2="371.239"/>
	
		<line fill="none" stroke="#353F49" stroke-width="3" stroke-miterlimit="10" stroke-dasharray="8" x1="690.601" y1="318.065" x2="854.606" y2="318.065"/>
	
		<line fill="none" stroke="#353F49" stroke-width="3" stroke-miterlimit="10" stroke-dasharray="8" x1="854.88" y1="318.065" x2="854.88" y2="344.652"/>
	
		<line fill="none" stroke="#353F49" stroke-width="3" stroke-miterlimit="10" stroke-dasharray="8" x1="851.88" y1="318.065" x2="1016.1" y2="318.065"/>
	
		<line fill="none" stroke="#353F49" stroke-width="3" stroke-miterlimit="10" stroke-dasharray="8" x1="1015.373" y1="316.607" x2="1015.373" y2="370.239"/>
	
		<line fill="none" stroke="#353F49" stroke-width="3" stroke-miterlimit="10" stroke-dasharray="8" x1="773.961" y1="318.065" x2="773.961" y2="419.223"/>
	
		<line fill="none" stroke="#353F49" stroke-width="3" stroke-miterlimit="10" stroke-dasharray="8" x1="933.356" y1="318.065" x2="933.356" y2="419.223"/>
</g>
</svg>
