<?xml version="1.0" encoding="utf-8"?>
<!-- Generator: Adobe Illustrator 19.2.0, SVG Export Plug-In . SVG Version: 6.00 Build 0)  -->
<svg version="1.1" id="Layer_2" xmlns="http://www.w3.org/2000/svg" xmlns:xlink="http://www.w3.org/1999/xlink" x="0px" y="0px"
	 viewBox="0 0 289 32" style="enable-background:new 0 0 289 32;" xml:space="preserve">
<style type="text/css">
	.st0{fill:#222222;}
	.st1{fill:#0e82e5;}
	.st2{fill:#ABABAB;}
</style>
<title>PushAlert Logo for Light Background</title>
<path class="st0" d="M40.9,4.3H49c5.2,0,9.3,1.9,9.3,7.6c0,5.5-4.2,8-9.2,8h-2.9v8h-5.3V4.3z M48.8,15.6c2.9,0,4.3-1.3,4.3-3.7
	s-1.6-3.4-4.5-3.4h-2.5v7.1H48.8L48.8,15.6z"/>
<path class="st0" d="M61.8,21V9.9h5.3v10.4c0,2.6,0.7,3.4,2.2,3.4c1.3,0,2.1-0.6,3.2-2V9.9h5.3v17.8h-4.3L73,25.2h-0.1
	c-1.3,1.8-3.4,2.9-5.6,2.9C63.4,28.2,61.8,25.5,61.8,21z"/>
<path class="st0" d="M80.8,25.7l2.4-3.3c1.3,1.1,2.9,1.8,4.6,1.9c1.6,0,2.3-0.6,2.3-1.5c0-1.2-1.8-1.7-3.6-2.5
	c-2.2-0.8-4.7-2.3-4.7-5.3c0-3.3,2.7-5.6,6.8-5.6c2.3,0,4.5,0.8,6.3,2.2l-2.4,3.2c-1.1-0.9-2.4-1.4-3.8-1.5c-1.4,0-2,0.5-2,1.4
	c0,1.1,1.7,1.6,3.5,2.3c2.3,0.8,4.8,2.1,4.8,5.4s-2.6,5.8-7.3,5.8C85.2,28.1,82.8,27.3,80.8,25.7z"/>
<path class="st0" d="M98.4,2.5h5.3v6.2l-0.2,3.2c1.5-1.5,3.4-2.4,5.5-2.4c3.9,0,5.5,2.7,5.5,7.2v11h-5.3V17.4c0-2.6-0.7-3.4-2.2-3.4
	c-1.3,0-2.2,0.6-3.3,1.7v12h-5.3L98.4,2.5L98.4,2.5z"/>
<path class="st1" d="M123.7,4.3h6.4l7.3,23.4h-5.6l-1.4-5.6h-7.2l-1.4,5.6h-5.4L123.7,4.3z M124.3,18h5l-0.5-2.2
	c-0.6-2.3-1.3-5.1-1.9-7.6h-0.1c-0.6,2.5-1.2,5.2-1.8,7.6L124.3,18z"/>
<path class="st1" d="M139.5,22.2V2.5h5.3v19.9c0,1.1,0.5,1.5,0.9,1.5c0.2,0,0.4,0,0.6-0.1l0.6,3.9c-0.8,0.3-1.8,0.5-2.7,0.4
	C140.8,28.2,139.5,25.8,139.5,22.2z"/>
<path class="st1" d="M148.8,18.8c0-5.8,4.1-9.4,8.4-9.4c5.1,0,7.6,3.7,7.6,8.6c0,0.8-0.1,1.6-0.2,2.3h-10.7c0.3,2.3,2.3,4,4.6,3.8
	c1.4,0,2.7-0.4,3.9-1.2l1.8,3.2c-1.9,1.3-4.1,2-6.3,2C152.7,28.2,148.8,24.7,148.8,18.8z M160.3,16.9c0-2-0.9-3.4-3-3.4
	c-1.7,0-3.1,1.1-3.5,3.4L160.3,16.9L160.3,16.9z"/>
<path class="st1" d="M168.5,9.9h4.3l0.4,3.1h0.1c1.3-2.4,3.2-3.6,5.1-3.6c0.7,0,1.4,0.1,2.1,0.4l-0.9,4.6c-0.6-0.2-1.3-0.3-1.9-0.3
	c-1.3,0-3,0.9-3.9,3.3v10.3h-5.3L168.5,9.9L168.5,9.9z"/>
<path class="st1" d="M183.5,21.3V14h-2.4v-3.9l2.7-0.2l0.6-4.8h4.4v4.8h4.3V14h-4.3v7.2c0,2,0.9,2.8,2.3,2.8c0.6,0,1.2-0.1,1.7-0.4
	l0.8,3.9c-1.3,0.4-2.6,0.6-4,0.6C185.3,28.2,183.5,25.4,183.5,21.3z"/>
<path class="st2" d="M215.2,2.5h2l0.9,5.3c0.2,1.1,0.4,2.2,0.5,3.4h0.1c0.2-1.1,0.4-2.2,0.7-3.4l1.3-5.3h1.6l1.3,5.3
	c0.2,1.1,0.5,2.2,0.7,3.4h0.1c0.2-1.1,0.3-2.2,0.5-3.4l0.9-5.3h1.8l-2,10.5h-2.2l-1.3-5.5c-0.2-0.8-0.3-1.6-0.5-2.4h-0.1
	c-0.1,0.8-0.3,1.6-0.5,2.4l-1.3,5.5h-2.3L215.2,2.5z"/>
<path class="st2" d="M228.4,9.1c-0.2-2.1,1.4-3.9,3.5-4.1c0,0,0.1,0,0.1,0c2.1,0,3.2,1.5,3.2,3.7c0,0.3,0,0.6-0.1,0.9h-5
	c0,1.2,1.1,2.2,2.3,2.2c0,0,0,0,0,0c0.7,0,1.3-0.2,1.8-0.6l0.6,1.1c-0.8,0.5-1.7,0.8-2.7,0.9c-2.1,0.1-3.8-1.6-3.9-3.7
	C228.4,9.3,228.4,9.2,228.4,9.1z M233.7,8.3c0-1.2-0.5-2-1.6-2c-1.1,0.1-1.9,0.9-1.9,2H233.7L233.7,8.3z"/>
<path class="st2" d="M238.7,12.1L238.7,12.1l-0.2,0.8h-1.5V1.7h1.8v2.9v1.3c0.6-0.6,1.4-0.9,2.3-1c2,0,3.1,1.6,3.1,4
	c0,2.7-1.6,4.3-3.4,4.3C240.1,13.1,239.3,12.8,238.7,12.1z M242.3,8.9c0-1.6-0.5-2.5-1.7-2.5c-0.7,0-1.3,0.4-1.7,0.9V11
	c0.4,0.4,1,0.6,1.6,0.7C241.5,11.7,242.3,10.7,242.3,8.9z"/>
<path class="st2" d="M249.4,2.5h3.3c2.3,0,4,0.8,4,3.2s-1.7,3.4-4,3.4h-1.5V13h-1.9L249.4,2.5L249.4,2.5z M252.6,7.7
	c1.5,0,2.3-0.6,2.3-1.9S254.1,4,252.6,4h-1.3v3.6L252.6,7.7L252.6,7.7z"/>
<path class="st2" d="M258.5,10.1V5.1h1.8v4.7c0,1.3,0.4,1.8,1.2,1.8c0.7,0,1.4-0.4,1.8-1.1V5.1h1.8V13h-1.5l-0.1-1.1l0,0
	c-0.6,0.8-1.5,1.3-2.5,1.3C259.2,13.2,258.5,12,258.5,10.1z"/>
<path class="st2" d="M266.7,12.1l0.9-1.2c0.6,0.5,1.4,0.8,2.2,0.9c0.5,0.1,1.1-0.2,1.2-0.7c0-0.1,0-0.1,0-0.2c0-0.7-0.9-0.9-1.7-1.3
	c-1-0.4-2.2-1-2.2-2.3s1.1-2.3,2.9-2.3c1,0,1.9,0.3,2.6,0.9L271.7,7c-0.5-0.4-1.1-0.6-1.7-0.7c-0.5-0.1-1,0.2-1.1,0.7
	c0,0.1,0,0.1,0,0.2c0,0.6,0.8,0.9,1.6,1.2c1.1,0.4,2.3,0.9,2.3,2.4s-1.1,2.4-3.1,2.4C268.6,13.2,267.5,12.8,266.7,12.1z"/>
<path class="st2" d="M274.4,1.7h1.9v2.9l-0.1,1.5c0.6-0.7,1.5-1.1,2.5-1.2c1.7,0,2.4,1.1,2.4,3.1V13h-1.9V8.3c0-1.3-0.4-1.8-1.2-1.8
	c-0.7,0.1-1.4,0.4-1.8,1V13h-1.8L274.4,1.7L274.4,1.7z"/>
<path class="st2" d="M209.3,18.7h1.9l3.3,5.9l1.1,2.2h0.1c-0.1-1.1-0.2-2.4-0.2-3.6v-4.5h1.8v10.5h-2l-3.2-5.9l-1.1-2.2h-0.1
	c0.1,1.1,0.2,2.4,0.2,3.5v4.6h-1.8V18.7z"/>
<path class="st2" d="M219.1,25.3c-0.2-2.1,1.2-3.9,3.3-4.2c2.1-0.2,3.9,1.2,4.2,3.3c0,0.3,0,0.6,0,0.9c0.2,2.1-1.3,3.9-3.4,4.1
	c-2.1,0.2-3.9-1.3-4.1-3.4C219.1,25.7,219.1,25.5,219.1,25.3z M224.7,25.3c0-1.6-0.7-2.6-1.9-2.6s-1.8,1-1.8,2.6s0.7,2.6,1.8,2.6
	S224.7,26.8,224.7,25.3L224.7,25.3z"/>
<path class="st2" d="M228.4,26.5v-3.8h-1.1v-1.4l1.2-0.1l0.2-2.1h1.6v2.1h2v1.5h-2v3.8c0,0.9,0.4,1.4,1.1,1.4c0.3,0,0.6-0.1,0.8-0.2
	l0.3,1.4c-0.5,0.2-1.1,0.3-1.6,0.3C229,29.4,228.4,28.2,228.4,26.5z"/>
<path class="st2" d="M233.7,18.9c-0.1-0.6,0.4-1.2,1-1.3c0.6-0.1,1.2,0.4,1.3,1c0.1,0.6-0.4,1.2-1,1.3c0,0-0.1,0-0.1,0
	C234.2,20,233.7,19.5,233.7,18.9C233.7,18.9,233.7,18.9,233.7,18.9z M233.9,21.3h1.8v7.9h-1.8V21.3z"/>
<path class="st2" d="M238.4,22.8h-1.1v-1.4l1.1-0.1v-0.8c0-1.6,0.8-2.8,2.6-2.8c0.5,0,1,0.1,1.4,0.3l-0.4,1.4
	c-0.3-0.1-0.6-0.2-0.9-0.2c-0.6,0-1,0.4-1,1.3v0.9h1.5v1.5h-1.5v6.4h-1.8L238.4,22.8L238.4,22.8z"/>
<path class="st2" d="M242.9,18.9c-0.1-0.6,0.4-1.2,1-1.3c0.6-0.1,1.2,0.4,1.3,1c0.1,0.6-0.4,1.2-1,1.3c0,0-0.1,0-0.1,0
	C243.5,20,243,19.5,242.9,18.9C242.9,18.9,242.9,18.9,242.9,18.9z M243.1,21.3h1.8v7.9h-1.8V21.3z"/>
<path class="st2" d="M246.8,25.3c-0.1-2.1,1.5-4,3.6-4.1c0.1,0,0.2,0,0.3,0c0.8,0,1.7,0.3,2.3,0.9l-0.9,1.2
	c-0.3-0.4-0.8-0.6-1.3-0.6c-1.3,0-2.1,1-2.1,2.6s0.9,2.6,2.1,2.6c0.6,0,1.2-0.3,1.6-0.7l0.8,1.2c-0.7,0.6-1.6,1-2.6,1
	C248.5,29.4,246.8,27.9,246.8,25.3z"/>
<path class="st2" d="M254.1,27.1c0-1.7,1.4-2.6,4.6-2.9c0.1-0.7-0.4-1.4-1.2-1.5c-0.1,0-0.2,0-0.3,0c-0.8,0.1-1.6,0.3-2.2,0.8
	l-0.7-1.2c1-0.6,2.1-1,3.2-1c2,0,2.9,1.2,2.9,3.4v4.7h-1.5l-0.1-0.9h-0.1c-0.7,0.6-1.5,1-2.4,1.1c-1.2,0.1-2.3-0.9-2.3-2.1
	C254.1,27.2,254.1,27.1,254.1,27.1z M258.8,27.1v-1.8c-2.1,0.3-2.9,0.8-2.9,1.6c0,0.6,0.4,1,1,1c0.1,0,0.1,0,0.1,0
	C257.7,27.9,258.3,27.6,258.8,27.1L258.8,27.1z"/>
<path class="st2" d="M262.8,26.5v-3.8h-1.1v-1.4l1.2-0.1l0.2-2.1h1.5v2.1h2v1.5h-2v3.8c0,0.9,0.4,1.4,1.1,1.4c0.3,0,0.6-0.1,0.8-0.2
	l0.3,1.4c-0.5,0.2-1.1,0.3-1.6,0.3C263.5,29.4,262.8,28.2,262.8,26.5z"/>
<path class="st2" d="M268.1,18.9c-0.1-0.6,0.4-1.2,1-1.3c0.6-0.1,1.2,0.4,1.3,1c0.1,0.6-0.4,1.2-1,1.3c0,0-0.1,0-0.1,0
	C268.7,20,268.2,19.5,268.1,18.9C268.1,18.9,268.1,18.9,268.1,18.9z M268.3,21.3h1.9v7.9h-1.8L268.3,21.3L268.3,21.3z"/>
<path class="st2" d="M272,25.3c-0.2-2.1,1.2-3.9,3.3-4.2c2.1-0.2,3.9,1.2,4.2,3.3c0,0.3,0,0.6,0,0.9c0.2,2.1-1.3,3.9-3.4,4.1
	c-2.1,0.2-3.9-1.3-4.1-3.4C272,25.7,272,25.5,272,25.3z M277.6,25.3c0-1.6-0.7-2.6-1.9-2.6s-1.8,1-1.8,2.6s0.7,2.6,1.8,2.6
	S277.6,26.8,277.6,25.3L277.6,25.3z"/>
<path class="st2" d="M281.3,21.3h1.5l0.1,1.1h0.1c0.7-0.8,1.6-1.2,2.6-1.2c1.7,0,2.4,1.1,2.4,3.1v4.9h-1.8v-4.7
	c0-1.3-0.4-1.8-1.2-1.8c-0.7,0.1-1.4,0.4-1.8,1v5.5h-1.8L281.3,21.3L281.3,21.3z"/>
<g id="Forma_1">
	<path class="st1" d="M15,31.7c2.4,0,4.4-1.5,4.4-2.7h-8.8C10.6,30.2,12.6,31.7,15,31.7z M26.3,25.2L26.3,25.2
		c-1.6-1.4-2.4-3.5-2.4-5.6v-5.6c0-3.7-2.2-6.9-5.6-8.3v-2c-0.1-1.8-1.7-3.2-3.5-3.1c-1.7,0.1-3,1.4-3.1,3.1v2
		c-3.4,1.3-5.6,4.6-5.6,8.3v5.7c0,2.1-0.9,4.1-2.4,5.6l0,0c-0.6,0.5-0.7,1.3-0.2,1.9c0.3,0.3,0.7,0.5,1.1,0.5h20.9
		c0.8,0,1.4-0.5,1.4-1.3C27,26,26.7,25.5,26.3,25.2z M15,5c-0.8,0-1.5-0.7-1.5-1.5s0.7-1.5,1.5-1.5c0.8,0,1.5,0.7,1.5,1.5l0,0
		C16.5,4.4,15.8,5,15,5z"/>
</g>
<g id="Forma_1-2">
	<path class="st1" d="M24.6,2.8L23.8,4c2.5,1.6,4.2,4.2,4.7,7.1l1.5-0.3C29.4,7.6,27.5,4.6,24.6,2.8z M0,10.9l1.5,0.3
		C2,8.2,3.7,5.6,6.2,4L5.4,2.8C2.5,4.6,0.6,7.6,0,10.9z"/>
</g>
</svg>
