<svg id="Layer_2" data-name="Layer 2" xmlns="http://www.w3.org/2000/svg" viewBox="0 0 526 366"><title>opt-in-themes</title><rect x="274.87" y="16.43" width="238.89" height="24.61" rx="5.37" ry="5.37" fill="#636a7d" stroke="#636a7d" stroke-miterlimit="10" stroke-width="5"/><path d="M274.87,36.33H513.76a0,0,0,0,1,0,0V157.67a11.9,11.9,0,0,1-11.9,11.9H286.78a11.9,11.9,0,0,1-11.9-11.9V36.33A0,0,0,0,1,274.87,36.33Z" fill="#fff" stroke="#636a7d" stroke-miterlimit="10" stroke-width="5"/><ellipse cx="501.71" cy="26.91" rx="5.87" ry="5.88" fill="#fff"/><ellipse cx="479.61" cy="26.91" rx="5.87" ry="5.88" fill="#fff"/><rect x="286.35" y="21.03" width="173.08" height="11.76" rx="2" ry="2" fill="#fff"/><rect x="284.59" y="78.62" width="63.67" height="43.25" fill="#f1f1f1"/><rect x="373.85" y="78.62" width="131.96" height="43.25" fill="#f1f1f1"/><rect x="282.82" y="133.84" width="131.96" height="5.95" fill="#f1f1f1"/><rect x="426.29" y="133.84" width="79.52" height="27.18" fill="#f1f1f1"/><rect x="284.59" y="44.35" width="221.22" height="22.55" fill="#f1f1f1"/><rect x="282.82" y="144.46" width="131.96" height="5.95" fill="#f1f1f1"/><rect x="282.82" y="155.07" width="131.96" height="5.95" fill="#f1f1f1"/><path d="M333.82,38.39H447.19a0,0,0,0,1,0,0V73.12a4,4,0,0,1-4,4H337.82a4,4,0,0,1-4-4V38.39A0,0,0,0,1,333.82,38.39Z" fill="#00aeff"/><rect x="10.76" y="16.43" width="238.89" height="24.61" rx="5.37" ry="5.37" fill="#636a7d" stroke="#636a7d" stroke-miterlimit="10" stroke-width="5"/><path d="M10.76,36.33H249.65a0,0,0,0,1,0,0V157.67a11.9,11.9,0,0,1-11.9,11.9H22.67a11.9,11.9,0,0,1-11.9-11.9V36.33A0,0,0,0,1,10.76,36.33Z" fill="#fff" stroke="#636a7d" stroke-miterlimit="10" stroke-width="5"/><ellipse cx="237.59" cy="26.91" rx="5.87" ry="5.88" fill="#fff"/><ellipse cx="215.5" cy="26.91" rx="5.87" ry="5.88" fill="#fff"/><rect x="22.24" y="21.03" width="173.08" height="11.76" rx="2" ry="2" fill="#fff"/><rect x="20.48" y="78.62" width="63.67" height="43.25" fill="#f1f1f1"/><rect x="109.74" y="78.62" width="131.96" height="43.25" fill="#f1f1f1"/><rect x="18.71" y="133.84" width="131.96" height="5.95" fill="#f1f1f1"/><rect x="162.18" y="133.84" width="79.52" height="27.18" fill="#f1f1f1"/><rect x="20.48" y="44.35" width="221.22" height="22.55" fill="#f1f1f1"/><rect x="18.71" y="144.46" width="131.96" height="5.95" fill="#f1f1f1"/><rect x="18.71" y="155.07" width="131.96" height="5.95" fill="#f1f1f1"/><rect x="22.54" y="41.04" width="101.85" height="35.18" rx="4" ry="4" fill="#00aeff"/><polygon points="38.73 34.27 48.92 51.95 28.53 51.95 38.73 34.27" fill="#00aeff"/><rect x="10.76" y="195.01" width="238.89" height="24.61" rx="5.37" ry="5.37" fill="#636a7d" stroke="#636a7d" stroke-miterlimit="10" stroke-width="5"/><path d="M10.76,214.9H249.65a0,0,0,0,1,0,0V336.24a11.9,11.9,0,0,1-11.9,11.9H22.67a11.9,11.9,0,0,1-11.9-11.9V214.9A0,0,0,0,1,10.76,214.9Z" fill="#fff" stroke="#636a7d" stroke-miterlimit="10" stroke-width="5"/><ellipse cx="237.59" cy="205.49" rx="5.87" ry="5.88" fill="#fff"/><ellipse cx="215.5" cy="205.49" rx="5.87" ry="5.88" fill="#fff"/><rect x="22.24" y="199.61" width="173.08" height="11.76" rx="2" ry="2" fill="#fff"/><rect x="20.48" y="257.19" width="63.67" height="43.25" fill="#f1f1f1"/><rect x="109.74" y="257.19" width="131.96" height="43.25" fill="#f1f1f1"/><rect x="18.71" y="312.42" width="131.96" height="5.95" fill="#f1f1f1"/><rect x="162.18" y="312.42" width="79.52" height="27.18" fill="#f1f1f1"/><rect x="20.48" y="222.93" width="221.22" height="22.55" fill="#f1f1f1"/><rect x="18.71" y="323.03" width="131.96" height="5.95" fill="#f1f1f1"/><rect x="18.71" y="333.65" width="131.96" height="5.95" fill="#f1f1f1"/><rect x="43.44" y="238.59" width="168.84" height="22.11" rx="4" ry="4" fill="#00aeff"/><rect x="274.88" y="195.01" width="238.89" height="24.61" rx="5.37" ry="5.37" fill="#636a7d" stroke="#636a7d" stroke-miterlimit="10" stroke-width="5"/><path d="M274.88,214.9H513.76a0,0,0,0,1,0,0V336.24a11.9,11.9,0,0,1-11.9,11.9H286.78a11.9,11.9,0,0,1-11.9-11.9V214.9A0,0,0,0,1,274.88,214.9Z" fill="#fff" stroke="#636a7d" stroke-miterlimit="10" stroke-width="5"/><ellipse cx="501.71" cy="205.49" rx="5.87" ry="5.88" fill="#fff"/><ellipse cx="479.61" cy="205.49" rx="5.87" ry="5.88" fill="#fff"/><rect x="286.36" y="199.61" width="173.08" height="11.76" rx="2" ry="2" fill="#fff"/><rect x="284.59" y="257.19" width="63.67" height="43.25" fill="#f1f1f1"/><rect x="373.86" y="257.19" width="131.96" height="43.25" fill="#f1f1f1"/><rect x="282.82" y="312.42" width="131.96" height="5.95" fill="#f1f1f1"/><rect x="426.3" y="312.42" width="79.52" height="27.18" fill="#f1f1f1"/><rect x="284.59" y="222.93" width="221.22" height="22.55" fill="#f1f1f1"/><rect x="282.82" y="323.03" width="131.96" height="5.95" fill="#f1f1f1"/><rect x="282.82" y="333.65" width="131.96" height="5.95" fill="#f1f1f1"/><path d="M277.08,330.31H511.55a0,0,0,0,1,0,0v7.59a8,8,0,0,1-8,8H285.08a8,8,0,0,1-8-8v-7.59A0,0,0,0,1,277.08,330.31Z" fill="#00aeff"/></svg>