<svg id="Layer_1" data-name="Layer 1" xmlns="http://www.w3.org/2000/svg" viewBox="0 0 526 366"><title>custom-strings</title><path d="M420.3,200a159,159,0,1,1-159-159A159,159,0,0,1,420.3,200Z" fill="#6bcef5"/><path d="M224.13,332.88a9.19,9.19,0,0,0,2.81-.61c-1.15-1-3.7-1-5.2-2,0.1,0.05-4.82-2.91-3.76-.47,0.29,0.61,1.21.06,1.6,0.36-0.59.88-.81,0.61-0.2,1,0,0-5.45-3,0-3.17-3.8-3.39.25-2.33-1-4.5-0.79-1.45,3.23-2.84,1-4.1-1-.62-2.15-0.49-3.19-1.24-1.51-1.08-.07-3,1.3-2.81,0.15,0,.86-3.42,1.14-4-0.4-.17-3.23-3.66-2.52-4.4s4.47,2.27,5.35,0c0.35-.82-1.26-3.07-1.15-4,1.68-.17,12.49.24,10.68-4.74-0.67-1.71-5.22-4.31-4.74-5.72,1.57,0.25,4.2,2.52,5.93,1.64,1.4-.73,2.5.8,4-0.86,0.21-.29,2.64-2.85,2-3.35a1.15,1.15,0,0,0-1.25,1.27c-0.81-1.18.67-2,1.42-2.84,0.18,0.26.38,0.53,0.54,0.73,0.91-1.35,5.95-7.89,6.08-8,2.59-3,.46-7,3-9.36a23.26,23.26,0,0,1,7.77-4.76c0.9-.38,4.08-2,4.71-1.87,5.34,1.65,4.71-4.72,8.07-7.59s0.89-17.58,3.74-18.7c1.52-.59,6-6.15,8.39-8.73,2.25-2.42,2.57-5.59,1.67-8.69-1.36-4.77-2.68-2.06-6.11-4.12-2.81-1.67-4.9-4.94-8.32-5.42-2-.27-4.08.36-6.08-0.26-0.84-.25-3.1-1.62-4-0.47a4.74,4.74,0,0,0-1.69.8c-0.26-.14,0-2.61-0.71-3.2-1-1-4.59-2-5.84-2.33-3-.77-3.71,2.74-4.46-1.43-2.43-.68-4.86-3.51-4.44-4.22,0.21-.3-3.82-8.78-4.37-8,0-2.85-8.91-6.4-11.12-5-2,1.48-5.76-1.32-7-2.67-1.43-1.52-1.39-3.12-3.75-4.09-1-.43-2.69-0.23-2.32-1.95s-4.35-2.2-4.81-4a4.15,4.15,0,0,0,1.89-.37c-1.87.63-4.09-.7-5.93,0.79-2.62,2.21-4.23-1-7.12-.48-3.71.71-1.24-.65-3.53-2.05,1,0.59-4.33-2.42-3.09-2.32-1.12-.12.17,1.83-1.08,2.26-1.89.69-3.59,1.13-2.3,3.44,2.09,4.22-4.43,2.23-1.37-.62,0.55-.49.71-6,1.34-5.78-0.8-.28-6.76,3.6-7.41,4.41-1.93-3-5.13,7.61-6.25,7.68-0.56-2.62-3.05-3.68-5.17-4.48-1.9-.72-3.74,3.73-6.12,1.28-4.33-4.33-2.44-11.34-.29-16.32,0.94-2.29-7.9-3-9-2.07-2.14,1.77.36-3.64,0.34-3.47,0.22-2.19.72-3.65,1.67-3.62,0.57-1.28,3.88-7.18,3.54-7.88-1.3-3.1-6.92,2.37-7.46,3.77s-1.62,2.08-2.13,3.3-1.55-.26-2.46.23c-2.4,1.35-5.81.65-5.28-2.85,0.54-4.22-1.1-12.56,3.66-15.43,1.45-.91,1.63-5.09,3.34-6.57,0.2-.19,5-3,4.52-3.52,0.69,0.74,4.45-.78,5,0.21,0.31,0.82,2.56,1.67,3.34,1.2-0.06.11,0.37-1.85,0.37-1.88s-1.54-.22-1.47-0.69c0.15-.66,4.63-0.22,4.81-0.2,2.1,0.16,3.69,1.93,5.25.86,2.45-1.66.94,9.25,1.93,10.24,0.53,0.61.15,1.91,1.19,1.82,1.39-.16,1.82-14.19,5.44-17.1a59,59,0,0,1,8.43-5.62c1-.48,3.38-1.67,3.88-2.55-0.1-.45-0.56-1-1-0.54-0.14-.85,1.29-0.32,1.56-1.2s-0.77-1.21-.63-1.51c0,0.07.88-1.87,0.59-1.61a1.59,1.59,0,0,1,.05.21c1.48,0.23-.34-1.38-0.4-1.59,1.92,1,1.11-2.11,3-2.25-1.33.56-1.06,2-.9,2.95,0.38,2,2.18-2.78,1.94-2.58A37.63,37.63,0,0,0,200.42,99c-0.44-.19-0.92.18-1.44-0.22,2-.71,4.17-0.48,6-1.44a4.13,4.13,0,0,1,3.31-4.41c3.4-.58,7.38-2.64,10.74-3.81-0.51,1.18.31,0.3,1.23,0.72-1.09-2.86-7.12,5.35-4.28,3.66,2.41-1.43,10.56-2.68,11.72-5,0-.14-0.54-1.7-0.54-1.7-2,0-2.21,2.48-4.68,2.48-4.5-.06-1.75-2.82-2.7-4.06a2,2,0,0,1-2-.65c0.47-.1,6-1.37,3.06-2.06-4.74-1-7.92,4.28-11.85,4.14,2.92-1.78,6.9-5.59,10.45-6.06,3.82-.51,9,1.35,12.38-1,2.95-2.05,5-.53,6.63-3.87,0.53-.92-2.13-2.08-2.82-2.21,0.28-.35.88,0,1.12-0.56-4.46-2-5.4-4-5.92-9.12-2.3,1.66-9.9,5.2-5.84-.55-1.47-.64-6.07-4.49-7.81-1.81-0.85,1.17-2.17,3.17-3.48,3.8-3,1.36-.35,1.09-1.37,3.12-1.7,3.36-5.85,2.89-7.81,5.82-1.2,1.83-1.61,3.11-3.53,4-1.65.74-2.27-1.22-1.5-2.81,0.63,0.66,1.18.76,1.65,0.27,0.14-.68-0.89-0.35-1.23-0.64a15,15,0,0,1,2.18-2.84c-0.28-.16-4.58-0.84-4.39-1.94,0.23-2.36-2.69-1.07-3.2-1.75,2.3-2.89,2.32-4.22,6.78-6.46,1.54-.78,10.11-5.18,11.69-4.07-0.19,1-1.24.78-1.8,1.29,1.21,0.31,4.78.69,6-.17-0.29-.22-1.75-2.6-1-3.18a12.15,12.15,0,0,0,2.62,0c1.41-.32,2.92-0.5,3.68-1.89s5.24-2.87,6.3-2.25c5.94,3.35-8,6.92-8.14,6.54,0.22,1,4-.68,5,1.93,0.21,0.61,4.54,2,4.95,1.39,0.23-.29-1.24-1.84-1.31-2.24,4.51,2.18,4.24,1.07,3.51-2-0.69-2.87,2.61.17,2.84,0.26,0.72,0.4,3.76-1.35,4.21-2-1.07-.86-3-0.84-4-1.87-0.9-.87,2.38-1.09,1.25-2-1.36-1.14-3.53-.82-2.81-3a2.65,2.65,0,0,0-2.18.27c0.18,0.43.64,0.09,0.79,0.32a4.2,4.2,0,0,1-2.42.49c0.28-.36,1-0.36,1-1.1-2.31-.26-3.57,1.1-5.6,1.73,0.57-.83,1.55-1.09,2.28-1.71a11.4,11.4,0,0,0-6.07,2.54,3.49,3.49,0,0,1,.66.81c-1.66,1.52-4,2-6,2.9,0.36-1.37,1.81-1,2.29-2a4.44,4.44,0,0,0-2.09.48c0.8-.12,3.31-2.62,3.89-3.25-3.62-.42-5.13,4.25-8.55,3.58,0.74-.81,2.19-0.4,2.66-1.71-1.28.17-6.07,3.41-6.84,1.71,0-.08,8.72-3.58,9.64-4.84-0.57-.08-1.2.54-1.75-0.18,0.39-.49,1.14-0.51,1.62-1-2.89,0-11.46,3.47-10.83,5.49a3.35,3.35,0,0,1-3.63.56c0.53-.82,2.41-0.82.91-2-2.82,1-5.48,2.15-8.22,3.31a161,161,0,0,0-18,9.54c-9.52,5.9-17.34,12.86-25.19,20.72-4.17,4.24-20.06,22.77-20,26.66,0,2.84-1.61,5.36-2.69,7.95-0.87,2.1-.94,5.06-2,7-2.29,4.1-1.24,8.85-2.28,13.58,1.31-1,4-22.6,6.34-21.79,0.43,0.14-1.44,9-1.92,10.07-2,4.53.61,10.07-.71,14.82-0.12.46-.76,2.89-0.78,3.37-2.23,1.66.58,4.17,0.56,6,0,1.08,5.57,6,6.63,6.6,2.38,1.41,2.85-1.09,4.94-.61s2.48,3.86,3.5,5.34c1.41,2.07,6.58,1.86,7.48,2.8,0.58,0.73.1,4.73,2.48,5.31a4,4,0,0,1,.26-1.91c0.75-.45,2.27,2.22,1.75,2.71a2,2,0,0,1-2-.8c0,0.34-.39,5.55,1.12,4.54a8.37,8.37,0,0,1,.18-1c1.94,0.85,1.81,3.77,3.24,4.18,1.94,0.54,3.42,3,4.87,3.66,1.28,0.68,1-4.57,3.46-4.83,2-.18,3.11,5.05,3.79,6.31,1,1.86-1.41,6.27-.06,7.7s-3.45,5-3.64,6.43c-0.16,1.12-2.61,2.17-2.52,2.59a9.64,9.64,0,0,1-1,4.06c-1.27,3.26-.62,3.54,1.48,5.08,0.06,0.05-3.93,7.94-1.63,10,3.63,3,8.37,10.34,9.56,14.94,2.33,6.35,6,10.22,12,13.38,4.93,2.57,8.37,7,8.37,12.86,0.19,3.49-.3,7.84,1.17,11.14,1,2.27-.94,6,0.54,8.07,0.94,1.27-.34,2,0.23,3.21s1.91,3.39,1.89,4.89c0,2.49,0,5.45.17,7.91,0.06,0.86-.74,2.29-0.3,2.81,0.57,0.69,3.92,8.94,3.92,11.36,0,0.59,2.59-.16.23-2.51,2.81-1.56,2.25,5,2.42,5-2.51-.85-0.9-0.18-0.68,3,0.11,1.89-.49,1,1.07,1.33,2.44,0.56,0,2.2.9,3.52,1.82,2.67,4.68,5.14,6.63,7.18,3.17,3.33,8.6,2.81,12.37,3.6h0Zm10.32-259.1A6.3,6.3,0,0,1,231.67,75C232.36,74,233.4,74.09,234.45,73.78Zm-8.24-.73a1.54,1.54,0,0,1,1.5.56c0,0.25-3.4.41-3.9,1.31,0.44-1.51,1.65-1.26,2.41-1.86C226.53,73.5,225.45,73.65,226.21,73.05ZM217.86,79c0.72,0.18-1-.17,0,0C217.9,79,217.7,78.93,217.86,79Zm-4.56-8.71c0.29-.36.55-0.29,0.7,0.17-0.29.36-.57,0.31-0.7-0.17C213.33,70,213.29,70.46,213.3,70.25Zm-4.53,13.57c-1.33-.08,1.36,0,0,0C208.58,83.81,208.93,83.83,208.77,83.82Zm1.36-5.28c-4.44,4.16-1,.06-2.29,1.36a0.09,0.09,0,0,1-.06.13c-0.38-.4,2.21-1.46,2.35-1.49C209.52,79.08,209.35,78.71,210.13,78.54Zm-1.69-4.87c-0.75.91-.75,0.91-1.9,0.69C207.17,74,207.92,74.12,208.45,73.66ZM228.25,58h-1c1.43-1.18,1.13,0,1,0h0Zm3.18-2.1c-0.5.54-1.16,0.23-1.77,0.51C230.29,55.19,230.4,55.17,231.43,55.94ZM213.5,57.39a1.7,1.7,0,0,1,1.33-.47c0.45,0.61-2.68,1-1.33.47C213.71,57,213.35,57.47,213.5,57.39Zm-0.77-.9c0.51,0.23.46,0.45-.16,0.72-0.42-.27-0.36-0.49.16-0.72C212.89,56.49,212.45,56.51,212.73,56.49ZM189.53,96s-6.94,2.78-6.37,1c-0.21.56,2.35-2,1.81-1.73a46.36,46.36,0,0,1,6.61-.51A4.59,4.59,0,0,1,189.53,96C188,96.61,190.25,95.79,189.53,96Zm5.6-3.43c5.73,0.54-3.42,2.31-4.4,1.27a5.51,5.51,0,0,1,4.4-1.27C195.56,92.65,193.52,92.41,195.12,92.58Zm-1-35.79a15.69,15.69,0,0,1,5.19-2.18,13.89,13.89,0,0,1-5.23,2.22Zm0.29,31.12a0.43,0.43,0,0,1-.71,0c0.35-.15.66-0.24,0.71,0S194.41,87.67,194.46,87.91Zm-1.67,3.43c-0.12,0-.54-0.11,0,0h0Zm-1.69-2.92c2.1,1,.86,4.21-0.91,1.68-0.05,1.5-2.73,4.06-4.11,4.38a2.08,2.08,0,0,0,.58-2c-0.45-.37-1.33.63-1.82,0.63,0.21,0.9,3.76-6.1.75-4.08-1.1.84-8.27,8.48-8.7,8.06-0.64-.67,3.21-6.31,3.47-6.52C182.84,88.56,188,87,191.1,88.41Zm-4-26.73c0.28-.18,2.6-1.59,2.86-1.25,0.79,0.89-3.67,2.06-3.93,2.08a2,2,0,0,1,1.07-.83C187.89,61.22,186.77,61.85,187.1,61.67Zm0.46,18.76c0,0.11-.88,1.85-1.49,1.14-0.41-.47,1.33-1.95,1.49-1.14C187.46,80.89,187.5,80.21,187.56,80.43ZM182.5,65.95c0.31,0,4-2.35,4.17-1.39C186.71,64.83,182.1,66,182.5,65.95Zm-1,3.84a1,1,0,0,1-1,.65A1.3,1.3,0,0,1,181.49,69.79Zm-2.59,9c0.51-.39,1.77-2.34,1.12-3.11,0.34,0.4-2.21-.28-1.06-0.73,0.47-.16,3.42-1.75,3.88-1.25,0.85,0.85-3.63,5.55-4.53,6a1.3,1.3,0,0,1,.59-0.87C179.65,78.23,178.67,79,178.9,78.79Zm2.53,5.93c3.26-1,4.41-2.83,6.36-.39,0.68,0.92.58,3.27-1.12,2.72,0.47,0.17-5.25-.37-4.22-1a5.81,5.81,0,0,1-4.66.64,21.67,21.67,0,0,1,3.64-2C182.26,84.47,180.14,85.16,181.43,84.72Zm-4.47-6c0.33,0.75.07,1.15-.76,1.27C176.49,79.5,176.75,79.1,177,78.75Zm-45.61,69.36c-1.47,0,1.11,0,0,0h0Zm18.42,13.22c-0.42.15,1.12-.25,0,0C149.7,161.39,149.93,161.3,149.76,161.33Zm45,14.88c-0.82-.15.86,0.07,0,0C194.6,176.21,194.82,176.22,194.72,176.21ZM202,307.94c-1.23-.21.7-1,0,0C201.76,307.9,202.1,307.9,202,307.94ZM205.32,242c-0.46-.47.25,0.27,0,0C205.29,242,205.4,242.11,205.32,242Zm0.51,41.05h0C205.63,283.17,205.94,283,205.83,283.09Zm4.35,44.23c-0.6-.31-0.6-0.55,0-0.62,0.63,0.26.64,0.48,0,.62C209.91,327.3,210.38,327.4,210.18,327.32Zm5.7,2.51c-0.57-.11-0.52-0.35.16-0.68,0.49,0.19.44,0.43-.16,0.68C215.66,329.84,216,329.78,215.89,329.84ZM203.77,313.5a1.66,1.66,0,0,1-.24.06C203.75,313.43,203.8,313.42,203.77,313.5ZM218,49h0a0,0,0,0,1,0,0v0ZM164,74.53h0Zm1.48-1.26h0ZM417.7,171.51h0c-3.14-11.44-5.43-22.77-10.2-33.88a159.48,159.48,0,0,0-22-36.79,156.58,156.58,0,0,0-29.05-28.12A150.58,150.58,0,0,0,340,61.91c-2.7-1.59-5.51-3.08-8.31-4.47-1.28-.6-5.57-1.71-6.26-2.78,0,0.47,2.53,1.75,2.88,2.09-1.67-.46-6.12-2.33-6.17-2.64s0.42,0,.38-0.33c-2.51-1.59-11.87-5-13.74-2.5,0.4-.49,6.47,6.51,6.62,7.75,0.4,2.75,4.65,5.64,7.39,6.52,3.78,1.27,1-.43,2.55-1.31,1-.5,2,1.73,2.95,1.23a0,0,0,0,1,0-.05c-0.29-.54-0.57-1.07-0.88-1.58-0.26,0,6.88,7.38,7.8,5.76a17.59,17.59,0,0,0-4.2-6.11c-1.76-1.7-4.6-1.86-6.55-3.52-1-.88-4.6-3.5-5-4.74,4.82,0.14,10.34,10.29,15.17,6.35a16.83,16.83,0,0,1-2-1.47c0.85,0.28,4.87,1.53,3.54,3.24-3.82-.66,3.23,3.2,3.35,3.64-0.7,0-1.18-.6-1.8-0.67,0.24,1.35,4,2.71,4.28,5-2.26.38-1.26-1.36-2.73,0.48-0.48.58-2.53,0.41-3.63,0.5-2.65.23-5.55-4.26-7.49-5.62,0.79,2.49,2.17,3.67,5,5.42,1.32,0.78-1.89,1.13-1.86,2.24a1.75,1.75,0,0,1,.87.63,2.9,2.9,0,0,1-.87-0.63c0.25-.17-0.47,4.4-0.52,4.31,2.14,2.51-2.9,1.8-3,1.87,0.4,0.56,1.17.86,1.4,1.7-1.49.08-2.68-.14-4.1,0.37,2.07,0.63,13.43,5.89,10.95,9.86-0.77,1.29-8.52-.34-9.91-0.39-3-.21-0.24,2.85-0.17,3.21,0.48,2.28,2.28,3.27,2.11,5.93-0.13,1.85,1.78,1.91,2.36,3.51,0.51,1.36.24,1.5,1.7,1.69,2.54,0.33,2.59-.07,4.72,1.62,1.5,1.18,2.09-1.14,3.93-1.2,4.52-.21.63-1.09,2.8-1.73,2.71-.74-0.72-4.93-0.59-5.74,0.25-1.1-.15-2.32,1.34-2.76,2.28-.58-0.62-3-0.81-3.6-0.4-1.89,6.34,1.59,5.52-3.17,3.88,1.21,7.88,4.75,11.47,6.76a19,19,0,0,1,5.81,4.49c1.85,2.4-2.64,1.43-2.94,2.11s4,2.65,4.62,2.62a17.79,17.79,0,0,0-.58-3.28c-0.16-1.69-2.62-3.36-2.48-4.71a3.56,3.56,0,0,1,2.08.9c-2.23-2.84-5.91-3.12-8.53-5.17-1.59-1.28-3.54-2.32-5.07-3.62,0,0-2.73-3.53-.85-2.86,3.06,1.05,6.35,4.14,9.44,5.74,2.46,1.28,3.1,2.08,4.88,4.2,0.72,0.81,4.51,5.22,5.37,5.34,0,0,3.08,2.76,4.31,3.18a32.94,32.94,0,0,0-1.68-3.88c-0.85-1.37-4.38-2.17-4.38-4.25,0.81,0.08.9-.77,2.63-0.69-0.92,0,1.12-1.36,1-1.16-3.3-1.88-7.75-7.4-8.92-11.09,0.9,0,1.37,1.25,2.36.61a3.58,3.58,0,0,1-.28-2c0.24,0.28,3.35,3,2.72,3.5a2.91,2.91,0,0,1-2.19-1.07c0.42,1.56,2,1.58,2.61,2.68a2.11,2.11,0,0,1,.11-1.27c2.79,1.13,8.3,5.44,9,8.51-1.18.12-3.49-2.41-4.26-1.81a2,2,0,0,0,.11,1.86,2.1,2.1,0,0,0-1,.25,2,2,0,0,1,.78,1.35l-1.36.4c0.39,1.53,8.46,9.2,9,8.43,0.16-.27-0.36-1.05-0.19-1.16,0.4-.49,1.69,1.73,2.32,1.29s-0.52-1,.07-1.33c1.26-.63,6.1,8.84,6.67,9.94,2.3,4.4.76,1.71-1,2.33a2.71,2.71,0,0,0-.49,1.45,25.23,25.23,0,0,1-8.25-3.92c-3.62-2.64,1.22,7.15-.91,5.94-1.23-.7-1.94-1.75-3.54-1.9-2.17-.21-2.78-2.56-4.82-3.26-1.71-.55-8.27-1.17-7.4-4.18,0.67-2.57-2.61-4.7-3.74-5.66-0.57-.52-7.82.41-9,0.79-2,.63-5.16,1.28-6.27,3.17-1.94,3.47-6.4-1.12-8.21-.39-0.92.36,0,3.25-.53,4.17-0.68,1.35-2.5,1.45-2.93,3.07-0.76,3,1.46,5.45.44,8.19-0.79,2.17-5.05,3.11-5.1,4.89a2.66,2.66,0,0,1-1.07,2.53c-1.94,1.12.05,3.63-1.14,4.89-6.45,6.56,2.08,13,.61,20.26-0.85,4.07-1.33,4.94.47,8.44,0.4,0.87.07,7.25,3.29,4.66,0.39,3.7,5.2,4.46,6,8,1.05,4.2,5.17,6,8.32,8.52,1.3,1,2.38,2.32,3.87,3.07,2.58,1.33,4.33-.72,6.89-1.43a9.33,9.33,0,0,1,6.71.57c1.26,0.6,10.36-5.86,12.83-4.63,1.77,0.88,1.89,3.11,2.72,4.68,1.18,2.23,3.73-.68,5.4.07,3,1.34,3.89,12.28,1.34,14.29-1.89,1.37,2.41,7.34,3,8.56,1.69,3.4,3.24,9.28,2.7,13-0.44,3,.41,7.86-1.35,10.51a72,72,0,0,0-4.12,8.57c-3.59,7.79-.12,16.62-3.22,24.71-1.87,4.15-1.54,8.59-2.54,12.9-0.71,2.78-4.09,6.81-2.77,9.74,2-1.83,5.06-1.61,7.39-2.75,4.65-2.31,6.93-7.75,10.34-11.39a24.35,24.35,0,0,0,4.05-6.67c1-2.23,3.11-3.68,4.07-5.89,2.39-5.54,4.57-11.08,7-16.61,5-12,5.83-23.48,7.61-36.34A123,123,0,0,0,417.7,171.51Zm-12-31.58c-0.67-1.61-9.13-14-8.13-14.7s19.25,31.32,17.29,36.29c-2.81-7.29-6.06-14.42-9.16-21.59C405.67,139.84,406.33,141.41,405.69,139.93Zm7.75,56.7c-0.31-.88.13-1.64,0.39-2.68C414.21,195,413.59,195.79,413.44,196.63Zm-0.94,5a1.55,1.55,0,0,1,.33-1.39A1.32,1.32,0,0,1,412.5,201.67Zm-3,41.12a10.21,10.21,0,0,1-1,.37c-0.58,0,1.08-.83,1.2-0.86a1.78,1.78,0,0,1-.22.49C409.27,243.17,409.57,242.7,409.47,242.79Zm0.47-16.71c0-1.5,0-1.58,1.55-2.55C411.22,224.61,410.15,225.09,409.94,226.08Zm1.74-7.77a37.49,37.49,0,0,1,.49-8.76c0.11,4.73.32,9.5,0.18,14.24-0.77-1-.67-4.27-0.67-5.48C411.67,217.29,411.69,219.27,411.69,218.3Zm2.46,8.91c0,2.55-.39,9.49-2.11,11.47,0.22-4.3,1.78-8.2,1.84-12.47a1,1,0,0,1,.27,1C414.15,227.51,414.18,226.93,414.15,227.22Zm2-26c-0.75,3,0,4-1.84,5.69,0-2.25-.86-6.61,1.49-7.93a3.4,3.4,0,0,1,.35,2.24C415.84,202.49,416.37,200.32,416.15,201.24Zm-99.8,147.62c0.22,0.45-20,6.16-22,6.6a162.35,162.35,0,0,1-25.53,3.3c-16.37.8-33.44-.69-49.12-5.47,2,0.23,4.47,1.27,6.52.95-2-1.22-4.38-.78-6.16-2.31,6.55,1.08,12.83.58,18.84,1.34-0.62-.82-6.1-2.16-6.07-2.72,0.73-.05,5-0.18,5.13-0.31,2-1.53-3.14-1.36-2.65-2.46,0.11-.29,1.54.19,2-0.47,0.75-1,0-1.57.27-2.09s8.17-1.85,9-1.48c-0.9.55-2-.1-1.6,1.45-0.76-.12-3.23-0.05-3.38,1a28.83,28.83,0,0,1,2.78,3.54c0.92,1.46,4.07,2.31,4.37,4,0.52,2.89,15.56,2.61,17.8,2.35,5.63-.62,10.89-2.64,16.42-3.6,3.32-.57,6.57-1.52,9.93-1.85,1.57-.16,6.7-1.94,7.93-1.53,0.74,2.68,12.78-.82,15.56-0.27C316.39,348.95,315.91,348.78,316.35,348.87Zm91.56-87.74c0.63-1.62,1.17-3.32,2-4.89A33.14,33.14,0,0,1,407.91,261.12Zm2.61-6.59c0.07-.2.2-0.38,0.27-0.58A0.9,0.9,0,0,1,410.52,254.54ZM236.71,46.45c-0.86-.16-1.78,0-2.69-0.19,0.47-.43,3.17-0.5,2-1.25,3.71-2.26,11.36-2.72,15.54-2.21,4.78,0.61,9.47-.87,14.17-0.12,1.87,0.29,3.54.33,5.4,0.47,1.65,0.17-.23,1.86,1.65,2.13,1.09,0.16,3.26,2.65,4.26,2.11,0,1.72-.78.53-0.24,2.14,0.1,0.37,2.08,1.47,2,1.61s-5.47-.13-5.27-0.07c-0.36-.06.09,0.86,0.44,0.7,1,0.27,3.36-.07,4.48,0-2.62,2.42-6.61,2.13-9.59,4.05-1.82,1.19-4.53,1.08-6.51,1.81,0,2-1.55,4.52-2.9,6.6-1,1.45-7.66-1.9-8.39-2.75-1.45-1.75-4.76-6.4-1.15-7.81,4.42-1.75,0-.33-1.29-1.28,1.09-1.47,2.24-1,3.9-.72a2.31,2.31,0,0,0-3.17-.88c-0.44-1.27,1.82-2.39-.13-3.77-0.87-.57-5.51.11-5.68-0.72-0.26-2,5.7-.94,6.73-2.6-4.44-1-9.24,3.39-13.53,2.73C235.85,46.29,237.47,46.55,236.71,46.45Zm83.66,30.31c0.71-.08-0.92-2.36-1.34-2.8a2.08,2.08,0,0,0,1.4-.22c-0.37-1-5-3.71-5.28-3.5-1.79,1.07-3.95-3.8-4.2-4.47,3-.43,4.88,2.78,7.57,4.12,2.32,1.11,10.62,5.08,10.85,7.58,0.16,1.25-6.31.73-7.22,2.21-0.76-1.85,1.62-1.82,1.54-2.4s-3-.54-3.32-0.5C320.21,76.77,321.36,76.59,320.37,76.76ZM235.7,79.08c-0.43.35-6.11,5.66-5.93,6.17s5.8,0.15,6.79.7c-0.07.63-.81,0.3-1,0.86,0.76,0,3.09-1.42,3.43-1a2,2,0,0,1-.15,1.06c2.51,2.5,2.29-2.93,2.41-3.2-1.78-.25.4-2.76-2.6-1.69a12.09,12.09,0,0,0-3.1-.81c-0.26-.29,2.45-2.65,2.68-3-1.59-.4-1.84.3-2.55,0.86C234.73,79.78,235.87,78.94,235.7,79.08Zm5.54,5.9c0.19,0.22-.4.22,0,0C241.27,85,241.19,85,241.25,85Zm-1.31-.15c0.2-.17,1.11-0.58.52,0-0.17.39-1,.65-0.52,0C240,84.76,239.85,85,239.94,84.84Zm-4-6.47,0,0a0.15,0.15,0,0,0,0,.07A0.11,0.11,0,0,0,235.95,78.37Zm-5.05,5.1a0.65,0.65,0,0,1,.41.08c-0.14,0-.8,0-0.41-0.08C231.05,83.47,230.82,83.49,230.89,83.47Zm-55.13,66.3c-1.55.16,1-1.23,0.76-1.72-1.06-2.4-8.23-3-8.91-4.86a1.22,1.22,0,0,0,.65-0.68c-2.48-1-3.78,2-6,1.82,4.63-7.84,16.11,1.14,20.73,4.76-2.41.33-4.81,0.35-7.25,0.68C175.52,149.77,177.08,149.56,175.76,149.77Zm6,4.19c-1.2-.5,3.76-0.47,4.47-0.74-1-1.51-.11-2.33-2-2.91,1.7-2.12,7.52.37,9.33,1.16-0.14.27-.51,0-0.68,0.34,0.13,0.15,4,3.27,1.41,2.23-2.84-1.21-4.39.48-6.37,1.58-1.56-2.22-4.11-.67-6.16-1.65h0ZM316.34,73.54c2.69,2.8-1.5,5-3.4,3.16-0.95-1-.37-3.21-2.51-3.89,0.57-.15,1.14-0.33,1.73-0.55-1.47-3.46,3.51.55,4.19,1.28S316.15,73.32,316.34,73.54Zm-35.19-17C281,56,285,56.25,285.7,56.11c1.09-.17,9.15.64,6.29,1.93-2.18,1-5.41,2.13-7.5.2-0.5-.44-3.3-1.57-3.35-1.69C281,56.19,281.3,57.09,281.15,56.54Zm73.59,40c0.94,0,3.22,3.62,2.84,4.22-1.09,1.71-2.87-2.63-4-3.28A10,10,0,0,0,354.74,96.49ZM228.93,47.55c2.79-2.07,3.42-.87,6.84-0.54-1.08,1-3.75,1.21-6.84.54C229.74,47,232,48.21,228.93,47.55Zm60.72-2.36c-2.06-.58-4.18-0.65-6.15-1.43,2.36-.27,5.22.64,6.86,1.12,0.54,0.15-.89.25-0.71,0.31C287.59,44.61,289.83,45.23,289.65,45.18Zm-6.15-1.43c-0.19,0-.45,0-0.66.06a0.45,0.45,0,0,1,.66-0.06C283.3,43.79,283.41,43.73,283.5,43.76ZM176.38,154.07a0.81,0.81,0,0,1,.77.7c-0.29,1.15-3.85-.48-4.25-1A3.35,3.35,0,0,1,176.38,154.07ZM202,154c-1.88,4.61-6.63-3.24,0,0C201.7,154.67,200.85,153.46,202,154Zm7.4,22.49h0a0.33,0.33,0,0,1,.36-0.21A2.08,2.08,0,0,0,209.35,176.49Zm0.65-.15c-0.09,0,.5-1.87,1.74-2,1.44,0.92-1,2.11-1.74,2C209.88,176.31,211.57,176.52,210,176.34ZM225,46.55c-1.23.86-2.75,0.28-4.1,0.78,1.85-1.27,2.69-1.15,4.1-.78C223.8,47.42,224.84,46.49,225,46.55ZM177.3,139.76c-0.5-1.89-1.27-1.94,0-3.58,0.49,1.77.49,2.84,0,3.58C177.08,139,177.83,139,177.3,139.76Zm-34.46,65.73c0,0.71-.39,1-1,0.72a4.36,4.36,0,0,1,.06-3c0.32,0.74.63,1.48,0.95,2.26C142.93,205.8,142.51,204.72,142.83,205.49ZM222.49,81.17a5.8,5.8,0,0,1,4,1.38A4.19,4.19,0,0,1,222.49,81.17ZM354.14,95.85l0,0c-0.43-.13-3-1.7-2-2.57C352.93,92.77,354,95.58,354.14,95.85Zm26.7,13.26c-0.5-.52-1.55-0.15-1.85-1.19,0.9,0.46,1.89.24,2.79,0.9-0.36.26-.64,0.59-0.94,0.29h0ZM227.31,47.45c-0.29-.4-0.74-0.15-1-0.48,0.7-.81,1.72-0.52,2.62-0.76,0,0.08-1.08,2-1.63,1.24C227,47.05,227.44,47.68,227.31,47.45Zm-4.46,1c-1.16.88-2.4,1.77-4,1.61C219.91,48.89,221.4,48.72,222.85,48.43Zm-0.43,39.34a5.48,5.48,0,0,0,1.2,0c-1.6,1.88-3.37-.76-3-0.89-0.25.08,1.76,0.92,1.84,0.94C222.77,87.83,221.83,87.69,222.42,87.77ZM223.1,49.2a4.91,4.91,0,0,1,3.72-.94A6.15,6.15,0,0,1,223.1,49.2Zm124.37,51.1c-1.22-.16,2.36-1.29,1,0.37a2.61,2.61,0,0,1-1-.37h0Zm39.74,9.12a1.38,1.38,0,0,1-.86-1.79A1.88,1.88,0,0,1,387.21,109.42ZM225.83,55c0.48-.8,1-1,2.51-1A3,3,0,0,1,225.83,55Zm-11.49,5.32a4.21,4.21,0,0,1-2.53.78C212.45,60.29,213.29,60.29,214.34,60.29Zm95.44,6.55a0.65,0.65,0,0,0,.19.84c-0.24-.14-1.37-1.5-0.53-1.72a0.6,0.6,0,0,1,.34.88C309.57,67.2,309.87,66.64,309.78,66.83ZM166,144.7a0.7,0.7,0,0,1-.77.8c-0.28-.47.58-1.78,0.77-0.8C166.05,145,165.91,144.5,166,144.7Zm53.53,165.08a1.1,1.1,0,0,1,.73.93c0,1.37-2.5-.75-0.73-0.93C219.78,309.75,219.08,309.81,219.49,309.78ZM215.89,61.1a2.41,2.41,0,0,1-1.4.92A1.5,1.5,0,0,1,215.89,61.1ZM144,205.24c-0.1,1.6-.46-1.51,0,0C144,205.45,143.92,205.07,144,205.24ZM226.5,63.76a0.57,0.57,0,0,1,.24,0C226.5,63.93,226.18,63.93,226.5,63.76ZM219.4,48.58c-0.15,0-.39.08-0.55,0.1A0.55,0.55,0,0,1,219.4,48.58Zm-0.61.13c-0.11,0,0,0,.06,0S218.8,48.69,218.8,48.71Zm-0.81.22v0S218,48.93,218,48.93Zm0,0a0.88,0.88,0,0,1,.76-0.22A0.64,0.64,0,0,1,218,48.93Zm5.07,0.27h0.05S223.05,49.22,223.05,49.2Zm0,0c-0.06.29-.25,0.25-0.48,0.25A0.38,0.38,0,0,1,223.05,49.21ZM164.57,212c-0.33-.26.25,0.22,0,0S164.77,212.2,164.57,212Zm170-150.36c1,0.28.1,0.21,0,0h0ZM310,67.7a0,0,0,0,1,0,0,0.12,0.12,0,0,1,.07.21A0.9,0.9,0,0,0,310,67.7S310,67.76,310,67.7ZM222.52,49.45h0s0,0-.05,0S222.52,49.47,222.52,49.45Zm-0.26.06a2,2,0,0,0,.26,0c-0.13.22-.21,0.22-0.26,0C222.34,49.49,222.27,49.53,222.26,49.51ZM367,98.67h0ZM240.89,201.14c-0.49-.4.37-0.31,0,0C240.85,201.1,241,201,240.89,201.14Zm75.55,147.69a0.08,0.08,0,0,1-.09,0c0-.09,0-0.12.09-0.1v0Zm-0.09,0h0Zm-127-260.28c0.07,0,1.55-.16,1,0.4-0.57.29-.92,0.17-1-0.4C189.53,88.56,189.38,88.94,189.36,88.59ZM180.1,75.68c-0.41-.28-0.32-0.59.26-0.89,0.5,0.19.43,0.49-.26,0.89C179.89,75.66,180.41,75.57,180.1,75.68Z" fill="#f6f8fb"/><rect x="336.33" y="68.42" width="141" height="74.58" rx="12" ry="12" fill="#f0335e"/><rect x="80.33" y="273.54" width="114" height="66.97" rx="12" ry="12" fill="#f0335e"/><rect x="185.52" y="7.97" width="137.27" height="57.57" rx="12" ry="12" fill="#f0335e"/><rect x="281.33" y="183.77" width="189.41" height="43" rx="12" ry="12" fill="#f0335e"/><rect x="32.33" y="183.77" width="162" height="43" rx="12" ry="12" fill="#f0335e"/><rect x="79.17" y="97.04" width="114" height="54.99" rx="12" ry="12" fill="#f0335e"/><rect x="303.73" y="260.57" width="105.6" height="45.46" rx="12" ry="12" fill="#f0335e"/><text transform="translate(346.33 124.54)" font-size="48.15" fill="#fff" font-family="Roboto">Hello.</text><text transform="translate(94.33 136)" font-size="33.96" fill="#fff" font-family="Roboto">Hallo.</text><text transform="translate(208.24 50.43)" font-size="50" fill="#fff" font-family="Adobe Devanagari">नमस्ते</text><text transform="translate(50.33 216)" font-size="36" fill="#fff" font-family="Roboto">Bonjour</text><text transform="translate(89.36 324.59)" font-size="47.49" fill="#fff" font-family="Kozuka Gothic Pr6N">你好</text><text transform="translate(328.33 298)" font-size="40" fill="#fff" font-family="Roboto">Olá</text><text transform="translate(292.74 213)" font-size="25" fill="#fff" font-family="Roboto">Здравст<tspan x="95.57" y="0">в</tspan><tspan x="109.41" y="0">уй</tspan><tspan x="135.69" y="0">т</tspan><tspan x="147.56" y="0">е</tspan></text></svg>