<svg xmlns="http://www.w3.org/2000/svg" viewBox="0 0 120 120"><polygon points="22.076 23.198 41.831 23.198 41.831 6 22.076 8.883 22.076 23.198" fill="#3076bc"/><polygon points="20.683 23.198 20.683 9.085 6.338 11.178 6.338 23.198 20.683 23.198" fill="#3076bc"/><polygon points="20.683 24.59 6.338 24.59 6.338 36.764 20.683 38.88 20.683 24.59" fill="#3076bc"/><polygon points="22.076 24.59 22.076 39.086 41.831 42 41.831 24.59 22.076 24.59" fill="#3076bc"/><path d="M101.39411,6a8.917,8.917,0,0,0-5.77358,3.12548A7.7451,7.7451,0,0,0,93.73,15.14369a7.5261,7.5261,0,0,0,5.82584-2.97586A8.3608,8.3608,0,0,0,101.39411,6Z" fill="#010101"/><path d="M109.40018,18.74891a9.61931,9.61931,0,0,0-7.26032-3.8546c-3.40811,0-4.84972,1.63162-7.21758,1.63162-2.44148,0-4.29635-1.62687-7.2437-1.62687a9.85625,9.85625,0,0,0-7.93245,4.7951C76.99828,23.95488,77.46852,31.9657,81.92162,38.789c1.59361,2.44148,3.7216,5.187,6.50508,5.21071,2.47711.02375,3.17535-1.58886,6.5312-1.60549,3.35586-.019,3.99235,1.62687,6.46471,1.60074,2.78586-.02137,5.03022-3.06373,6.62383-5.50521a27.379,27.379,0,0,0,2.45336-4.60747A8.37773,8.37773,0,0,1,109.40018,18.74891Z" fill="#010101"/><path d="M64.43819,78.99987a2.60762,2.60762,0,0,0,2.66132-2.412v-5.633h1.777a1.60557,1.60557,0,0,0,1.777-1.61052V53.25558H49.34634V69.34446a1.60558,1.60558,0,0,0,1.777,1.61052H52.9005v5.633a2.67405,2.67405,0,0,0,5.32236,0V70.955H61.777v5.633A2.60738,2.60738,0,0,0,64.43819,78.99987Z" fill="#78c25a"/><path d="M74.00831,69.41977a2.52954,2.52954,0,0,0,2.47-2.47022v-11.538a2.4701,2.4701,0,0,0-4.94019,0v11.538A2.52967,2.52967,0,0,0,74.00831,69.41977Z" fill="#78c25a"/><path d="M45.99169,69.41977a2.52967,2.52967,0,0,0,2.47022-2.47022v-11.538a2.4701,2.4701,0,0,0-4.94019,0v11.538A2.52963,2.52963,0,0,0,45.99169,69.41977Z" fill="#78c25a"/><path d="M68.45684,41.24889a.89082.89082,0,0,0-1.23529,0l-2.37541,2.20488-.10959.10192a11.13592,11.13592,0,0,0-4.7463-.98806l-.02574-.00026h-.00028l-.026.00026a11.13467,11.13467,0,0,0-4.746.98806l-.10987-.10192-2.37527-2.20488a.89082.89082,0,0,0-1.23529,0,.75439.75439,0,0,0,0,1.14952l2.29778,2.14034a9.39471,9.39471,0,0,0-4.4075,7.395c-.00113.02265-.00354.045-.00467.06769q-.01124.22223-.011.44656H70.58226q0-.2242-.011-.44656c-.00113-.02265-.00354-.045-.00495-.06769a9.39463,9.39463,0,0,0-4.40751-7.39487l2.29807-2.14035A.75452.75452,0,0,0,68.45684,41.24889ZM55.65789,49.24981a.9252.9252,0,1,1,.7971-.7971A.92561.92561,0,0,1,55.65789,49.24981Zm8.73308.0076a.925.925,0,1,1,.925-.925A.925.925,0,0,1,64.391,49.25741Z" fill="#78c25a"/><path d="M29.87109,112.176c-1.88285-1.19818-6.5044-.85584-7.53141-.68467-1.06124,2.56753-3.32067,2.73869-5.10082,2.054-2.53329-1.027-4.65578-1.027-7.20619-2.22519-.77026-.34234-1.027-.85584-.80449-1.54051.4108-1.19818.94142-2.054.59909-3.081-.37657-1.19818-.22252-2.56752,1.38646-3.081,2.07114-.34233,2.13961-1.71168,3.11527-2.054,1.38646-8.21608,4.34767-10.61244,6.23053-13.3169a74.07562,74.07562,0,0,1-.30811-7.53141c1.18107-7.24043,10.30434-5.35757,11.33135.35945.34234,1.95132,0,3.42337.34234,5.28911.68467,3.04679,3.59454,4.75848,4.62155,6.98367,1.19818,2.56752,2.90986,6.5044,1.54051,8.90076,1.027.34233,1.19818,1.36934,1.36935,2.39635.17117,1.36935,2.054,1.71169,2.56753,2.7387a1.62075,1.62075,0,0,1-.51351,1.88285c-1.54051,1.19818-3.42337,1.71168-4.96388,3.081C34.66381,114.23005,30.55576,114.91473,29.87109,112.176Zm-10.13317-4.27921c-1.43782-1.45493-2.58464-5.61432-4.45038-5.64855-1.14683,0-1.88285,2.054-2.67023,2.054-2.12248.34233-2.31077,1.19817-1.84861,2.22519.75314,1.71168-.41081,2.22518-.42793,3.2522-.01711,1.36934,5.58009,2.054,6.91521,2.56752C21.5523,114.05889,21.501,110.122,19.73792,107.89682Zm15.9529,3.59454c1.54051-1.36935,4.79271-2.22519,4.79271-3.59454s-1.54051-1.36934-2.054-2.054c-.5135-.85584-.5135-2.39636-1.36935-2.56752-1.54051,1.30088-4.26209,2.37924-4.27921-.34234-1.19818-.34234-1.54051.34234-1.36934,1.88285.5135,2.56753-1.19818,5.9909,0,7.01791C32.95212,113.203,34.32147,112.68954,35.69082,111.49136Zm-5.47739-4.62155c.5135-.5135-.17117-2.22519,0-3.59453.17116-1.19818,1.71168-1.54052,2.39635-1.54052,2.12249-5.78549-3.90264-9.99624-4.108-14.08716-2.73869,3.13238-5.64856,4.33056-7.18907.35945-.99278,4.70713-4.41615,7.9251-4.536,13.043.17116,2.054,6.93232,3.081,3.71435,6.5044a18.04811,18.04811,0,0,1,1.38646,2.054c2.85852,1.027,7.3089,0,8.33591-2.73869Zm-2.39636-19.4105c.5135-.23963.68467-.291.68467-.63332,0-1.16394,0-1.33511-.85584-1.609-1.71168-.37657-3.2522-1.69457-4.79272-.83873-.75314.34234-2.97833,2.22519-1.84861,2.55041a5.75829,5.75829,0,0,0,2.87563.80449c1.54051.01712,2.73869-1.57475,3.7657-1.79727,1.19818-.06846-.34234.59909-.68467.82161-1.36935,1.07836-3.59454,1.86574-5.22064,1.1126C23.19552,90.60881,26.27655,88.33227,27.81707,87.45931ZM21.91176,84.6008c-1.2153-2.0369,1.07836-3.20085,1.11259-.75314.17117-.06847.34234-.17117.51351-.25675-.154-4.5702-3.81706-2.4306-2.17384,1.55763A2.7439,2.7439,0,0,1,21.91176,84.6008Zm6.24765.32522c1.19817-5.272-2.90987-5.20352-2.97833-1.18106l.78737.3081c.32522-3.52607,2.49906-1.38646,1.50628.68468a3.33032,3.33032,0,0,0,.68468.2054Zm-5.64856-1.4207c.18828-.736-.80449-.66756-.49639-.47927A4.23626,4.23626,0,0,1,22.51085,83.50532Zm4.79271-.154c.46216-.32522-.68467-1.14683-.34233-.39369C27.30356,83.23145,27.13239,83.40262,27.30356,83.35127Z"/><circle cx="95" cy="95" r="19" fill="#e65a26"/><path d="M84.90944,84.57325c.088-.01657.17616-.02851.26168-.0368.08577-.00828.17129-.01193.26171-.01193a2.39319,2.39319,0,0,1,.25.01193c.076.00829.15938.02023.24975.0368.02388.12134.04751.28215.07139.48073a3.9812,3.9812,0,0,1,.038.50559,2.18677,2.18677,0,0,1,.27361-.41982,1.95433,1.95433,0,0,1,.90664-.61523,2.03431,2.03431,0,0,1,.64718-.09747,1.63538,1.63538,0,0,1,1.73,1.13252,2.97828,2.97828,0,0,1,.29748-.414,2.27656,2.27656,0,0,1,.39716-.36525,2.18987,2.18987,0,0,1,2.71044.25584,2.82144,2.82144,0,0,1,.49243,1.80355V90.823a2.74725,2.74725,0,0,1-.30457.03679c-.11428.00731-.21418.01194-.30457.01194-.088,0-.18786-.00463-.29751-.01194a2.87885,2.87885,0,0,1-.2997-.03679v-3.631a2.48414,2.48414,0,0,0-.25459-1.25994.90861.90861,0,0,0-.83991-.42128,1.25956,1.25956,0,0,0-1.00654.451,2.00783,2.00783,0,0,0-.383,1.32769V90.823a2.89313,2.89313,0,0,1-.3.03679c-.10938.00731-.20928.01194-.29751.01194-.09039,0-.18786-.00463-.29726-.01194a2.80335,2.80335,0,0,1-.29994-.03679V87.10752a2.4456,2.4456,0,0,0-.24268-1.22438.84267.84267,0,0,0-.78043-.40788,1.27044,1.27044,0,0,0-.57357.133,1.34647,1.34647,0,0,0-.46855.40228,2.08827,2.08827,0,0,0-.31651.67687,3.49785,3.49785,0,0,0-.11671.94344V90.823a2.74855,2.74855,0,0,1-.29726.03679c-.10965.00731-.20954.01194-.2975.01194-.0904,0-.19274-.00463-.30457-.01194a2.747,2.747,0,0,1-.30457-.03679Z" fill="#fff"/><path d="M104.83594,89.73925a1.89584,1.89584,0,0,1,.16886.42591,2.1554,2.1554,0,0,1,.08576.52337,4.49985,4.49985,0,0,1-1.64419.28069,2.992,2.992,0,0,1-2.351-.88374,3.43157,3.43157,0,0,1-.79237-2.38076,4.11476,4.11476,0,0,1,.19517-1.29211,2.9295,2.9295,0,0,1,.5782-1.035,2.74372,2.74372,0,0,1,.95659-.69467,3.22527,3.22527,0,0,1,1.32768-.25584,5.92905,5.92905,0,0,1,.90178.06067,3.68178,3.68178,0,0,1,.74242.19517,2.39049,2.39049,0,0,1-.05458.48171,1.9959,1.9959,0,0,1-.15229.48073,4.14237,4.14237,0,0,0-1.3635-.2071,1.63635,1.63635,0,0,0-1.40151.62108,2.68353,2.68353,0,0,0-.46389,1.64541,2.38579,2.38579,0,0,0,.52578,1.71071,1.90052,1.90052,0,0,0,1.43708.54262,4.41811,4.41811,0,0,0,.67593-.04873A3.09208,3.09208,0,0,0,104.83594,89.73925Z" fill="#fff"/><path d="M98.14769,86.70524a1.19143,1.19143,0,0,0-.364-.99924,1.7215,1.7215,0,0,0-1.06112-.27971,4.55053,4.55053,0,0,0-.79725.06676,6.27824,6.27824,0,0,0-.7256.17616,1.88906,1.88906,0,0,1-.231-.96146,5.49534,5.49534,0,0,1,.91371-.20809,6.65167,6.65167,0,0,1,.96147-.07261,2.7368,2.7368,0,0,1,1.85349.55432,2.24391,2.24391,0,0,1,.633,1.77284v3.91044q-.42834.09833-1.035.20126a7.43,7.43,0,0,1-1.2446.10331,4.90058,4.90058,0,0,1-1.07793-.1094,2.22446,2.22446,0,0,1-.816-.3533,1.63688,1.63688,0,0,1-.5163-.62108,2.05779,2.05779,0,0,1-.18323-.91371,1.852,1.852,0,0,1,.79237-1.57865,2.57065,2.57065,0,0,1,.83988-.38912,3.80457,3.80457,0,0,1,.99923-.12841c.2595,0,.47123.00585.6379.019q.24962.01791.42106.04167Zm0,1.18149c-.12137-.01535-.27609-.03216-.46151-.04873-.1881-.0156-.34743-.02388-.47586-.02388a1.98226,1.98226,0,0,0-1.15177.27972.97348.97348,0,0,0-.395.853,1.03618,1.03618,0,0,0,.13328.5721.90957.90957,0,0,0,.33551.31773,1.14371,1.14371,0,0,0,.44492.13328,4.55075,4.55075,0,0,0,.46148.02485,5.67656,5.67656,0,0,0,.5782-.03094,3.3478,3.3478,0,0,0,.53071-.09162Z" fill="#fff"/><path d="M95.94509,99.52694c0,3.764-2.28161,6.046-5.6367,6.046-3.40644,0-5.39895-2.57148-5.39895-5.84136,0-3.4403,2.19678-6.01177,5.58649-6.01177C94.02067,93.71982,95.94509,96.35939,95.94509,99.52694Zm-8.29376.15368c0,2.24814,1.0556,3.83172,2.79286,3.83172,1.754,0,2.75939-1.66917,2.75939-3.90019,0-2.06061-.98827-3.83173-2.77651-3.83173C88.67307,95.78042,87.65133,97.4496,87.65133,99.68062Z" fill="#fff"/><path d="M97.73333,102.712a6.62393,6.62393,0,0,0,2.87807.71514c1.19179,0,1.8221-.49375,1.8221-1.24351,0-.71514-.54511-1.12369-1.9248-1.61782-1.9073-.66417-3.15044-1.72015-3.15044-3.38895,0-1.95865,1.63494-3.457,4.343-3.457a7.03811,7.03811,0,0,1,2.92905.579l-.579,2.09446a5.45664,5.45664,0,0,0-2.40144-.54473c-1.12445,0-1.66917.51087-1.66917,1.10695,0,.73227.64743,1.0556,2.12907,1.61783,2.02713.74976,2.98078,1.80573,2.98078,3.42318,0,1.92518-1.482,3.55974-4.63245,3.55974a7.5207,7.5207,0,0,1-3.25315-.698Z" fill="#fff"/></svg>