<svg id="Layer_1" data-name="Layer 1" xmlns="http://www.w3.org/2000/svg" viewBox="0 0 120 101"><title>platform-support-devices</title><path d="M12,69.24V8.81a3.17,3.17,0,0,1,.94-2.25,3.21,3.21,0,0,1,2.26-.93h89.57a3.21,3.21,0,0,1,2.26.93A3.16,3.16,0,0,1,108,8.81V69.23H12Z" fill="#353f49"/><rect x="17.32" y="10.93" width="85.3" height="53.01" fill="#f77b55"/><ellipse cx="59.98" cy="8.28" rx="1.33" ry="1.33" fill="#474f59"/><path d="M60.51,8.28A0.53,0.53,0,1,1,60,7.75,0.53,0.53,0,0,1,60.51,8.28Z" fill="#fff"/><rect x="1.33" y="69.24" width="117.3" height="2.13" fill="#f2f2f2"/><path d="M118.62,71.37a3.74,3.74,0,0,1-3.73,3.73H5.06a3.73,3.73,0,0,1-3.73-3.73h117.3Z" fill="#cccbca"/><rect x="49.31" y="69.24" width="21.32" height="1.07" fill="#cccbca"/><rect x="74.73" y="36.35" width="44.27" height="55.65" rx="2.47" ry="2.47" fill="#353f49"/><rect x="79.75" y="41.95" width="34.24" height="44.45" fill="#f77b55"/><path d="M95.36,90a0.65,0.65,0,0,1-.65-0.66v-0.2a0.65,0.65,0,0,1,.65-0.65h3.89a0.65,0.65,0,0,1,.65.65v0.2a0.65,0.65,0,0,1-.65.66H95.36Z" fill="#474f59"/><path d="M81.54,49.25H63a3.2,3.2,0,0,0-3.19,3.19V91.81A3.2,3.2,0,0,0,63,95H81.54a3.2,3.2,0,0,0,3.19-3.19V52.44A3.19,3.19,0,0,0,81.54,49.25Z" fill="#353f49"/><rect x="61.64" y="56.17" width="21.28" height="31.92" fill="#f77b55"/><path d="M70.34,92.3a0.65,0.65,0,0,1-.65-0.66v-0.2a0.65,0.65,0,0,1,.65-0.65h3.89a0.65,0.65,0,0,1,.65.65v0.2a0.65,0.65,0,0,1-.65.66H70.34Z" fill="#474f59"/><path d="M73.17,52.71a0.88,0.88,0,1,1-.88-0.88A0.88,0.88,0,0,1,73.17,52.71Z" fill="#474f59"/><path d="M72.61,52.71a0.32,0.32,0,0,1-.64,0A0.32,0.32,0,1,1,72.61,52.71Z" fill="#353f49"/></svg>