<svg xmlns="http://www.w3.org/2000/svg" xmlns:xlink="http://www.w3.org/1999/xlink" viewBox="0 0 697.3228 416.6929"><defs><linearGradient id="a" x1="115.2602" y1="186.8202" x2="639.2851" y2="186.8202" gradientUnits="userSpaceOnUse"><stop offset="0.0545" stop-color="#8c8c8c"/><stop offset="0.2182" stop-color="#a0a0a0"/><stop offset="0.4" stop-color="#787878"/><stop offset="0.6424" stop-color="#a0a0a0"/><stop offset="0.8364" stop-color="#787878"/><stop offset="1" stop-color="#a0a0a0"/></linearGradient><linearGradient id="b" x1="374.222" y1="361.2414" x2="374.222" y2="353.6369" gradientUnits="userSpaceOnUse"><stop offset="0.0405" stop-color="#4c4c4c"/><stop offset="0.5395" stop-color="#464749"/><stop offset="0.8323" stop-color="#262c2d"/><stop offset="0.9847" stop-color="#202223"/></linearGradient><linearGradient id="c" x1="58.0282" y1="366.436" x2="689.2833" y2="366.436" gradientUnits="userSpaceOnUse"><stop offset="0" stop-color="#828387"/><stop offset="0.0058" stop-color="#d0d1d3"/><stop offset="0.031" stop-color="#929397"/><stop offset="0.0542" stop-color="#d1d2d5"/><stop offset="0.3371" stop-color="#eaeaec"/><stop offset="0.5091" stop-color="#f3f3f4"/><stop offset="0.6885" stop-color="#e8e8ea"/><stop offset="0.9364" stop-color="#d1d2d5"/><stop offset="0.9849" stop-color="#e6e6e6"/><stop offset="0.9914" stop-color="#d0d1d3"/><stop offset="1" stop-color="#828387"/></linearGradient><linearGradient id="d" x1="331.3052" y1="364.9538" x2="416.006" y2="364.9538" gradientUnits="userSpaceOnUse"><stop offset="0" stop-color="#95969b"/><stop offset="0.0788" stop-color="#d8d9db"/><stop offset="0.5455" stop-color="#d7d8db"/><stop offset="0.9212" stop-color="#d8d9db"/><stop offset="1" stop-color="#95969b"/></linearGradient><linearGradient id="e" x1="373.6555" y1="379.7167" x2="373.6555" y2="371.6227" gradientUnits="userSpaceOnUse"><stop offset="0" stop-color="#525252"/><stop offset="0.1881" stop-color="#646464"/><stop offset="0.4444" stop-color="#888"/><stop offset="0.8024" stop-color="#b1b1b1"/><stop offset="1" stop-color="#b9b9b9"/></linearGradient><linearGradient id="f" x1="374.7523" y1="343.0608" x2="374.7523" y2="25.9231" gradientUnits="userSpaceOnUse"><stop offset="0" stop-color="#eee9da"/><stop offset="0.2933" stop-color="#eae7da"/><stop offset="0.5716" stop-color="#dfe0d9"/><stop offset="0.8429" stop-color="#ccd5d7"/><stop offset="1" stop-color="#bdcdd6"/></linearGradient><linearGradient id="g" x1="191.7439" y1="268.9563" x2="618.7635" y2="268.9563" gradientUnits="userSpaceOnUse"><stop offset="0" stop-color="#93bfcf"/><stop offset="0.2718" stop-color="#8bb8cb"/><stop offset="0.7021" stop-color="#74a6be"/><stop offset="1" stop-color="#6096b4"/></linearGradient><linearGradient id="h" x1="203.9127" y1="213.2981" x2="570.8471" y2="425.1478" gradientUnits="userSpaceOnUse"><stop offset="0" stop-color="#bdcdd6"/><stop offset="0.1762" stop-color="#b5c8d3"/><stop offset="0.4561" stop-color="#9ebacb"/><stop offset="0.8025" stop-color="#78a4bd"/><stop offset="1" stop-color="#6096b4"/></linearGradient><linearGradient id="i" x1="131.1979" y1="259.4421" x2="618.7635" y2="259.4421" gradientUnits="userSpaceOnUse"><stop offset="0" stop-color="#93bfcf"/><stop offset="1" stop-color="#6096b4"/></linearGradient><linearGradient id="j" x1="10.816" y1="245.5216" x2="171.6127" y2="245.5216" gradientUnits="userSpaceOnUse"><stop offset="0" stop-color="#2b292a"/><stop offset="0.4531" stop-color="#3d3d3d"/><stop offset="0.8459" stop-color="#313030"/><stop offset="1" stop-color="#2b292a"/></linearGradient><linearGradient id="k" x1="91.2144" y1="404.0326" x2="91.2144" y2="86.2966" gradientTransform="translate(-154.2994 336.7281) rotate(-90)" gradientUnits="userSpaceOnUse"><stop offset="0" stop-color="#5b5b5b"/><stop offset="1" stop-color="#333"/></linearGradient><clipPath id="l"><path d="M-46.5232,172.3934H228.9523A18.7579,18.7579,0,0,1,247.71,191.1513V299.63a18.7582,18.7582,0,0,1-18.7582,18.7582H-46.5233A18.7581,18.7581,0,0,1-65.2814,299.63V191.1516A18.7582,18.7582,0,0,1-46.5232,172.3934Z" transform="translate(336.6051 154.1764) rotate(90)" fill="none"/></clipPath><linearGradient id="m" x1="18.4492" y1="403.5765" x2="18.4492" y2="68.7234" xlink:href="#f"/><linearGradient id="n" x1="-174.7821" y1="325.3325" x2="276.0909" y2="325.3325" xlink:href="#g"/><linearGradient id="o" x1="-161.9335" y1="266.5652" x2="225.4979" y2="490.2488" xlink:href="#h"/><linearGradient id="p" x1="-238.7102" y1="315.2869" x2="276.0909" y2="315.2869" xlink:href="#i"/><linearGradient id="q" x1="91.2144" y1="94.7763" x2="91.2144" y2="92.2321" gradientUnits="userSpaceOnUse"><stop offset="0" stop-color="#555"/><stop offset="0.423" stop-color="#4a4a4a"/><stop offset="1" stop-color="#333"/></linearGradient></defs><path d="M616.1969,7.5h-483.95A17.2585,17.2585,0,0,0,115.26,24.98v328.779a12.2244,12.2244,0,0,0,12.0323,12.3817H621.1514a12.2244,12.2244,0,0,0,12.0325-12.3817V24.98A17.2585,17.2585,0,0,0,616.1969,7.5Zm15.5715,346.2591a10.8061,10.8061,0,0,1-10.617,10.925H127.2925a10.806,10.806,0,0,1-10.6168-10.925V24.98A15.8487,15.8487,0,0,1,132.2472,8.9564h483.95A15.849,15.849,0,0,1,631.7684,24.98Z" fill="url(#a)"/><path d="M616.1969,8.9564h-483.95A15.8487,15.8487,0,0,0,116.6757,24.98V347.62a5.8034,5.8034,0,0,0,5.702,5.8673H626.0666a5.8033,5.8033,0,0,0,5.7017-5.8673V24.98A15.8489,15.8489,0,0,0,616.1969,8.9564Z" fill="#333"/><path d="M626.0672,353.64h-503.69a5.9436,5.9436,0,0,1-5.85-6.02V24.98A15.97,15.97,0,0,1,132.2469,8.8041h483.95a15.97,15.97,0,0,1,15.72,16.1755V347.62A5.9435,5.9435,0,0,1,626.0672,353.64ZM132.2469,9.1089A15.6691,15.6691,0,0,0,116.8239,24.98V347.62a5.6425,5.6425,0,0,0,5.5537,5.715h503.69a5.6423,5.6423,0,0,0,5.5531-5.715V24.98A15.6692,15.6692,0,0,0,616.1967,9.1089Z" fill="#414042"/><path d="M626.0666,353.4872H122.3777a5.8034,5.8034,0,0,1-5.702-5.8673v6.139a10.806,10.806,0,0,0,10.617,10.925H621.1514a10.806,10.806,0,0,0,10.6169-10.925V347.62A5.8033,5.8033,0,0,1,626.0666,353.4872Z" fill="#333"/><path d="M128.5323,353.6353v.2718a10.8061,10.8061,0,0,0,10.6169,10.9251H609.2948a10.8061,10.8061,0,0,0,10.617-10.9251v-.2718Z" fill="#333"/><rect x="179.4021" y="353.6369" width="389.6398" height="7.6045" opacity="0.8" fill="url(#b)"/><rect x="58.0282" y="361.2414" width="631.2551" height="10.3891" fill="url(#c)"/><path d="M410.2194,368.6663H336.7078a6.5759,6.5759,0,0,1-4.0179-2.8942,7.4843,7.4843,0,0,1-1.3735-4.5307h84.69a10.3468,10.3468,0,0,1-1.9491,4.971A7.3988,7.3988,0,0,1,410.2194,368.6663Z" fill="url(#d)"/><path d="M58.0278,371.6227s3.4909,2.9525,13.3568,5.8723c8.2154,2.431,22.2968,2.2169,22.2968,2.2169H653.63s14.0819.2141,22.2968-2.2169c9.8655-2.92,13.3568-5.8723,13.3568-5.8723Z" fill="url(#e)"/><path d="M130.7591,25.9231H617.5823a.4124.4124,0,0,1,.4124.4124v316.313a.4123.4123,0,0,1-.4123.4123H130.7591a.4124.4124,0,0,1-.4124-.4124V26.3355A.4124.4124,0,0,1,130.7591,25.9231Z" fill="#fff"/><path d="M130.7591,25.9231H617.5823a.4124.4124,0,0,1,.4124.4124v316.313a.4123.4123,0,0,1-.4123.4123H130.7591a.4124.4124,0,0,1-.4124-.4124V26.3355A.4124.4124,0,0,1,130.7591,25.9231Z" fill="#fff"/><path d="M618.7635,27.1916V341.7922a1.2264,1.2264,0,0,1-1.1713,1.2686h-485.68a1.1087,1.1087,0,0,1-.7144-.2654,1.3077,1.3077,0,0,1-.4568-1.0032V27.1916a1.2264,1.2264,0,0,1,1.1712-1.2685h485.68A1.2264,1.2264,0,0,1,618.7635,27.1916Z" fill="url(#f)"/><path d="M618.7635,194.8518V341.9226a1.3238,1.3238,0,0,1-1.4456,1.1382H191.7439A224.8917,224.8917,0,0,1,225.9282,312.53q2.967-2.1838,6.1714-4.41c30.9329-21.46,78.561-45.0048,143.7469-51.2317q10.3016-.9846,20.1079-1.9131c112.8429-10.721,177.1855-17.01,207.4848-44.8625q.6559-.602,1.29-1.2189C610.1226,203.6558,614.7677,198.9882,618.7635,194.8518Z" fill="url(#g)"/><path d="M618.7635,281.8691v59.9231a1.2265,1.2265,0,0,1-1.1713,1.2686H132.5858l-.5817-.4-1.263-.869a2.2966,2.2966,0,0,1,0-1.4028c2.49-10.992,76.62-50.8192,139.33-44.7745,11.58,1.1162,23.1723,5.8089,35.4041,8.5045q3.7041.8151,7.4511,1.61c89.8664,19.0537,196.7228,28.1714,242.7843-7.385C571.6537,286.0384,594.5078,281.7771,618.7635,281.8691Z" fill="url(#h)"/><path d="M618.7635,175.8235V341.7922a1.2265,1.2265,0,0,1-1.1713,1.2686H132.5858l-1.3879-.2654q.4011-.0664.8062-.1342c42.5019-7.0975,115.5227-20.0716,168.4712-33.6272q6.4375-1.6474,12.4514-3.3046c11.4-3.1449,21.512-6.2983,29.7108-9.3936,28.7289-10.8471,62.74-31.608,95.5987-51.4471,40.4707-24.4355,79.1924-47.4734,104.143-48.8741,14.3566-.8055,49.4081,21.95,63.968-1.1258C612.9072,184.4919,614.5948,175.8161,618.7635,175.8235Z" fill="url(#i)"/><path d="M143.7535,409.41H38.6753c-17.4345.5344-27.8585-12.4727-27.8585-27.8585V109.4761c-.1112-17.2052,12.4726-27.8585,27.8585-27.8585H143.7535c15.3858,0,27.97,10.6533,27.8585,27.8585V381.5513C171.6127,399.78,159.1393,409.41,143.7535,409.41Z" fill="url(#j)"/><path d="M35.189,406.3266A21.2888,21.2888,0,0,1,13.9,385.0378V105.99A21.2885,21.2885,0,0,1,35.1888,84.7011H147.24A21.2887,21.2887,0,0,1,168.5285,105.99v279.048A21.2888,21.2888,0,0,1,147.24,406.3266" fill="#333"/><path d="M-46.18,171.2831H228.6087a20.3349,20.3349,0,0,1,20.3349,20.3349V299.4094a20.3351,20.3351,0,0,1-20.3351,20.3351H-46.18a20.335,20.335,0,0,1-20.335-20.335V191.6181a20.335,20.335,0,0,1,20.335-20.335Z" transform="translate(336.7281 154.2994) rotate(90)" fill="url(#k)"/><g clip-path="url(#l)"><rect x="18.217" y="74.9159" width="145.9946" height="329.9086" fill="#566c7a"/><path d="M276.0909,70.0628V402.237a1.295,1.295,0,0,1-1.2367,1.3395h-512.81a1.1713,1.1713,0,0,1-.7544-.28,1.3808,1.3808,0,0,1-.4823-1.0593V70.0628a1.2949,1.2949,0,0,1,1.2367-1.3394h512.81A1.2949,1.2949,0,0,1,276.0909,70.0628Z" fill="url(#m)"/><path d="M276.0909,247.0885V402.3747a1.3977,1.3977,0,0,1-1.5263,1.2018H-174.7821a237.4528,237.4528,0,0,1,36.0938-32.236q3.1328-2.306,6.5162-4.656c32.6608-22.6587,82.9494-47.5187,151.7766-54.0935q10.8769-1.0395,21.2312-2.02c119.1463-11.32,187.0831-17.96,219.0749-47.3685q.6926-.6355,1.3622-1.287C266.9673,256.3843,271.8719,251.456,276.0909,247.0885Z" fill="url(#n)"/><path d="M276.0909,338.9665V402.237a1.295,1.295,0,0,1-1.2367,1.3395H-237.2447l-.6142-.422-1.3336-.9175a2.4245,2.4245,0,0,1,0-1.4811c2.629-11.606,80.8995-53.658,147.1134-47.2757,12.2269,1.1785,24.4667,6.1334,37.3818,8.98q3.9109.8607,7.8673,1.7c94.8864,20.118,207.7118,29.745,256.3463-7.7976C226.35,343.3687,250.48,338.8694,276.0909,338.9665Z" fill="url(#o)"/><path d="M276.0909,226.9973v175.24a1.295,1.295,0,0,1-1.2367,1.3395H-237.2447l-1.4655-.28q.4236-.07.8513-.1418c44.876-7.494,121.9758-21.1928,177.882-35.5055q6.7971-1.74,13.1469-3.4892c12.037-3.3207,22.7137-6.65,31.3705-9.9184,30.3337-11.453,66.2448-33.3736,100.9388-54.3209,42.7315-25.8,83.6161-50.1253,109.9605-51.6042,15.1586-.8506,52.168,23.176,67.5413-1.1888C269.9075,236.15,271.6893,226.99,276.0909,226.9973Z" fill="url(#p)"/></g><path d="M171.9985,156.15h1.4206a0,0,0,0,1,0,0v39.88a0,0,0,0,1,0,0h-1.4206a1.9712,1.9712,0,0,1-1.9712-1.9712V158.1215A1.9712,1.9712,0,0,1,171.9985,156.15Z" transform="translate(343.4464 352.1803) rotate(180)" fill="#272727"/><path d="M10.9807,125.11h1.4207a0,0,0,0,1,0,0v13.3617a0,0,0,0,1,0,0H10.9807A1.9711,1.9711,0,0,1,9.01,136.5007v-9.4195A1.9711,1.9711,0,0,1,10.9807,125.11Z" fill="#272727"/><path d="M10.9808,147.6194h1.4206a0,0,0,0,1,0,0v25.1817a0,0,0,0,1,0,0H10.9807A1.9711,1.9711,0,0,1,9.01,170.83V149.5906A1.9712,1.9712,0,0,1,10.9808,147.6194Z" fill="#272727"/><path d="M10.9808,178.6083h1.4206a0,0,0,0,1,0,0V203.79a0,0,0,0,1,0,0H10.9807A1.9711,1.9711,0,0,1,9.01,201.819V180.58A1.9712,1.9712,0,0,1,10.9808,178.6083Z" fill="none"/><path d="M48.5821,88.2111a6.5674,6.5674,0,0,1,2.9607,4.728c.411,3.7,1.85,8.2226,7.9142,8.2226h63.5146c6.0643,0,7.5032-4.5225,7.9144-8.2226a6.5665,6.5665,0,0,1,2.9606-4.728Z" fill="#333"/><path d="M82.1185,92.2709H100.31a1.0411,1.0411,0,0,1,1.0411,1.0411v.3333a1.0411,1.0411,0,0,1-1.0411,1.0411H82.1186a1.0412,1.0412,0,0,1-1.0412-1.0412V93.312A1.0411,1.0411,0,0,1,82.1185,92.2709Z" fill="url(#q)"/><text transform="translate(26.6626 100.0189)" font-size="5.0466" fill="#fff" font-family="Montserrat-SemiBold, Montserrat" font-weight="600">16:30</text><rect x="134.1391" y="98.5365" width="1.0281" height="1.6822" fill="#fff"/><rect x="135.611" y="97.8589" width="1.028" height="2.3598" fill="#fff"/><rect x="137.083" y="97.2048" width="1.0281" height="3.0139" fill="#fff"/><rect x="138.5549" y="96.4571" width="1.028" height="3.7617" fill="#fff"/><path d="M141.8209,98.37a3.27,3.27,0,0,1,4.5761,0l.6921-.6922a4.2485,4.2485,0,0,0-5.96,0Z" fill="#fff"/><path d="M142.7445,99.2933a1.9616,1.9616,0,0,1,2.7289,0l.6919-.6919a2.9388,2.9388,0,0,0-4.1127,0Z" fill="#fff"/><path d="M143.67,100.2187a.6444.6444,0,0,1,.8781,0l.6949-.6948a1.6361,1.6361,0,0,0-2.2679,0Z" fill="#fff"/><path d="M148.7531,96.9127h6.0984a.2218.2218,0,0,1,.2218.2218v2.4068a.2217.2217,0,0,1-.2217.2217H148.753a.2217.2217,0,0,1-.2217-.2217V97.1345A.2218.2218,0,0,1,148.7531,96.9127Z" fill="#fff"/><path d="M155.4467,97.7246h.0822a.2218.2218,0,0,1,.2218.2218V98.73a.2217.2217,0,0,1-.2217.2217h-.0823a.2217.2217,0,0,1-.2217-.2217v-.7832A.2217.2217,0,0,1,155.4467,97.7246Z" fill="#fff"/><rect x="23.8233" y="360.6074" width="134.5796" height="34.1132" rx="11.3386" opacity="0.2"/><rect x="29.0156" y="365.4876" width="24.3528" height="24.3528" rx="7.0866" fill="#55b46e"/><rect x="96.3018" y="365.487" width="24.3528" height="24.3539" rx="7.0866" fill="#efc41b"/><rect x="62.6587" y="365.487" width="24.3528" height="24.3539" rx="7.0866" fill="#4799d4"/><rect x="129.2959" y="365.487" width="24.3528" height="24.3539" rx="7.0866" fill="#2fbad2"/></svg>