<svg id="Layer_1" data-name="Layer 1" xmlns="http://www.w3.org/2000/svg" viewBox="0 0 1000 642"><title>push-notification-mobile-engage</title><line x1="239" y1="262.77" x2="501.09" y2="354.88" fill="none" stroke="#252b30" stroke-miterlimit="10" stroke-width="5" stroke-dasharray="10"/><line x1="358.98" y1="157.85" x2="482.04" y2="331.7" fill="none" stroke="#252b30" stroke-miterlimit="10" stroke-width="5" stroke-dasharray="10"/><line x1="498.17" y1="68.93" x2="498.17" y2="361.61" fill="none" stroke="#252b30" stroke-miterlimit="10" stroke-width="5" stroke-dasharray="10"/><line x1="661.7" y1="118.92" x2="499.23" y2="359.48" fill="none" stroke="#252b30" stroke-miterlimit="10" stroke-width="5" stroke-dasharray="10"/><line x1="758.87" y1="273.97" x2="498.17" y2="361.61" fill="none" stroke="#252b30" stroke-miterlimit="10" stroke-width="5" stroke-dasharray="10"/><path d="M421.89,618.52c-14.44,0-26.29-12.25-26.29-27.21v-336c0-15,11.84-27.2,26.29-27.2H574.45c14.44,0,26.29,12.23,26.29,27.2v336c0,15-11.84,27.21-26.29,27.21H421.89Z" fill="#353f49"/><path d="M520.9,596.85a6.35,6.35,0,0,1-6.19,6.5h-33a6.39,6.39,0,0,1-6.28-6.5h0V594a6.42,6.42,0,0,1,6.28-6.53h32.91A6.38,6.38,0,0,1,520.9,594h0v2.84h0Z" fill="#474f59"/><path d="M525.67,250.71a2.57,2.57,0,0,1-2.5,2.64h-50a2.59,2.59,0,0,1-2.59-2.59V249.6a2.66,2.66,0,0,1,2.59-2.66h49.89a2.63,2.63,0,0,1,2.6,2.66h0v1.1h0Z" fill="#474f59"/><rect x="407.2" y="272.97" width="181.94" height="299.44" fill="#fff"/><circle cx="498.17" cy="335.33" r="266.41" fill="none"/><g id="Layer_4" data-name="Layer 4"><circle cx="498.17" cy="73.97" r="51.09" fill="#ffc61b"/><polygon points="518.12 91 478.39 91 478.39 62.61 523.8 62.61 518.12 91" fill="#fff"/><path d="M519.47,91.27l5.68-28.38a1.38,1.38,0,0,0-1.08-1.62l-0.27,0h-44V57.37a7.49,7.49,0,0,0-7.48-7.48h-3.7a1.38,1.38,0,1,0-.23,2.75h3.93A4.74,4.74,0,0,1,477,57.37V91a7.06,7.06,0,0,0,7,7.05h34.06a1.38,1.38,0,0,0,0-2.75h-34A4.31,4.31,0,0,1,480,92.38h38.13A1.38,1.38,0,0,0,519.47,91.27ZM511.76,64h10.36l-1.38,6.88h-9V64h0Zm0,9.63h8.44l-1.45,7.23h-7V73.63h0Zm-25.12,16h-6.88v-6h6.88v6Zm0-8.77h-6.88V73.63h6.88v7.23Zm0-10h-6.88V64h6.88v6.86ZM498,89.62h-8.6v-6H498v6Zm0-8.77h-8.6V73.63H498v7.23h0Zm0-10h-8.6V64H498v6.85ZM509,89.6h-8.26v-6H509v6Zm0-8.77h-8.26v-7.2H509v7.2Zm0-10h-8.26V64H509v6.83Zm2.75,18.75v-6h6.44l-1.2,6h-5.24Z" fill="#386895"/><circle cx="484.06" cy="101.49" r="3.61" fill="#273b7a"/><circle cx="508.66" cy="101.49" r="3.61" fill="#273b7a"/></g><g id="Layer_3" data-name="Layer 3"><circle cx="245.18" cy="255.84" r="51.09" fill="#8fdef6"/><path d="M226.23,280.77a4.26,4.26,0,0,0,4.26,4.26h0a4.26,4.26,0,0,0,4.26-4.26h0V264h-8.51v16.77Z" fill="#fff"/><path d="M233.4,265.65a1.68,1.68,0,1,0,0,3.36h1.34v-3.36H233.4Z" fill="#e6e5e5"/><path d="M233.4,270.69a1.68,1.68,0,0,0,0,3.36h1.34v-3.36H233.4Z" fill="#e6e5e5"/><path d="M233.4,275.73a1.68,1.68,0,1,0,0,3.36h1.34v-3.36H233.4Z" fill="#e6e5e5"/><rect x="234.74" y="265.65" width="1.42" height="3.36" fill="#343b43"/><path d="M267.83,247.73v10.08A5,5,0,1,0,267.83,247.73Z" fill="#fff"/><path d="M222,260.61h-2.5a2,2,0,0,1-2-2v-11.7a2,2,0,0,1,2-2H222v15.7Z" fill="#343b43"/><path d="M239,264H224a2,2,0,0,1-2-2V243.55a2,2,0,0,1,2-2h15V264Z" fill="#fd8369"/><path d="M239,264H224a2,2,0,0,1-2-2v-9.22h17V264Z" fill="#ea6552"/><polygon points="239 241.57 239 263.97 264.01 273.16 264.01 232.39 239 241.57" fill="#fff"/><polygon points="239 252.77 239 263.97 264.01 273.16 264.01 252.77 239 252.77" fill="#f2f2f2"/><path d="M268.49,271.18a2,2,0,0,1-2,2H264V232.39h2.5a2,2,0,0,1,2,2v36.79Z" fill="#343b43"/></g><path d="M353.29,108a25.64,25.64,0,0,0-6.47-4.58,30.37,30.37,0,0,1,3,6.06,29.93,29.93,0,0,0,3.45-1.48h0Z" fill="#39bba4"/><path d="M322.8,124.52h11v-9.3a46.3,46.3,0,0,1-9.4-1.36,46.71,46.71,0,0,0-1.57,10.65h0Z" fill="#39bba4"/><path d="M324.16,137.85a46.07,46.07,0,0,1,9.61-1.43v-8.37h-11a47.12,47.12,0,0,0,1.35,9.8h0Z" fill="#39bba4"/><path d="M325.46,110.51a42.57,42.57,0,0,0,8.31,1.18V100.85a13.25,13.25,0,0,0-1.52.15c-2.71,1.65-5.09,5-6.79,9.51h0Z" fill="#39bba4"/><path d="M317.46,144.27a25.58,25.58,0,0,0,8,5.45,30.27,30.27,0,0,1-3.69-7.42,28.94,28.94,0,0,0-4.3,2h0v0Z" fill="#39bba4"/><path d="M325.42,102.88a25.57,25.57,0,0,0-7.35,4.85,29.54,29.54,0,0,0,4,1.75,29.68,29.68,0,0,1,3.38-6.6h0Z" fill="#39bba4"/><path d="M321,112.83a32.53,32.53,0,0,1-5.35-2.44,25.38,25.38,0,0,0-5.51,14.13h9.17a50.19,50.19,0,0,1,1.7-11.7h0Z" fill="#39bba4"/><path d="M319.26,128.06H310.1a25.37,25.37,0,0,0,5,13.5,32.11,32.11,0,0,1,5.63-2.65,50.93,50.93,0,0,1-1.48-10.85h0Z" fill="#39bba4"/><path d="M332.32,151.59c0.48,0.06,1,.11,1.46.14V140a42.53,42.53,0,0,0-8.6,1.27c1.72,4.9,4.24,8.63,7.15,10.36h0v0Z" fill="#39bba4"/><path d="M351.13,138.89a32.15,32.15,0,0,1,5.08,2.33A25.35,25.35,0,0,0,361,128.06h-8.38a50.61,50.61,0,0,1-1.48,10.84h0Z" fill="#39bba4"/><path d="M346.78,149.18a25.65,25.65,0,0,0,7.11-5.19,29.7,29.7,0,0,0-3.78-1.69,31.11,31.11,0,0,1-3.33,6.88h0Z" fill="#39bba4"/><path d="M335.54,75.2a51.09,51.09,0,1,0,51.09,51.09h0A51.09,51.09,0,0,0,335.54,75.2h0Zm0,81.9a30.81,30.81,0,1,1,30.81-30.81h0a30.85,30.85,0,0,1-30.81,30.81h0Z" fill="#39bba4"/><path d="M339.87,101.15a25.53,25.53,0,0,0-2.57-.31v10.88a43,43,0,0,0,9.1-1.23c-1.64-4.32-3.93-7.64-6.53-9.35h0Z" fill="#39bba4"/><path d="M350.91,112.82a50.15,50.15,0,0,1,1.7,11.7H361a25.35,25.35,0,0,0-5.28-13.83,33.12,33.12,0,0,1-4.8,2.13h0Z" fill="#39bba4"/><path d="M337.31,151.73q1.27-.09,2.51-0.3c2.79-1.79,5.21-5.45,6.89-10.2a43,43,0,0,0-9.39-1.31v11.8h0Z" fill="#39bba4"/><path d="M347.5,113.86a46.54,46.54,0,0,1-10.19,1.4v9.27h11.76a46.69,46.69,0,0,0-1.57-10.66h0Z" fill="#39bba4"/><path d="M349.07,128.06H337.31v8.34a46.33,46.33,0,0,1,10.41,1.43,47.15,47.15,0,0,0,1.35-9.77h0Z" fill="#39bba4"/><path d="M711.76,121.77a51.09,51.09,0,1,1-51.09-51.09,51.09,51.09,0,0,1,51.09,51.09h0Z" fill="#68b4ee"/><rect x="630.32" y="135.65" width="62.11" height="4.08" fill="#fffffc"/><rect x="657.88" y="102.38" width="4.08" height="37.35" fill="#fffffc"/><path d="M671.14,83.81h-21a5.4,5.4,0,0,0-5.37,5.43h0v21a5.44,5.44,0,0,0,5.37,5.44h21a5.4,5.4,0,0,0,5.37-5.43h0V89.18a5.4,5.4,0,0,0-5.43-5.37h0.06Z" fill="#646b79"/><path d="M697.88,127.35H684.2a3.51,3.51,0,0,0-3.54,3.48s0,0,0,.06v13.67a3.51,3.51,0,0,0,3.48,3.54h13.73a3.51,3.51,0,0,0,3.54-3.48s0,0,0-.06V130.88a3.56,3.56,0,0,0-3.54-3.54h0Z" fill="#dededf"/><path d="M667.54,127.35H653.79a3.51,3.51,0,0,0-3.54,3.48s0,0,0,.06v13.67a3.51,3.51,0,0,0,3.48,3.54h13.73a3.51,3.51,0,0,0,3.54-3.48s0,0,0-.06V130.88a3.5,3.5,0,0,0-3.46-3.54h0Z" fill="#dededf"/><path d="M637.13,127.35H623.45a3.51,3.51,0,0,0-3.54,3.48s0,0,0,.06v13.67a3.51,3.51,0,0,0,3.48,3.54h13.73a3.51,3.51,0,0,0,3.54-3.48s0,0,0-.06V130.88a3.51,3.51,0,0,0-3.48-3.54h-0.05Z" fill="#dededf"/><g id="Layer_5" data-name="Layer 5"><circle cx="753" cy="265.45" r="51.09" fill="#f4765b"/><path d="M758.87,282.48l2.06-4.26L758.87,274l2.06-4.26-2.06-4.26,2.06-4.26L758.87,257l2.06-4.26-2.06-4.26H720.6a3.93,3.93,0,0,0-3.93,3.93v26.21a3.93,3.93,0,0,0,3.93,3.93h38.28v0Z" fill="#fff"/><path d="M764.55,248.42h20.84a3.93,3.93,0,0,1,3.93,3.93v26.21a3.93,3.93,0,0,1-3.93,3.93H764.55l2.06-4.26L764.55,274l2.06-4.26-2.06-4.26,2.06-4.26L764.55,257l2.06-4.26Z" fill="#ffc61b"/><path d="M730.39,264.83a5.24,5.24,0,1,1,5.24-5.24h0A5.24,5.24,0,0,1,730.39,264.83Zm0-7a1.8,1.8,0,1,0,1.8,1.8h0a1.8,1.8,0,0,0-1.76-1.84h0v0Z" fill="#ffc61b"/><path d="M742.11,276.54a5.24,5.24,0,1,1,5.24-5.24h0A5.24,5.24,0,0,1,742.11,276.54Zm0-7a1.8,1.8,0,1,0,1.8,1.8h0a1.8,1.8,0,0,0-1.77-1.83h0v0Z" fill="#ffc61b"/><path d="M728.37,275a1.72,1.72,0,0,1-1.22-2.94l15.77-15.77a1.72,1.72,0,0,1,2.43,2.43l-15.77,15.77A1.71,1.71,0,0,1,728.37,275Z" fill="#ffc61b"/></g><rect x="418.43" y="295.88" width="159.48" height="24.38" fill="#ff7059"/><rect x="418.43" y="523.97" width="159.48" height="8.02" fill="#aab5bd"/><rect x="418.43" y="541.51" width="159.48" height="7.99" fill="#aab5bd"/><rect x="418.43" y="389.92" width="159.48" height="124.92" fill="#ffd160"/><rect x="418.43" y="329.76" width="159.48" height="50.24" fill="#aab5bd"/><rect x="464.07" y="448.54" width="68.2" height="7.67" rx="2" ry="2" fill="#fff"/><rect x="494.34" y="418.27" width="7.67" height="68.2" rx="2" ry="2" fill="#fff"/></svg>