<svg id="Layer_1" data-name="Layer 1" xmlns="http://www.w3.org/2000/svg" xmlns:xlink="http://www.w3.org/1999/xlink" viewBox="0 0 1000 478"><defs><clipPath id="clip-path"><rect x="780.01" y="22.81" width="102.97" height="113.96" fill="none"/></clipPath><clipPath id="clip-path-2"><rect x="780.01" y="343.93" width="102.97" height="108.87" fill="none"/></clipPath></defs><title>push-notification-personalization</title><path d="M880.38,114.16c-3.78-12.81-22.76-11.38-31-15.06s-6.91-16-8-18.16h-20c-1,2.15.24,14.49-8,18.16s-27.18,2.26-31,15.06c-2.09,7.06-2,9.22-2.56,17,0,0,26,5.15,50.88,5.15s52.06-5.15,52.06-5.15c-0.58-7.83-.48-10-2.56-17h0.18Z" fill="#e0605c"/><path d="M880.38,114.16c-3.78-12.81-22.76-11.38-31-15.06s-6.91-16-8-18.16H830.89s-0.25,17.3,8,21,27.18,2.26,31,15.06c2,6.73,2,9,2.48,16,6.52-1,10.66-1.74,10.66-1.74-0.57-7.83-.48-10-2.56-17h0Z" fill="#606060"/><path d="M880.38,114.16c-3.72-12.58-22.12-11.43-30.53-14.88,0,0-1.1,2-3,4.8,8.92,1.73,20.09,3.4,22.9,12.9,2,6.73,2,9,2.48,16,6.52-1,10.66-1.74,10.66-1.74-0.57-7.83-.48-10-2.56-17h0Z" fill="#d15852"/><path d="M849.86,99.29l-0.43-.19c-8.19-3.68-6.91-16-8-18.16h-20c-1,2.15.24,14.49-8,18.16l-0.43.19a78.18,78.18,0,0,0,6.24,9.36c4.34,5.58,10.18,11.58,12.14,11.58s7.79-6,12.14-11.58a78.64,78.64,0,0,0,6.24-9.36h0.1Z" fill="#eae5dc"/><path d="M849.86,99.29l-0.21-.09h0l-0.21-.09a9.85,9.85,0,0,1-3.57-2.71,36.78,36.78,0,0,1-4.15,6.53c1.57,0.44,3.33.8,5.2,1.16,1.85-2.78,3-4.8,3-4.8h-0.06Z" fill="#e0dbd3"/><path d="M845.86,96.39c-4.24-5.07-3.53-13.69-4.38-15.45h-20c-0.85,1.76-.14,10.38-4.38,15.45,2,4.76,12.88,17.49,14.38,17.49s12.19-12.35,14.38-17.49h0Z" fill="#dbb491"/><path d="M838.84,101.92a20.45,20.45,0,0,0,2.87,1,36.84,36.84,0,0,0,4.15-6.53c-3.59-4.29-3.63-11.13-4.08-14.19h0V82h0V81.91h0V81.77h0V81.62h0V81.51h0V81.43h0V81.35h0v-0.1H830.89s-0.25,17.3,8,21h0v-0.33Z" fill="#cca483"/><path d="M877.81,129.25c0-.11-0.14-11.61-4.32-17-2.69-3.44-11.23-5.22-16.87-6.4l-0.47-.1c-2.51-.52-4.53-0.82-4.55-0.82l1.64-3.31c0.87,0.15,2.16.37,3.63,0.68l0.47,0.1c6.52,1.36,15.45,3.22,18.93,7.68,4.44,5.69,5,16.3,5,18.65Z" fill="#e0dbd3"/><path d="M785.1,129.25c0-.11.14-11.61,4.32-17,2.69-3.44,11.22-5.22,16.87-6.4l0.47-.1c2.51-.52,4.53-0.82,4.55-0.82l-1.64-3.31c-0.87.15-2.16,0.37-3.63,0.68l-0.47.1c-6.52,1.36-15.45,3.22-18.93,7.68-4.45,5.69-5,16.3-5,18.65Z" fill="#eae5dc"/><path d="M818.79,93.69c3.32,2.7,7.2,5.38,12.66,6.15,5.47-.78,9.35-3.51,12.67-6.22-2.76-5.08-1.91-11.14-2.65-12.69h-20c-0.75,1.55.09,7.67-2.69,12.75h0Z" fill="#c69e7f"/><path d="M853.61,75.53c-2.14-.39-3.31-3.89-2.6-7.84s3-6.83,5.17-6.44,3.31,3.89,2.6,7.84-3,6.83-5.17,6.44h0Z" fill="#cca483"/><path d="M804.12,69.09c-0.71-3.94.45-7.45,2.6-7.84s4.46,2.5,5.17,6.44-0.45,7.45-2.6,7.84-4.46-2.5-5.17-6.44h0Z" fill="#dbb491"/><path d="M853.24,44.24L831.46,34,809.69,44.23S797.48,94,831.46,98.78c34-4.81,21.78-54.54,21.78-54.54h0Z" fill="#dbb491"/><path d="M831.46,98.78c34-4.81,21.78-54.54,21.78-54.54h-5.1c1.4,20.77,3.33,31.81-4.69,43.83-6.35,9.53-12,10.71-12,10.71h0Z" fill="#cca483"/><g clip-path="url(#clip-path)"><path d="M811.81,55.26a5.69,5.69,0,0,0,1.61.52s11.89,2.46,18.19,2.46,17.93-2.46,17.93-2.46a6,6,0,0,0,1.61-.57V47.09H811.81v8.16h0Z" fill="#cca483"/><path d="M854.93,36.09a8.65,8.65,0,0,0-4.85-.83c-2.5-4.86-5.93-6.2-5.93-6.2l-2.49,3.27-10.17-9.59-10.18,9.59-2.49-3.27s-3.18,1.17-5.93,6.2a8.65,8.65,0,0,0-4.85.83S806.58,49,806.58,59.7,809,77.24,809,77.24l2.09,0.42a108.17,108.17,0,0,1,.15-15.17c0.69-5.72,2.17-8.19,2.17-8.19s11.89,2.46,18.19,2.46,17.93-2.46,17.93-2.46a25.39,25.39,0,0,1,2.17,8.24,109.1,109.1,0,0,1,.15,15.13l2-.41a56.81,56.81,0,0,0,2.54-17.56c0-10.5-1.46-23.6-1.46-23.6h0Z" fill="#575959"/></g><path d="M811.58,35.21l-0.07.05a8.44,8.44,0,0,0,.86,6.31,10.66,10.66,0,0,1,.52-6.31,8.54,8.54,0,0,0-1.31-.05h0Z" fill="#3f3e3e"/><path d="M821.31,32.33A10.37,10.37,0,0,0,819,39.72a8.28,8.28,0,0,1,1.46-8.48Z" fill="#3f3e3e"/><path d="M851.38,35.21l0.07,0.05a8.44,8.44,0,0,1-.86,6.31,10.68,10.68,0,0,0-.52-6.31,8.5,8.5,0,0,1,1.31-.05h0Z" fill="#3f3e3e"/><path d="M841.65,32.33a10.37,10.37,0,0,1,2.28,7.39,8.27,8.27,0,0,0-1.46-8.48Z" fill="#3f3e3e"/><path d="M880.38,430.2c-3.78-12.81-22.76-11.38-31-15.06s-6.91-16-8-18.16h-20c-1,2.15.24,14.49-8,18.16s-27.18,2.26-31,15.06c-2.09,7.06-2,9.22-2.56,17,0,0,26,5.15,50.88,5.15s52.06-5.15,52.06-5.15c-0.58-7.83-.48-10-2.56-17h0.18Z" fill="#636358"/><path d="M880.38,430.2c-3.78-12.81-22.76-11.38-31-15.06s-6.91-16-8-18.16H830.89s-0.24,17.31,8,21,27.18,2.26,31,15.06c2,6.73,2,9,2.48,16,6.52-1,10.66-1.74,10.66-1.74-0.57-7.83-.48-10-2.56-17h0Z" fill="#515147"/><path d="M836.66,452.31c3.51-9,8.2-25.08,8.94-40.52H817.3c0.75,15.46,5.45,31.51,9,40.55,1.54,0,3.09.06,4.63,0.06,1.91,0,3.84,0,5.77-.09h0Z" fill="#eaeae1"/><path d="M844.17,417.55l-7.06,6.75L835.45,414Z" fill="#c6c5af"/><path d="M818.43,417.55l7.4,6.75,1.35-10.38Z" fill="#c6c5af"/><path d="M835.73,413.92h-8.55l-0.65,2.1,9.86,0.06Z" fill="#c6c5af"/><path d="M827.18,413.92l-0.65,2.1,0.37,0.25Z" fill="#aaa88f"/><path d="M836.39,416.08L835.45,414l0.39,2.39Z" fill="#aaa88f"/><path d="M836.21,452.32l0.2-2.71-2.06-27.31h-5.44l-2.41,27.31,0.2,2.74h4.19c1.77,0,3.54,0,5.32-.08h0v0.05Z" fill="#4c4c4c"/><path d="M828.93,422.43l5.41-.12,0.11,1.53Z" fill="#3a3a38"/><path d="M825,414.83h12.79l-0.73,4.37-2.89,3.24h-5.3l-3.15-3.24Z" fill="#4c4c4c"/><path d="M827.18,413.92l-8.72-4.74s-1.15,1.63-4,5.5l10.76,7.75,0.92-5.06Z" fill="#eaeae1"/><path d="M835.43,413.92l8.72-4.74s1.15,1.63,4,5.5l-10.76,7.75-0.92-5.06Z" fill="#eaeae1"/><path d="M844.15,409.18l-8.72,4.74,0.6,2a8.53,8.53,0,0,0,2.81,2.08,21.65,21.65,0,0,0,3.24,1.1l6.09-4.39c-2.86-3.87-4-5.5-4-5.5h0Z" fill="#e0dbd3"/><path d="M856.51,429.26l-5.2-1.88,4.67-1.29-4.45-10.17-13.82,36.36q2.43-.08,4.85-0.22Z" fill="#515147"/><path d="M806.62,426.08l4.67,1.29-5.2,1.88,14,22.85c1.6,0.08,3.21.15,4.83,0.2L811,416Z" fill="#515147"/><path d="M855,429.54l-5-2.12,4.57-1.62-3-9.88-5.73-4.46L835,452.36c2.36,0,4.74-.14,7.09-0.26Z" fill="#72726a"/><path d="M845.79,411.46l-2.13,8c2.9,0.66,6.24,1.19,9.55,1.94l-1.69-5.47Z" fill="#636358"/><path d="M811,416l-3,9.77,4.57,1.62-5,2.12,13.08,22.6c2.34,0.12,4.71.2,7.07,0.24l-10.9-40.91Z" fill="#72726a"/><path d="M853.61,391.57c-2.14-.39-3.31-3.9-2.6-7.84s3-6.83,5.17-6.44,3.31,3.89,2.6,7.84-3,6.83-5.17,6.44h0Z" fill="#cca483"/><path d="M804.12,385.13c-0.71-3.94.45-7.45,2.6-7.84s4.46,2.5,5.17,6.44-0.45,7.45-2.6,7.84-4.46-2.5-5.17-6.44h0Z" fill="#dbb491"/><path d="M853.24,360.28H809.69S797.48,410,831.46,414.82c34-4.81,21.78-54.54,21.78-54.54h0Z" fill="#dbb491"/><g clip-path="url(#clip-path-2)"><path d="M831.46,414.82c34-4.81,21.78-54.54,21.78-54.54h-5.1c1.4,20.77,3.33,31.81-4.69,43.83-6.35,9.53-12,10.7-12,10.7h0Z" fill="#cca483"/><path d="M841.1,346.08a26.81,26.81,0,0,0-15.76-1.24c-6.77,1.45-17.78,6-20.26,15.9,0,0-3.71,16.11,2.61,23a77.31,77.31,0,0,1,.32-11.3s3.79,1.68,11.43,1.58c10.24-.13,20.16-4.33,23.21-8.94,0,0-.35,6.62-3.69,9.33,0,0,11.71-1.83,15.17-8.78A102.84,102.84,0,0,1,855.29,383a14.92,14.92,0,0,0,2.25-6.65c1-9.31-.79-22.16-7.76-21.73,0,0-3-5.86-8.68-8.57h0v0Z" fill="#393c3d"/></g><path d="M839,374.46c3.34-2.71,3.69-9.33,3.69-9.33-3,4.6-13,8.81-23.21,8.94-7.38.09-11.17-1.47-11.41-1.58a40.27,40.27,0,0,0,31.09-1.32s-0.87,3.23-2.76,4.34c0,0,14.88-.27,17.78-9.84-3.46,7-15.17,8.78-15.17,8.78h0Z" fill="#cca483"/><path d="M805.55,225.3S793.29,184.54,831,184.54s26.34,40.77,26.34,40.77H805.55Z" fill="#7f5732"/><path d="M852.6,233.29s8.45,8.86,2.9,22.78c-2.9,7.29.41,9.41,0.41,9.41s-7.34,1.38-6.51-6.94c0.25-2.47,0-3.08-2.4-5.76s-4.76-5.27-3.58-11.47Z" fill="#6b4627"/><path d="M877.66,270.38c-3.57-12.8-21.49-11.38-29.22-15.06s-6.53-16-7.51-18.16H822.06c-1,2.15.23,14.49-7.51,18.16s-25.65,2.26-29.22,15.06c-2,7.06-1.87,9.22-2.42,17,0,0,24.59,5.15,48,5.15s49.14-5.15,49.14-5.15c-0.54-7.83-.45-10-2.42-17h0Z" fill="#e8c59e"/><path d="M838.44,258.14c7.73,3.68,25.65,2.26,29.22,15.06,1.88,6.73,1.88,9,2.34,16,6.16-1,10.07-1.74,10.07-1.74-0.54-7.82-.45-10-2.42-17-3.57-12.8-21.49-11.38-29.22-15.06s-6.53-16-7.51-18.16h-10s-0.23,17.3,7.51,21h0v-0.1Z" fill="#ddb58e"/><path d="M798.39,290a241.08,241.08,0,0,0,32.55,2.54,255.91,255.91,0,0,0,34-2.66c4.54-4,11.25-4.87,15-5-0.38-5.86-.51-8.28-2.25-14.51-3.3-11.83-18.85-11.52-27.3-14.3,1,6.06-16.58,32.27-18.78,32.27s-19.79-26.4-18.77-32.33c-8.4,2.86-24.17,2.44-27.49,14.37-1.74,6.23-1.87,8.65-2.25,14.51,3.74,0.13,10.7,1,15.31,5.15h0Z" fill="#76c4bb"/><path d="M877.66,270.38c-3.3-11.83-18.85-11.52-27.3-14.3a10.79,10.79,0,0,1-1,4.9c7.69,1.61,16,3.93,18.33,12.23a53.9,53.9,0,0,1,2.2,13.72,30.55,30.55,0,0,1,10-2c-0.38-5.86-.51-8.28-2.25-14.51h0Z" fill="#56beb7"/><path d="M819.52,249.91c3.13,2.7,6.8,5.38,12,6.15,5.17-.78,8.83-3.51,12-6.22-2.61-5.08-1.8-11.14-2.51-12.69h-19c-0.71,1.55.08,7.67-2.54,12.75h0Z" fill="#cca281"/><path d="M852.22,231.74c-2.14-.39-3.31-3.89-2.6-7.84s3-6.83,5.17-6.44,3.31,3.89,2.6,7.84-3,6.83-5.17,6.44h0Z" fill="#ddb58e"/><path d="M805.55,225.3c-0.71-3.94.46-7.45,2.6-7.84s4.46,2.5,5.17,6.44-0.45,7.45-2.6,7.84-4.46-2.5-5.17-6.44h0Z" fill="#e8c59e"/><path d="M831.65,203.58s-22.34-2.54-22.62,4a77.08,77.08,0,0,0,0,8.88c-0.53,15,2.53,35.49,22.44,38.49,21.36-3.21,23.34-26.44,22.29-41.53-0.52-7.51-22.11-9.88-22.11-9.88h0v0Z" fill="#e8c59e"/><path d="M831.47,255c32-4.81,20.5-54.54,20.5-54.54h-4.8c1.31,20.77,3.13,31.81-4.41,43.83-6,9.53-11.29,10.71-11.29,10.71h0Z" fill="#ddb58e"/><path d="M808.58,217.43s23.43,5.16,36-9.3c0,0,3.47,8.32,9.37,9.35V205.19H808.58v12.24Z" fill="#ddb58e"/><path d="M854.83,202.26c-2.9-8.94-23.36-10.83-23.36-10.83s-20.47,1.89-23.36,10.83,0.47,15.17.47,15.17c6.86,0.81,30,0,36.3-11.89A19.7,19.7,0,0,0,854,217.47s3.77-6.27.88-15.21h0Z" fill="#7f5732"/><path d="M856.16,254.27h-7.88a4.73,4.73,0,0,1,1.14,4.28c-0.83,8.32,6.51,6.94,6.51,6.94s-3.32-2.12-.41-9.41c0.25-.61.46-1.21,0.65-1.8h0Z" fill="#6b4627"/><line x1="431.52" y1="240.36" x2="737.52" y2="240.36" fill="none" stroke="#bec8d6" stroke-miterlimit="10" stroke-width="5"/><line x1="431.52" y1="78.47" x2="737.52" y2="82.54" fill="none" stroke="#bec8d6" stroke-miterlimit="10" stroke-width="5"/><line x1="431.52" y1="398.27" x2="737.52" y2="398.27" fill="none" stroke="#bec8d6" stroke-miterlimit="10" stroke-width="5"/><g id="Layer_5" data-name="Layer 5"><g style="isolation:isolate"><path d="M157,84.35h-2.35l-0.87,5h-2.26l0.88-5h-2.78V82.26h3.14l0.63-3.57h-2.84V76.61h3.21l0.9-5.1h2.24l-0.9,5.1h2.35l0.91-5.1h2.24l-0.9,5.1h2.7v2.08h-3.06l-0.63,3.57h2.76v2.08h-3.11l-0.88,5h-2.26Zm-2-2.08h2.34L158,78.69H155.6Z" fill="#fff"/><path d="M175.19,85.51h-6.27l-1.21,3.85h-3.62l6.14-17.85h3.67L180,89.36H176.4Zm-5.38-2.81h4.5l-2.21-7H172Z" fill="#fff"/></g><rect x="113.9" y="38.66" width="270.58" height="83.68" rx="5" ry="5" fill="none" stroke="#bec8d6" stroke-miterlimit="10" stroke-width="2"/><rect x="125.32" y="49.51" width="60.5" height="60.5" fill="#e0605c"/><rect x="202.96" y="49.51" width="92.47" height="15.98" fill="#bdc3c7"/><rect x="245.84" y="75.98" width="39.05" height="14.84" fill="#bdc3c7"/><rect x="204.66" y="101.89" width="73.06" height="8.12" fill="#bdc3c7"/><g style="isolation:isolate"><path d="M157.12,244.75h-2.35l-0.87,5h-2.26l0.88-5h-2.78v-2.08h3.14l0.63-3.57h-2.84V237h3.21l0.9-5.1H157l-0.9,5.1h2.35l0.91-5.1h2.24l-0.9,5.1h2.7v2.08h-3.06l-0.63,3.57h2.76v2.08h-3.11l-0.88,5h-2.26Zm-2-2.08h2.34l0.63-3.57h-2.35Z" fill="#fff"/><path d="M175.34,245.91h-6.27l-1.21,3.85h-3.62l6.14-17.85h3.67l6.12,17.85h-3.62ZM170,243.1h4.5l-2.21-7h-0.07Z" fill="#fff"/></g><rect x="114.05" y="199.07" width="270.58" height="83.68" rx="5" ry="5" fill="none" stroke="#bec8d6" stroke-miterlimit="10" stroke-width="2"/><rect x="125.47" y="210.09" width="60.5" height="60.5" fill="#56beb7"/><rect x="203.11" y="209.91" width="82.76" height="15.98" fill="#bdc3c7"/><rect x="204.81" y="236.39" width="110.56" height="14.84" fill="#bdc3c7"/><g style="isolation:isolate"><path d="M157.12,406.46h-2.35l-0.87,5h-2.26l0.88-5h-2.78v-2.08h3.14l0.63-3.57h-2.84v-2.08h3.21l0.9-5.1H157l-0.9,5.1h2.35l0.91-5.1h2.24l-0.9,5.1h2.7v2.08h-3.06l-0.63,3.57h2.76v2.08h-3.11l-0.88,5h-2.26Zm-2-2.08h2.34l0.63-3.57h-2.35Z" fill="#fff"/><path d="M175.34,407.62h-6.27l-1.21,3.85h-3.62l6.14-17.85h3.67l6.12,17.85h-3.62ZM170,404.81h4.5l-2.21-7h-0.07Z" fill="#fff"/></g><rect x="114.05" y="360.78" width="270.58" height="83.68" rx="5" ry="5" fill="none" stroke="#bec8d6" stroke-miterlimit="10" stroke-width="2"/><rect x="125.47" y="371.62" width="60.5" height="60.5" fill="#515147"/><rect x="203.11" y="371.62" width="112.26" height="15.98" fill="#bdc3c7"/><rect x="204.81" y="398.1" width="60.43" height="14.84" fill="#bdc3c7"/><rect x="204.81" y="424.01" width="73.06" height="8.12" fill="#bdc3c7"/><rect x="204.81" y="262.48" width="73.06" height="8.12" fill="#bdc3c7"/><rect x="321.53" y="236.39" width="45.38" height="14.84" fill="#bdc3c7"/><rect x="270.37" y="398.21" width="96.54" height="14.84" fill="#bdc3c7"/><rect x="288.79" y="75.98" width="77.98" height="14.84" fill="#bdc3c7"/><rect x="204.66" y="75.98" width="36.53" height="14.84" fill="#bdc3c7"/></g></svg>