<svg id="Layer_1" data-name="Layer 1" xmlns="http://www.w3.org/2000/svg" xmlns:xlink="http://www.w3.org/1999/xlink" viewBox="0 0 1000 512"><defs><clipPath id="clip-path"><rect x="706.7" y="229.78" width="112.55" height="124.56" fill="none"/></clipPath><clipPath id="clip-path-2"><rect x="634.83" y="369.33" width="112.55" height="119" fill="none"/></clipPath></defs><title>push-notification-visitors-to-subs</title><path d="M816.42,329.63c-4.13-14-24.88-12.44-33.84-16.46s-7.56-17.5-8.69-19.85H752c-1.13,2.35.27,15.83-8.69,19.85s-29.71,2.47-33.84,16.46c-2.28,7.72-2.17,10.08-2.8,18.63,0,0,28.47,5.63,55.61,5.63s56.9-5.63,56.9-5.63c-0.63-8.55-.52-10.91-2.8-18.63h0Z" fill="#e0605c"/><path d="M816.42,329.63c-4.13-14-24.88-12.44-33.84-16.46s-7.56-17.5-8.69-19.85H762.32S762,312.24,771,316.26s29.71,2.47,33.84,16.46c2.17,7.35,2.17,9.84,2.72,17.45,7.13-1,11.66-1.9,11.66-1.9-0.63-8.55-.52-10.91-2.8-18.63h0Z" fill="#606060"/><path d="M816.42,329.63c-4.06-13.76-24.17-12.49-33.37-16.26,0,0-1.21,2.2-3.23,5.24,9.75,1.89,22,3.72,25,14.1,2.17,7.35,2.17,9.84,2.72,17.45,7.13-1,11.66-1.9,11.66-1.9-0.63-8.55-.52-10.91-2.8-18.63h0Z" fill="#d35953"/><path d="M783,313.37l-0.47-.2c-9-4-7.56-17.5-8.69-19.85H752c-1.13,2.35.27,15.83-8.69,19.85l-0.47.2a85.44,85.44,0,0,0,6.82,10.23c4.75,6.09,11.12,12.65,13.27,12.65s8.52-6.56,13.27-12.65A86,86,0,0,0,783,313.37h0Z" fill="#e9e5dc"/><path d="M783,313.37l-0.23-.1h0l-0.23-.1a10.77,10.77,0,0,1-3.9-3,40.2,40.2,0,0,1-4.54,7.14c1.72,0.48,3.64.87,5.68,1.27,2-3,3.23-5.24,3.23-5.24h0v0Z" fill="#e1dcd3"/><path d="M778.68,310.2c-4.63-5.54-3.86-15-4.79-16.89H752c-0.93,1.92-.16,11.34-4.79,16.89,2.21,5.2,14.08,19.12,15.72,19.12s13.32-13.5,15.72-19.12h0Z" fill="#dbb491"/><path d="M771,316.25a22.35,22.35,0,0,0,3.13,1.09,40.26,40.26,0,0,0,4.54-7.14c-3.92-4.69-4-12.16-4.46-15.51h0v-0.57h0v-0.17h0v-0.12h0v-0.09h0v-0.08h0v-0.11H762.32S762,312.24,771,316.25h0Z" fill="#cca483"/><path d="M813.6,346.13c0-.12-0.16-12.69-4.72-18.53-2.94-3.76-12.27-5.71-18.44-7l-0.51-.11c-2.74-.57-5-0.9-5-0.9l1.8-3.62c1,0.16,2.36.41,4,.74l0.51,0.11c7.12,1.48,16.88,3.52,20.69,8.39,4.86,6.22,5.45,17.82,5.52,20.38Z" fill="#e1dcd3"/><path d="M712.27,346.13c0-.12.16-12.69,4.72-18.53,2.94-3.76,12.27-5.71,18.44-7l0.51-.11c2.74-.57,5-0.9,5-0.9l-1.8-3.62c-1,.16-2.37.41-4,0.74l-0.51.11c-7.13,1.48-16.88,3.52-20.69,8.39-4.86,6.22-5.45,17.82-5.52,20.38Z" fill="#e9e5dc"/><path d="M749.1,307.26c3.63,3,7.87,5.88,13.84,6.72,6-.85,10.22-3.83,13.85-6.8-3-5.55-2.09-12.17-2.9-13.87H752c-0.82,1.7.09,8.39-2.94,13.94h0Z" fill="#c59d7f"/><path d="M787.15,287.4c-2.34-.42-3.61-4.26-2.84-8.57s3.3-7.46,5.65-7,3.61,4.26,2.84,8.57-3.3,7.46-5.65,7h0Z" fill="#cca483"/><path d="M733.06,280.37c-0.77-4.31.5-8.14,2.84-8.57s4.87,2.73,5.65,7-0.5,8.15-2.84,8.57-4.87-2.73-5.65-7h0Z" fill="#dbb491"/><path d="M786.75,253.21L762.94,242l-23.8,11.18s-13.34,54.35,23.8,59.61c37.15-5.26,23.81-59.61,23.81-59.61h0v0Z" fill="#dbb491"/><path d="M762.94,312.82c37.15-5.26,23.81-59.61,23.81-59.61h-5.57c1.53,22.7,3.64,34.76-5.12,47.91-6.94,10.42-13.12,11.7-13.12,11.7h0Z" fill="#cca483"/><g clip-path="url(#clip-path)"><path d="M741.46,265.25a6.22,6.22,0,0,0,1.76.57s13,2.69,19.89,2.69,19.6-2.69,19.6-2.69a6.56,6.56,0,0,0,1.76-.62v-8.87h-43v8.92h0Z" fill="#cca483"/><path d="M788.59,244.3a9.46,9.46,0,0,0-5.31-.9c-2.73-5.32-6.48-6.78-6.48-6.78l-2.72,3.57L763,229.71l-11.12,10.48-2.72-3.57s-3.47,1.28-6.48,6.78a9.46,9.46,0,0,0-5.31.9s-1.6,14.08-1.6,25.8,2.65,19.17,2.65,19.17l2.29,0.46s-0.61-10.16.16-16.58c0.75-6.25,2.38-9,2.38-9s13,2.69,19.89,2.69,19.6-2.69,19.6-2.69a27.75,27.75,0,0,1,2.38,9c0.77,6.3.16,16.54,0.16,16.54l2.16-.45A62.09,62.09,0,0,0,790.21,270c0-11.47-1.6-25.8-1.6-25.8h0Z" fill="#585a5a"/></g><path d="M741.21,243.34l-0.08.06a9.22,9.22,0,0,0,.94,6.9,11.65,11.65,0,0,1,.57-6.9,9.33,9.33,0,0,0-1.43-.06h0Z" fill="#403f3f"/><path d="M751.84,240.19a11.33,11.33,0,0,0-2.5,8.08,9,9,0,0,1,1.59-9.27Z" fill="#403f3f"/><path d="M784.72,243.34l0.08,0.06a9.23,9.23,0,0,1-.94,6.9,11.67,11.67,0,0,0-.57-6.9,9.29,9.29,0,0,1,1.43-.06h0Z" fill="#403f3f"/><path d="M774.08,240.19a11.33,11.33,0,0,1,2.5,8.08A9,9,0,0,0,775,239Z" fill="#403f3f"/><path d="M744.54,463.62c-4.13-14-24.88-12.44-33.84-16.46s-7.56-17.51-8.69-19.85H680.16c-1.13,2.35.27,15.83-8.69,19.85s-29.71,2.47-33.84,16.46c-2.28,7.72-2.17,10.08-2.8,18.63,0,0,28.47,5.63,55.61,5.63s56.9-5.63,56.9-5.63c-0.63-8.55-.52-10.91-2.8-18.63h0Z" fill="#646459"/><path d="M744.54,463.62c-4.13-14-24.88-12.44-33.84-16.46s-7.56-17.51-8.69-19.85H690.44s-0.27,18.92,8.69,22.93,29.71,2.47,33.84,16.46c2.17,7.35,2.18,9.84,2.72,17.45,7.13-1,11.66-1.9,11.66-1.9-0.63-8.56-.52-10.91-2.8-18.64h0Z" fill="#525248"/><path d="M696.74,487.79c3.84-9.89,9-27.41,9.77-44.29H675.59c0.82,16.89,6,34.44,9.79,44.32,1.68,0,3.37.06,5.06,0.06,2.09,0,4.2,0,6.3-.1h0Z" fill="#eae9e1"/><path d="M705,449.8l-7.71,7.38-1.82-11.26Z" fill="#c6c5af"/><path d="M676.82,449.8l8.09,7.38,1.48-11.35Z" fill="#c6c5af"/><path d="M695.73,445.83h-9.34l-0.71,2.29,10.78,0.06Z" fill="#c6c5af"/><path d="M686.38,445.83l-0.71,2.29,0.41,0.27Z" fill="#aaa88f"/><path d="M696.45,448.18l-1-2.27,0.42,2.62Z" fill="#aaa88f"/><path d="M696.26,487.8l0.21-3L694.22,455h-5.94l-2.63,29.85,0.22,3c1.53,0,3.06,0,4.58,0,1.93,0,3.87,0,5.82-.08h0v0Z" fill="#4c4c4c"/><path d="M688.3,455.12l5.92-.13,0.12,1.67Z" fill="#3b3b38"/><path d="M684.06,446.82h14l-0.79,4.77-3.16,3.55H688.3l-3.44-3.55Z" fill="#4c4c4c"/><path d="M686.38,445.83l-9.54-5.18s-1.26,1.79-4.39,6l11.76,8.47,1-5.53Z" fill="#eae9e1"/><path d="M695.4,445.83l9.54-5.18s1.26,1.79,4.39,6l-11.76,8.47-1-5.53Z" fill="#eae9e1"/><path d="M704.94,440.64l-9.54,5.18,0.66,2.14a9.32,9.32,0,0,0,3.07,2.28,23.67,23.67,0,0,0,3.54,1.21l6.65-4.79c-3.13-4.22-4.39-6-4.39-6h0v0Z" fill="#e1dcd3"/><path d="M718.45,462.59l-5.68-2.06,5.11-1.41L713,448l-15.1,39.76q2.66-.09,5.3-0.24Z" fill="#525248"/><path d="M663.91,459.12l5.11,1.41-5.69,2.06,15.28,25c1.75,0.09,3.51.16,5.28,0.22l-15.14-39.65Z" fill="#525248"/><path d="M716.85,462.9l-5.5-2.31,5-1.77L713,448l-6.27-4.87-11.9,44.7c2.58,0,5.18-.15,7.75-0.29Z" fill="#73736b"/><path d="M706.73,443.14l-2.33,8.74c3.16,0.72,6.82,1.3,10.44,2.12L713,448Z" fill="#646459"/><path d="M668.75,448.13l-3.31,10.68,5,1.77-5.5,2.31,14.3,24.7q3.84,0.2,7.73.26l-12-44.71Z" fill="#73736b"/><path d="M715.28,421.39c-2.34-.42-3.61-4.26-2.84-8.57s3.3-7.46,5.65-7,3.61,4.26,2.84,8.57-3.3,7.46-5.65,7h0Z" fill="#cca483"/><path d="M661.18,414.36c-0.77-4.31.5-8.15,2.84-8.57s4.87,2.73,5.65,7-0.5,8.14-2.84,8.57-4.87-2.73-5.65-7h0Z" fill="#dbb491"/><path d="M714.87,387.2h-47.6s-13.34,54.35,23.8,59.61c37.15-5.26,23.81-59.61,23.81-59.61h0Z" fill="#dbb491"/><g clip-path="url(#clip-path-2)"><path d="M691.06,446.81c37.15-5.26,23.81-59.61,23.81-59.61H709.3c1.53,22.7,3.64,34.76-5.12,47.91-6.94,10.42-13.12,11.7-13.12,11.7h0Z" fill="#cca483"/><path d="M701.6,371.67a29.3,29.3,0,0,0-17.23-1.35c-7.4,1.58-19.43,6.61-22.14,17.38,0,0-4,17.6,2.85,25.18a84.51,84.51,0,0,1,.35-12.35s4.14,1.83,12.49,1.73c11.19-.14,22-4.73,25.37-9.77,0,0-.38,7.24-4,10.19,0,0,12.8-2,16.58-9.6,0,0,1.27,6.65,1.27,19a16.31,16.31,0,0,0,2.46-7.27c1.06-10.17-.87-24.22-8.48-23.75,0,0-3.23-6.4-9.49-9.37h0Z" fill="#393c3d"/></g><path d="M699.26,402.69c3.65-3,4-10.2,4-10.2-3.34,5-14.18,9.63-25.37,9.77-8.07.1-12.21-1.61-12.48-1.72a44,44,0,0,0,34-1.44s-1,3.53-3,4.75c0,0,16.26-.3,19.43-10.75-3.78,7.59-16.58,9.59-16.58,9.59h0Z" fill="#cca483"/><path d="M801.62,414.8s-13.4-44.56,27.86-44.56,28.79,44.56,28.79,44.56H801.62Z" fill="#7f5832"/><path d="M853,423.53s9.23,9.69,3.17,24.9c-3.17,8,.45,10.29.45,10.29s-8,1.51-7.12-7.58c0.27-2.7,0-3.36-2.62-6.29s-5.21-5.76-3.91-12.53Z" fill="#6b4728"/><path d="M880.43,464.07c-3.9-14-23.49-12.44-31.94-16.46s-7.13-17.5-8.21-19.85H819.66c-1.07,2.35.25,15.83-8.21,19.85s-28,2.47-31.94,16.46c-2.15,7.72-2,10.08-2.64,18.63,0,0,26.88,5.63,52.5,5.63s53.71-5.63,53.71-5.63c-0.59-8.55-.49-10.91-2.64-18.63h0Z" fill="#e7c59e"/><path d="M837.57,450.69c8.45,4,28,2.47,31.94,16.46,2,7.35,2,9.84,2.56,17.45,6.73-1,11-1.9,11-1.9-0.59-8.55-.49-10.91-2.64-18.63-3.9-14-23.49-12.44-31.94-16.46s-7.14-17.5-8.21-19.85H829.36s-0.25,18.91,8.2,22.93h0Z" fill="#ddb58f"/><path d="M793.79,485.55a263.5,263.5,0,0,0,35.58,2.78,279.71,279.71,0,0,0,37.14-2.91c5-4.37,12.29-5.32,16.39-5.49-0.42-6.41-.56-9-2.46-15.86-3.6-12.93-20.61-12.59-29.83-15.63,1.13,6.63-18.12,35.27-20.53,35.27s-21.63-28.85-20.51-35.34c-9.18,3.12-26.42,2.67-30,15.7-1.9,6.81-2,9.45-2.46,15.86,4.09,0.15,11.69,1.07,16.73,5.63h0Z" fill="#76c4bb"/><path d="M880.43,464.07c-3.6-12.93-20.61-12.59-29.83-15.63,0.2,1.18-.24,3.06-1.13,5.35,8.4,1.76,17.51,4.3,20,13.37a58.91,58.91,0,0,1,2.4,15,33.39,33.39,0,0,1,11-2.22c-0.42-6.41-.56-9-2.46-15.86h0Z" fill="#57beb7"/><path d="M816.89,441.69c3.42,3,7.43,5.88,13.06,6.72,5.65-.85,9.65-3.83,13.07-6.8-2.85-5.55-2-12.17-2.74-13.87H819.66c-0.77,1.7.09,8.39-2.77,13.94h0Z" fill="#cca381"/><path d="M852.62,421.84c-2.34-.42-3.61-4.26-2.84-8.57s3.3-7.46,5.65-7,3.61,4.26,2.84,8.57-3.3,7.46-5.65,7h0Z" fill="#ddb58f"/><path d="M801.61,414.8c-0.77-4.31.5-8.14,2.84-8.57s4.87,2.73,5.65,7-0.5,8.15-2.84,8.57-4.87-2.73-5.65-7h0Z" fill="#e7c59e"/><path d="M830.14,391.06s-24.42-2.78-24.72,4.42a86,86,0,0,0,0,9.71c-0.58,16.37,2.77,38.79,24.53,42.07,23.35-3.51,25.51-28.9,24.37-45.4-0.57-8.21-24.17-10.8-24.17-10.8h0Z" fill="#e7c59e"/><path d="M829.94,447.26c35-5.26,22.41-59.61,22.41-59.61h-5.24c1.44,22.7,3.42,34.76-4.82,47.91-6.53,10.42-12.35,11.7-12.35,11.7h0Z" fill="#ddb58f"/><path d="M804.93,406.19s25.61,5.64,39.35-10.17c0,0,3.79,9.09,10.24,10.21V392.82H804.93V406.2h0Z" fill="#ddb58f"/><path d="M855.48,389.61c-3.17-9.77-25.53-11.83-25.54-11.83s-22.37,2.07-25.54,11.83,0.52,16.58.52,16.58c7.5,0.88,32.79,0,39.67-13a21.54,21.54,0,0,0,9.92,13s4.12-6.85,1-16.63h0Z" fill="#7f5832"/><path d="M856.93,446.46h-8.62c1.33,1.69,1.46,2.55,1.24,4.68-0.91,9.09,7.12,7.58,7.12,7.58s-3.63-2.31-.45-10.29c0.27-.67.5-1.32,0.71-2h0v0Z" fill="#6b4728"/><path d="M239.14,75.9a28.59,28.59,0,1,0-20.19-8.37,27.52,27.52,0,0,0,20.2,8.37h0Z" fill="#627684"/><path d="M291.25,106.07a75.58,75.58,0,0,0-1-8.11,62.26,62.26,0,0,0-2-8.07,38.06,38.06,0,0,0-3.2-7.25,26.16,26.16,0,0,0-4.61-6,19.45,19.45,0,0,0-6.36-4,22.39,22.39,0,0,0-8.29-1.48,9.08,9.08,0,0,0-3.13,1.6q-2.45,1.61-5.54,3.57a35.11,35.11,0,0,1-8,3.57,31.6,31.6,0,0,1-19.86,0,34.91,34.91,0,0,1-8-3.57l-5.54-3.57a9.09,9.09,0,0,0-3.13-1.6,22.38,22.38,0,0,0-8.29,1.48,19.4,19.4,0,0,0-6.36,4,26.13,26.13,0,0,0-4.61,6,38,38,0,0,0-3.2,7.25,63.21,63.21,0,0,0-2,8.07,75.58,75.58,0,0,0-1,8.11q-0.26,3.75-.26,7.7,0,8.92,5.43,14.1T206.63,133h65q9,0,14.43-5.17t5.43-14.1q0-3.95-.26-7.7h0Z" fill="#627684"/><path d="M303.55,206.63a28.58,28.58,0,1,0-20.2-8.37,27.51,27.51,0,0,0,20.2,8.37h0Z" fill="#627684"/><path d="M355.66,236.8a75.58,75.58,0,0,0-1-8.11,62.26,62.26,0,0,0-2-8.07,38.06,38.06,0,0,0-3.2-7.25,26.16,26.16,0,0,0-4.61-6,19.45,19.45,0,0,0-6.36-4,22.39,22.39,0,0,0-8.29-1.48,9.08,9.08,0,0,0-3.13,1.6q-2.45,1.61-5.54,3.57a35.11,35.11,0,0,1-8,3.57,31.6,31.6,0,0,1-19.86,0,34.91,34.91,0,0,1-8-3.57l-5.54-3.57a9.09,9.09,0,0,0-3.13-1.6,22.38,22.38,0,0,0-8.29,1.48,19.4,19.4,0,0,0-6.36,4,26.13,26.13,0,0,0-4.61,6,38,38,0,0,0-3.2,7.25,63.21,63.21,0,0,0-2,8.07,75.58,75.58,0,0,0-1,8.11q-0.26,3.75-.26,7.7,0,8.92,5.43,14.1T271,263.76h65q9,0,14.43-5.17t5.43-14.1q0-3.95-.26-7.7h0.06Z" fill="#627684"/><path d="M173.41,206.63a28.58,28.58,0,1,0-20.2-8.37,27.51,27.51,0,0,0,20.2,8.37h0Z" fill="#627684"/><path d="M225.52,236.8a75.58,75.58,0,0,0-1-8.11,62.26,62.26,0,0,0-2-8.07,38.06,38.06,0,0,0-3.2-7.25,26.16,26.16,0,0,0-4.61-6,19.45,19.45,0,0,0-6.36-4,22.39,22.39,0,0,0-8.29-1.48,9.08,9.08,0,0,0-3.13,1.6q-2.45,1.61-5.54,3.57a35.11,35.11,0,0,1-8,3.57,31.6,31.6,0,0,1-19.86,0,34.91,34.91,0,0,1-8-3.57L150,203.49a9.09,9.09,0,0,0-3.13-1.6,22.38,22.38,0,0,0-8.29,1.48,19.4,19.4,0,0,0-6.36,4,26.13,26.13,0,0,0-4.61,6,38,38,0,0,0-3.2,7.25,63.21,63.21,0,0,0-2,8.07,75.58,75.58,0,0,0-1,8.11q-0.26,3.75-.26,7.7,0,8.92,5.43,14.1T141,263.77h65q9,0,14.43-5.17t5.43-14.1q0-3.95-.26-7.7h-0.08Z" fill="#627684"/><line x1="468.19" y1="208.23" x2="538.36" y2="239.29" fill="none"/><line x1="468.19" y1="208.23" x2="538.36" y2="239.29" fill="none" stroke="#9aa2b5" stroke-miterlimit="10" stroke-width="6"/><polygon points="553.85 246.15 528.07 245.4 537.2 238.77 535.97 227.56 553.85 246.15" fill="#9aa2b5"/><line x1="468.19" y1="289.68" x2="538.36" y2="320.73" fill="none"/><line x1="468.19" y1="289.68" x2="538.36" y2="320.73" fill="none" stroke="#9aa2b5" stroke-miterlimit="10" stroke-width="6"/><polygon points="553.85 327.59 528.07 326.85 537.2 320.22 535.97 309.01 553.85 327.59" fill="#9aa2b5"/></svg>