<svg id="Layer_1" data-name="Layer 1" xmlns="http://www.w3.org/2000/svg" viewBox="0 0 1000 495"><title>push-notification-high-conversion</title><path d="M190.82,433V41.46A20.6,20.6,0,0,1,211.4,20.84H788.54a20.58,20.58,0,0,1,20.58,20.58V433H190.82Z" fill="#353f49"/><rect x="225.19" y="55.22" width="549.6" height="343.51" fill="#fff"/><circle cx="499.98" cy="38.01" r="8.59" fill="#474f59"/><path d="M503.41,38A3.43,3.43,0,1,1,500,34.57h0A3.44,3.44,0,0,1,503.41,38Z" fill="#fff"/><rect x="122.12" y="433.04" width="755.76" height="13.75" fill="#f2f2f2"/><path d="M877.86,446.79a24.13,24.13,0,0,1-24.06,24H146.18a24,24,0,0,1-24.06-24H877.86Z" fill="#cccbca"/><rect x="431.29" y="433.04" width="137.39" height="6.89" fill="#cccbca"/><path d="M807.51,132.58a2.57,2.57,0,1,1-2.57-2.57A2.57,2.57,0,0,1,807.51,132.58Z" fill="#353f49"/><g id="Layer_4" data-name="Layer 4"><rect x="289.45" y="330.33" width="30.62" height="56.91" rx="5" ry="5" fill="#ffc61b"/><rect x="329.92" y="303.14" width="30.62" height="84.11" rx="5" ry="5" fill="#39bba4"/></g><g id="Layer_5" data-name="Layer 5"><rect x="405.82" y="305.35" width="30.62" height="81.89" rx="5" ry="5" fill="#ffc61b"/><rect x="446.28" y="251.13" width="30.62" height="136.12" rx="5" ry="5" fill="#39bba4"/></g><g id="Layer_6" data-name="Layer 6"><rect x="522.18" y="270.8" width="30.62" height="116.45" rx="5" ry="5" fill="#ffc61b"/><rect x="562.64" y="208.31" width="30.62" height="178.93" rx="5" ry="5" fill="#39bba4"/></g><g id="Layer_7" data-name="Layer 7"><rect x="638.54" y="225.23" width="30.62" height="162.01" rx="5" ry="5" fill="#ffc61b"/><rect x="679.01" y="154.35" width="30.62" height="232.9" rx="5" ry="5" fill="#39bba4"/></g><line x1="323.85" y1="274.92" x2="668.75" y2="128.75" fill="none" stroke="#9aa2b5" stroke-linecap="square" stroke-miterlimit="10" stroke-width="4"/><path d="M656.38,148.59a1.4,1.4,0,0,1-.36-1.95h0L668.16,129,647,125.45a1.4,1.4,0,1,1,.36-2.78l0.1,0,23.29,3.91a1.4,1.4,0,0,1,.92,2.18l-13.39,19.46A1.4,1.4,0,0,1,656.38,148.59Z" fill="#9aa2b5"/><g id="Layer_8" data-name="Layer 8"><rect x="287.06" y="70.24" width="35.41" height="35.41" rx="5.67" ry="5.67" fill="#ffc61b"/><rect x="519.78" y="70.24" width="35.41" height="35.41" rx="5.67" ry="5.67" fill="#39bba4"/><path d="M345,92.36a2,2,0,0,0-.73-1.6,6.86,6.86,0,0,0-2.58-1.12,10.91,10.91,0,0,1-4.06-1.83,3.65,3.65,0,0,1-1.42-3,3.82,3.82,0,0,1,1.57-3.13,6.39,6.39,0,0,1,4.06-1.23,6,6,0,0,1,4.17,1.4,4.17,4.17,0,0,1,1.52,3.36v0.06H345a2.53,2.53,0,0,0-.82-2,3.35,3.35,0,0,0-2.35-.75,3.43,3.43,0,0,0-2.21.63,2,2,0,0,0-.77,1.62,1.77,1.77,0,0,0,.84,1.49,9.27,9.27,0,0,0,2.77,1.12,9.23,9.23,0,0,1,3.86,1.88,4,4,0,0,1,1.32,3.06,3.69,3.69,0,0,1-1.57,3.13,6.79,6.79,0,0,1-4.13,1.16,7.3,7.3,0,0,1-4.32-1.31,4,4,0,0,1-1.8-3.58V91.66h2.53a2.46,2.46,0,0,0,1,2.15,4.35,4.35,0,0,0,2.58.71,3.82,3.82,0,0,0,2.27-.59A1.86,1.86,0,0,0,345,92.36Z" fill="#45525b"/><path d="M362.31,80.68V91.23a4.89,4.89,0,0,1-1.71,4,6.82,6.82,0,0,1-4.46,1.4,6.58,6.58,0,0,1-4.38-1.41,4.94,4.94,0,0,1-1.67-4V80.68h2.63V91.22a3.16,3.16,0,0,0,.93,2.48,3.61,3.61,0,0,0,2.5.83,3.81,3.81,0,0,0,2.58-.83,3.11,3.11,0,0,0,1-2.48V80.68h2.58Z" fill="#45525b"/><path d="M365.45,96.42V80.68h5.23a6.81,6.81,0,0,1,4.08,1.08A3.73,3.73,0,0,1,376.23,85a3.16,3.16,0,0,1-.62,1.91,3.64,3.64,0,0,1-1.71,1.25,3.51,3.51,0,0,1,2.16,1.35,4.46,4.46,0,0,1-.69,5.78,6.27,6.27,0,0,1-4,1.15h-5.92Zm2.63-9.11H371a3,3,0,0,0,1.93-.58,2.31,2.31,0,0,0,0-3.37,3.56,3.56,0,0,0-2.18-.57h-2.6v4.52h0Zm0,2v5h3.31a3.16,3.16,0,0,0,2.1-.62,2.22,2.22,0,0,0,.73-1.8,2.82,2.82,0,0,0-.62-1.94,2.45,2.45,0,0,0-1.92-.69h-3.6v0.05Z" fill="#45525b"/><path d="M388.15,92.36a2,2,0,0,0-.73-1.6,6.86,6.86,0,0,0-2.58-1.12,10.91,10.91,0,0,1-4.06-1.83,3.65,3.65,0,0,1-1.42-3,3.82,3.82,0,0,1,1.57-3.13A6.39,6.39,0,0,1,385,80.45a6,6,0,0,1,4.17,1.4,4.17,4.17,0,0,1,1.52,3.36v0.06h-2.52a2.53,2.53,0,0,0-.82-2,3.35,3.35,0,0,0-2.35-.75,3.43,3.43,0,0,0-2.21.63,2,2,0,0,0-.77,1.62,1.77,1.77,0,0,0,.84,1.49,9.27,9.27,0,0,0,2.77,1.12,9.23,9.23,0,0,1,3.86,1.88,4,4,0,0,1,1.32,3.06,3.69,3.69,0,0,1-1.57,3.13,6.79,6.79,0,0,1-4.13,1.16,7.3,7.3,0,0,1-4.32-1.31,4,4,0,0,1-1.8-3.58V91.66h2.53a2.46,2.46,0,0,0,1,2.15,4.35,4.35,0,0,0,2.58.71,3.82,3.82,0,0,0,2.27-.59A1.86,1.86,0,0,0,388.15,92.36Z" fill="#45525b"/><path d="M405,91.2v0.06a5,5,0,0,1-1.55,3.89,6.05,6.05,0,0,1-4.32,1.5,5.84,5.84,0,0,1-4.48-1.85,6.68,6.68,0,0,1-1.72-4.74v-3a6.76,6.76,0,0,1,1.7-4.74,5.72,5.72,0,0,1,4.43-1.86,6.27,6.27,0,0,1,4.39,1.46A5,5,0,0,1,405,85.86v0.06h-2.54a3.41,3.41,0,0,0-.86-2.48,3.37,3.37,0,0,0-2.53-.89,3,3,0,0,0-2.56,1.27,5.22,5.22,0,0,0-1,3.2v3a5.17,5.17,0,0,0,1,3.22,3.11,3.11,0,0,0,2.61,1.27,3.29,3.29,0,0,0,2.47-.87,3.41,3.41,0,0,0,.84-2.47H405v0Z" fill="#45525b"/><path d="M410.24,89.89v6.53h-2.63V80.68h5.81a6.23,6.23,0,0,1,4.07,1.19,4.15,4.15,0,0,1,1.44,3.39,3.51,3.51,0,0,1-.63,2.1,4.34,4.34,0,0,1-1.84,1.41,3.29,3.29,0,0,1,1.91,1.38,4.43,4.43,0,0,1,.58,2.35v1.31a5.31,5.31,0,0,0,.17,1.35,1.9,1.9,0,0,0,.58,1v0.25H417a1.76,1.76,0,0,1-.56-1.12,9.36,9.36,0,0,1-.12-1.5V92.53a2.65,2.65,0,0,0-.69-1.92,2.53,2.53,0,0,0-1.9-.71h-3.49Zm0-2.11h3a3.56,3.56,0,0,0,2.3-.61,2.27,2.27,0,0,0,.72-1.85,2.45,2.45,0,0,0-.71-1.86,3.06,3.06,0,0,0-2.17-.68h-3.19v5h0.05Z" fill="#45525b"/><path d="M425,96.42h-2.63V80.68H425V96.42Z" fill="#45525b"/><path d="M428.64,96.42V80.68h5.23A6.81,6.81,0,0,1,438,81.76,3.73,3.73,0,0,1,439.42,85a3.16,3.16,0,0,1-.62,1.91,3.64,3.64,0,0,1-1.71,1.25,3.51,3.51,0,0,1,2.16,1.35,4.46,4.46,0,0,1-.69,5.78,6.27,6.27,0,0,1-4,1.15h-5.92Zm2.63-9.11h2.9a3,3,0,0,0,1.93-.58,2.31,2.31,0,0,0,0-3.37,3.56,3.56,0,0,0-2.18-.57h-2.6v4.52h0Zm0,2v5h3.31a3.16,3.16,0,0,0,2.1-.62,2.22,2.22,0,0,0,.73-1.8,2.82,2.82,0,0,0-.62-1.94,2.45,2.45,0,0,0-1.92-.69h-3.6v0.05Z" fill="#45525b"/><path d="M452.33,89.34h-6.88v5h8v2.11H442.81V80.68h10.54v2.11h-7.91v4.44h6.88v2.11h0Z" fill="#45525b"/><path d="M458.27,89.89v6.53h-2.63V80.68h5.81a6.23,6.23,0,0,1,4.07,1.19A4.15,4.15,0,0,1,467,85.26a3.51,3.51,0,0,1-.63,2.1,4.34,4.34,0,0,1-1.84,1.41,3.29,3.29,0,0,1,1.91,1.38A4.43,4.43,0,0,1,467,92.5v1.31a5.31,5.31,0,0,0,.17,1.35,1.89,1.89,0,0,0,.58,1v0.25H465a1.77,1.77,0,0,1-.56-1.12,9.48,9.48,0,0,1-.12-1.5V92.53a2.65,2.65,0,0,0-.69-1.92,2.52,2.52,0,0,0-1.9-.71h-3.46Zm0-2.11h3a3.56,3.56,0,0,0,2.3-.61,2.27,2.27,0,0,0,.72-1.85,2.44,2.44,0,0,0-.71-1.86,3.06,3.06,0,0,0-2.17-.68h-3.19v5h0.05Z" fill="#45525b"/><path d="M478.82,92.36a2,2,0,0,0-.73-1.6,6.86,6.86,0,0,0-2.58-1.12,10.91,10.91,0,0,1-4.06-1.83,3.65,3.65,0,0,1-1.42-3,3.82,3.82,0,0,1,1.57-3.13,6.39,6.39,0,0,1,4.06-1.23,6,6,0,0,1,4.17,1.4,4.18,4.18,0,0,1,1.52,3.36v0.06h-2.52a2.53,2.53,0,0,0-.82-2,3.35,3.35,0,0,0-2.34-.75,3.43,3.43,0,0,0-2.21.63,2,2,0,0,0-.77,1.62,1.77,1.77,0,0,0,.84,1.49,9.27,9.27,0,0,0,2.77,1.12,9.23,9.23,0,0,1,3.86,1.88,4,4,0,0,1,1.32,3.06,3.69,3.69,0,0,1-1.57,3.13,6.79,6.79,0,0,1-4.13,1.16,7.3,7.3,0,0,1-4.32-1.31,4,4,0,0,1-1.8-3.58V91.66h2.53a2.46,2.46,0,0,0,1,2.15,4.35,4.35,0,0,0,2.58.71A3.82,3.82,0,0,0,478,94,1.86,1.86,0,0,0,478.82,92.36Z" fill="#45525b"/><path d="M570.21,89.89v6.53h-2.63V80.68h5.81a6.23,6.23,0,0,1,4.08,1.19,4.15,4.15,0,0,1,1.44,3.39,3.5,3.5,0,0,1-.63,2.1,4.34,4.34,0,0,1-1.84,1.41,3.29,3.29,0,0,1,1.91,1.38,4.44,4.44,0,0,1,.58,2.35v1.31a5.26,5.26,0,0,0,.17,1.35,1.89,1.89,0,0,0,.58,1v0.25H577a1.75,1.75,0,0,1-.56-1.12,9.37,9.37,0,0,1-.12-1.5V92.53a2.65,2.65,0,0,0-.69-1.92,2.53,2.53,0,0,0-1.9-.71h-3.52Zm0-2.11h3a3.56,3.56,0,0,0,2.3-.61,2.27,2.27,0,0,0,.72-1.85,2.44,2.44,0,0,0-.71-1.86,3.06,3.06,0,0,0-2.17-.68h-3.19v5h0.05Z" fill="#45525b"/><path d="M591.75,89.34h-6.88v5h8v2.11H582.24V80.68h10.54v2.11h-7.91v4.44h6.88v2.11Z" fill="#45525b"/><path d="M603.59,92.74h-6.16l-1.25,3.67h-2.66l5.78-15.74h2.49l5.72,15.74h-2.67Zm-5.4-2.19h4.66l-2.28-6.72H600.5Z" fill="#45525b"/><path d="M620.81,91.2v0.06a5,5,0,0,1-1.55,3.89,6,6,0,0,1-4.32,1.5,5.84,5.84,0,0,1-4.48-1.85,6.68,6.68,0,0,1-1.72-4.74v-3a6.76,6.76,0,0,1,1.7-4.74,5.72,5.72,0,0,1,4.43-1.86,6.27,6.27,0,0,1,4.39,1.46,5,5,0,0,1,1.56,3.94v0.06h-2.54a3.41,3.41,0,0,0-.86-2.48,3.37,3.37,0,0,0-2.53-.89,3,3,0,0,0-2.56,1.27,5.21,5.21,0,0,0-1,3.2v3a5.17,5.17,0,0,0,1,3.22A3.11,3.11,0,0,0,615,94.51a3.29,3.29,0,0,0,2.48-.87,3.41,3.41,0,0,0,.84-2.47h2.53Z" fill="#45525b"/><path d="M635.69,96.42h-2.62V89.71h-7v6.71H623.4V80.68H626V87.6h7V80.68h2.62V96.42h0.07Z" fill="#45525b"/></g></svg>