<?xml version="1.0" encoding="utf-8"?>
<!-- Generator: Adobe Illustrator 19.2.0, SVG Export Plug-In . SVG Version: 6.00 Build 0)  -->
<svg version="1.1" id="Layer_1" xmlns="http://www.w3.org/2000/svg" xmlns:xlink="http://www.w3.org/1999/xlink" x="0px" y="0px"
	 viewBox="0 0 1000 479" style="enable-background:new 0 0 1000 479;" xml:space="preserve">
<style type="text/css">
	.st0{fill:#353F49;}
	.st1{fill:#FFFFFF;}
	.st2{fill:#D9D8D7;}
	.st3{fill:#474F59;}
	.st4{fill:#F2F2F2;}
	.st5{fill:#CCCBCA;}
	.st6{fill:#F77B55;}
	.st7{fill:#FCD37A;}
	.st8{fill:#ECF0F1;}
	.st9{fill:#545E73;}
	.st10{fill:#8697CB;}
	.st11{fill:#26B999;}
	.st12{fill:#7CD6E0;}
</style>
<title>push-notification-realtime-comm</title>
<path class="st0" d="M309.9,395V41.1c0-10.3,8.3-18.6,18.6-18.6c0,0,0,0,0,0h521.5c10.3,0,18.6,8.3,18.6,18.6c0,0,0,0,0,0V395H309.9
	z"/>
<rect x="341" y="53.5" class="st1" width="496.6" height="310.4"/>
<g id="Layer_3">
	<g id="Layer_1-2">
		<g id="Layer_1-3">
			<g id="_Group_">
				<polygon id="_Path_" class="st2" points="479.8,140.6 472.6,138.9 476.2,140.6 				"/>
				<path id="_Path_2" class="st2" d="M405.9,155.4l-1.4,1.9L405.9,155.4z"/>
				<path id="_Path_3" class="st2" d="M477,143.1l-2.6,1.3L477,143.1z"/>
				<path id="_Compound_Path_" class="st2" d="M424.2,217l-0.3-0.2l5.9,9.8l10.8,3.4l0.2-0.2l0.5,0.1l-0.2,0.1l8.5,4.6l1.3,0.1
					l1.4,1.4l1.6,3.7v-0.8l1.7,1.6l0.4,0.8l0.4-0.1l0.8,0.9l4.4-0.8l2.9,0.7l-0.5,0.7l0.7,1.6l-0.1,3.3l0.3,0.4h0.4l-4.8,6.4
					l-0.5,2.1l1.3,0.7l0.2-0.7l14.9,30.9l1.6,32.6l-0.5-0.3l0.2,4.8l0.6,1.1l-0.9,2.3v-1.2l-0.7,0.6l-0.3-1.1l-1.1,2.3l0.7-0.5
					l1.4,2.1h0.8l0.6,1l-1.7-0.3l1,0.9l0.2,2.1l0.2-1l0.6,3h-0.4l0.5,0.6l0.3-0.7v0.9l-1.8-0.4l2,1.8l-0.4,0.2l1.7,0.4l-0.5-0.9
					l1,1.4h-2.1l1.6,0.6l-0.5,0.8l2.7-0.7l-0.9,1.9l1.3-1.4l-0.4,1.4l2.4-4.4l-0.3-3.2l3.3-4.3l-1.7-2l-0.4-2.2l2.4-5.2l-1-0.4
					l1.7-0.5l-1.6-0.9l-0.5-2.2l3.3-2.7l4-11.8l5.7,2.8l3.5-6.9l-0.7,3.3l3.5-5.4l0.2-5.3l0.7,0.1l0.3-0.5l5.5-3.1l6.3-8.5l0.3-6.5
					l0.7-0.4l3.1-3.8l0.5-3.1l-1.8-4.6l-7.2-2.8h-2.4l-0.7-0.4l-0.7,1l0.4-1.4l-0.5-0.6l-4.6-1.4l-2.3,2.7l-1.4-1.9l-3.1,0.3
					l3.1-4.7l-2.7-4.6l-1-0.8l-1.4,0.2l-0.7-0.8l-1.2,0.1l-0.6,0.3l-0.8-0.4l-1,0.6l-6.3-4.4l0.8-1.3l-0.9-0.3l-0.5-0.1l-0.8-0.1
					l-0.2-0.7l1.4-0.3l-3.4,0.2l0.8,0.2l-10.6-0.9l-0.7,2.5l-0.6-4.1l-4.5,1.9l-1.3,1.9l-2.2,1.4l-6.1-0.5l-2.3-5.5l-0.1,0.2
					l0.3-4.1l-0.5-0.1l-0.6-0.7l-5.9-0.1l1.2-4.5l0.4,0.5l0.6-4.8l-6,4.1l-0.2,0.5l-6.1-0.6l-2.1-5.1l0.4,1.2l0.7-10l1.9-2.1
					l0.5,0.4l2.4-2.1l-0.1,0.6l1.4-0.7l2.7,0.3l0.8,0.7l1.6-0.4l1.5,0.6l-0.4-1.1l-1.4-0.5l3.5-0.8L453,208l1.5-0.5l-0.4,0.4
					l2.3,0.2l0.2,0.7l3.3,3.6l0.2-0.5l0.7,1.6l-0.1,0.6l1.3,2.3l1.3-1l-0.5-4.8l0.3,0.4l0.1,1l-0.6-5.5l1.2-2.1l0.4,0.2l4-2.6
					l0.9-1.4l1.5-0.3l-0.9-0.5l0.2-0.6l1.1,0.1l0.7-0.5l-1.3-0.8l1.3,0.3v-1l0.4,1.4l-2-2.7l1.2,0.5l-0.5-0.8l0.6,0.3l-0.9-1.4
					l0.8,0.7l-0.5-2l0.7,1.4l-0.3-0.9l0.4-1.2l0.9-0.5l0.1,0.2l-0.1,0.3l-0.8,1.2l0.1,0.5l0.5,0.2l0.2,0.7l-0.6,1.4l1.5-2.1l0.5-2.9
					l-0.2,1.8l1.4-1.4l0.6-2.6l-0.2,0.9l3.3-1.4l0.8,0.2l1.4-0.3v-0.7l-1.1-0.6l2-2.7l0.2,0.2l1.7-1.4l-0.2,0.5l2.1-0.5l0.4-0.4
					l3.8-1.8l0.4,0.3l-1,0.8l2.1,0.1l-1.2,0.6l-0.2-0.5l-2.7,1.5l-0.1,0.5l0.4,1l2.4-1.6l0.1,0.2l3-0.7l0.8-1.1l-3.3-1l0.4-0.2
					l-1-0.7l-0.7-1.3l1.1-1.2l-2.5-0.7l2.3-0.2l1.3-1.1l-15.4,6.5l6.3-6.3l21.7-6.6l-0.7-0.3l-1.4-3.3l-3.4,1.5l0.1-0.8l3.4-1.6
					l-2.2-0.7l0.6-0.7l-1.5,0.2l0.7-1.5l-1.5-1.1l-0.7-1.4l1.4-0.2l-1.6-2.6l1.1-1l-1.3,0.3l0.8-1.6l-0.9-0.1l0.7-0.4l-1.2-2.1
					l0.2-0.6l-2.6,4.1l-2.3,0.8l-0.4-0.4l0.2-0.6l-1.6,1l-0.7-5.1l1.4-2.3l-2.8-2.3l-0.5-1.4l-5.4-0.6l-1.5,3.7l0.5,0.8l-0.7,4.6
					l-5.2,8l-1.5,8l-0.6-0.6l-0.2,1.5l-1.8-0.9l0.5-1.4l-1.2-1l0.8-3l-2.1-3.4l-1.6-0.2l-2.6-3.6l-5.6-1.7l-0.9-5.3l5.1-8l1.3,0.3
					l1.5-1.4l-1.6-3.6l2.4,1.7l2.1-0.5l0.6,0.1l2.8-3.4l-2.5-1.7l8.8-1.6l4.6-4.4l0.7-2.5l-1.2-1.4l-1.3-0.5l-6.1,4.7l-1.4-3.6
					l0.8-1.1l-0.5-0.7l-1.9-0.5l1.7-4.4l-1.3-1.9l-2.9,3.5l0.1,2.5l0.8,1.4l0.5-0.5l-0.9,2.5l-5.3,5.3l-0.1-1.5l1.1-0.5l-0.4-0.9
					l1.3-1.9l-1.2,0.5l0.7-0.7l-2-0.7l-0.9,2l-9.8-5.1l2.2,1.2l-2.3,0.6l-1.6,3.8l-0.4-0.5l-0.5,1.9l-0.5-2.3l0.6-0.9l-0.6-1.3
					l-0.9-0.8l-3.8-0.9l-1.4-1.9l-0.5-2l-9.5-7.7l-5.9,2.4l0.3-0.8l-3.7,1.2l6-3.2l-8.1,1.4l-14.2-11.1l0-1.2l-0.7-0.6H407l-0.5-0.7
					l-1.6-0.5l1.1-1.8l-6,1.3l0.5,0.7l-1.2,0.7l-0.1-0.3l-2.6-0.2l0.7-0.5L392,101l-2.7,0.1l-0.8-0.3l-1.8,1.6l0.3-0.2l1.5,7.9
					l-0.3,0.6l1,0.4l-1.9-1.4l-0.1,1.5l0.5,0.9l-2.2-0.2V110l-6.9,1.4v0.7l1.2,1.4l-1.4,0.6l0.3,1.7l2.8,1.4l0.4-0.8l-0.1,1.1
					l3.1-0.7l-3.7,4.1l-3.2,0.7v-0.8l-5,4.3l-0.1,1.8l0.2,0.4l1.2,0.8l-0.4,0.3l-0.3,0.9l-0.8-0.2l-0.4-0.9l-0.6,2.2l3.3-0.5
					l0.1,1.4l-1.4,3.1l-1.4,1.3l2.9-0.7l0.6,0.6l0.2,1.7l1.1-1.4l0.2,0.7l2.4-0.8l-8.9,8.2l-1.1-0.2l-4.3,2.5l0.5-0.5l2.7-0.6
					l0.1-0.2l2.5,0.2l21.4-14.1l-5.2,3.5l2.3,1l2.2-1.4l1.2-1.5l1.1-0.4l-0.5,0.8l2.3-0.1l-0.9,1.2l2.2,0.6l3.3,2.4l-0.3,0.6l3,0.8
					l-0.6,0.5l-0.5-0.7l1.3,3.8l1.3-0.9l1.1,0.2l0.1,2.1l1.4-3l0.8,4.7l-0.5,2.3l0.3,2l-0.3,1.1l-0.5,0.5l1.8-0.7l-0.7,3.5l1.8-2.8
					l-0.9,2.1l0.8-1.2l0.2,0.3l-2.2,5.5l1.9-1.3l0.3,1.5l-0.8-1.2l-0.5,1.3l0.7,0.8l-1.1,2.7l2.3-2.3l-0.3,1.9H409l1.3,0.9l-0.5,2.4
					l0.8,0.1l-0.5,0.5l2.1-0.7l0.8,2.9l-0.5,0.3l0.9-0.2l0.2,0.7l-1.8,5l0.7-0.5l0.4-1.1l-0.9,1l0.9-1.6l-2.4-0.8l-0.2,3.2h0.4
					l-0.7,1.4l1.1,0.4l-4.5,11.2l0.6,5.2l-0.3,0.3h2.1l-1,1.1l-0.3-0.6l1.4,5.5l3.6,3.3l3.2,10l-0.3-0.4h-1.1l2.2,1.6l2.9,5.1
					l1.4,0.9l-5.1-14.8l2.3,2l0.8,3.3l3.5,4.8l0.2,0.9L424.2,217L424.2,217L424.2,217z M469.5,185.9l-6.2,2.6l1.2-1.9l-0.4,1.1
					l1.5-1l2.2-0.1L469.5,185.9L469.5,185.9L469.5,185.9z M470,184.3h2.6l0.1-0.3h-1l2.4-0.6l-0.7,0.7l0.4,0.2l-3.5,1.3L470,184.3
					L470,184.3z M469.3,183.2l0.3-0.5l-0.4,0.9L469.3,183.2L469.3,183.2L469.3,183.2z M453.4,177.5l5.3-3.3l2.1,0.7l1.6,2.2l5.3,3.1
					l1,1.3l-1.3,1.4l-0.3-0.9l-2.4,3.8l-1.6-1.4l0.7-1l-0.5-2.7l-2.2,1.5l0.2-0.4v-0.5l-3.8,5l0.9-4.4l-0.1,0.5l1.4-2.5l3,0.3
					l0.5-1.4l-4.5-0.6l-0.6-1.2l-4.8,0.6l0,0L453.4,177.5z"/>
				<polygon id="_Path_4" class="st2" points="407.7,163.9 408.5,164.6 407.7,165.3 409.5,166.9 408.8,167.3 409.6,167.6 
					409.6,168.2 411,168.2 412.4,169.5 411.1,166.4 				"/>
				<polygon id="_Path_5" class="st2" points="360.4,148.6 360.7,147.8 359.9,147.9 358.4,149.3 				"/>
				<path id="_Path_6" class="st2" d="M354.6,221.5l-0.6-0.2L354.6,221.5z"/>
				<path id="_Path_7" class="st2" d="M358,149l-2.3,1.4L358,149z"/>
				<path id="_Path_8" class="st2" d="M352.4,220.4l-0.7-0.5L352.4,220.4z"/>
				<path id="_Path_9" class="st2" d="M353.7,220.7l-0.8,0.1L353.7,220.7z"/>
				<polygon id="_Path_10" class="st2" points="383.4,140.7 382.9,140.7 382,140.4 381.3,141.8 380.1,142.3 380.5,142.2 
					380.3,143.2 				"/>
				<polygon id="_Path_11" class="st2" points="491.5,344.6 489.2,342 485,340.3 487.3,344 485.3,343 485.2,342.2 486,344.1 
					484,344 				"/>
				<polygon id="_Path_12" class="st2" points="467,227.8 467.6,227.8 465.2,227.1 466.3,228 				"/>
				<polygon id="_Path_13" class="st2" points="478.6,227.1 477.2,226.1 476.9,225.5 473.7,225 471.6,227.1 				"/>
				<polygon id="_Path_14" class="st2" points="469.4,224.8 461.5,219.7 456.4,221.7 462.1,221.3 465.7,224.8 				"/>
				<polygon id="_Path_15" class="st2" points="480.4,227.8 482.7,227.2 481.5,227 				"/>
				<polygon id="_Path_16" class="st2" points="623.3,90.9 623.8,91 623.1,90.3 				"/>
				<path id="_Path_17" class="st2" d="M624.6,84.4l1.1-0.5L624.6,84.4z"/>
				<path id="_Path_18" class="st2" d="M625.5,87.6l0.4-0.5L625.5,87.6z"/>
				<polygon id="_Path_19" class="st2" points="623.8,87.3 625.4,87.1 625.2,86.1 624.7,85.4 623.3,86.7 				"/>
				<path id="_Path_20" class="st2" d="M627.8,88.6l2,1.3L627.8,88.6z"/>
				<path id="_Path_21" class="st2" d="M625.7,92.2l-0.3-1.1L625.7,92.2z"/>
				<path id="_Path_22" class="st2" d="M626.2,90.2l2.2,0.3L626.2,90.2z"/>
				<path id="_Path_23" class="st2" d="M622.8,89.1l0.2-0.2L622.8,89.1z"/>
				<polygon id="_Path_24" class="st2" points="615.7,91.8 617.1,91.8 618.1,90.2 615.3,91.6 				"/>
				<polygon id="_Path_25" class="st2" points="618.7,91.6 619.1,93.4 620.2,90 				"/>
				<path id="_Path_26" class="st2" d="M620.7,92.8l-0.2,0.5L620.7,92.8z"/>
				<polygon id="_Path_27" class="st2" points="656.1,80.1 660.6,81.8 659.5,78.5 657.3,77.7 				"/>
				<polygon id="_Path_28" class="st2" points="638.9,125.2 632.3,119.1 631.5,122.6 634.8,124.5 634.1,125.4 637.8,125.8 
					637.5,125.4 				"/>
				<polygon id="_Path_29" class="st2" points="631.8,130.5 630,131.1 632,131.1 				"/>
				<path id="_Path_30" class="st2" d="M628.6,83.8l-0.5-0.1L628.6,83.8z"/>
				<polygon id="_Path_31" class="st2" points="632.5,111.4 633.4,111.9 634.8,117.4 635.5,115.6 636.2,114.9 636,113.1 
					636.6,112.3 637.1,112.4 641.2,104.3 				"/>
				<polygon id="_Path_32" class="st2" points="568.6,161.8 568.3,163.2 569.2,162.9 568.5,165.7 569.4,164 569.1,164.7 
					569.4,166.2 571.8,166.6 572.2,169.9 569.6,170.9 570.4,171.7 568.9,172.7 572.5,172.9 568.4,176.1 576.2,173.5 577.6,171.9 
					575.7,170.7 574.8,169.1 575.8,169.3 574.1,166.2 570.9,164.3 572.2,164.1 571.5,163.7 570.5,161.2 570.9,159 				"/>
				<polygon id="_Path_33" class="st2" points="568,168.4 568.7,167.6 566.4,165.7 565.9,166.5 565.8,166 565.3,167.2 563,168.1 
					563.5,168.7 563.2,169.2 564.2,170 563,171.3 564.4,171 562.3,172.8 563.3,172.7 563,173 563,173.4 567.6,171.9 				"/>
				<polygon id="_Path_34" class="st2" points="585.4,98.5 586,100.5 586.9,101 586.2,101.5 588.3,103.9 589.9,102.1 591.4,102.5 
					591.8,103.4 589.2,105.3 592,105.8 589.8,106.9 594,104.3 594.1,101.3 593.5,100.3 592.8,100 592.8,99 591.9,99.5 590.4,97.4 
					590.8,101.2 588.8,97.9 587.1,99 588.1,98 586.9,98.3 586.1,98 585.4,98.1 				"/>
				<path id="_Path_35" class="st2" d="M592.4,95.5l-0.2,0.3L592.4,95.5z"/>
				<polygon id="_Path_36" class="st2" points="592.1,96.6 598.1,98.8 597.2,94.9 596.3,95.7 595.9,94.7 595.7,96.4 593.9,94.9 
					592.8,95.5 593.2,96.1 591.7,96.3 				"/>
				<polygon id="_Path_37" class="st2" points="598.8,106.3 599.6,105.5 595.1,103.2 596.4,105.4 596.5,106.2 				"/>
				<path id="_Path_38" class="st2" d="M591.8,136l2.3-1.4L591.8,136z"/>
				<polygon id="_Path_39" class="st2" points="712.6,85.9 713.3,86.4 712.9,86.4 713.9,88.2 721,86.4 721.4,84.4 715.7,83.4 				
					"/>
				<polygon id="_Path_40" class="st2" points="661.5,82.7 660.9,83.4 660.5,83.1 665.6,87.3 666,83.8 663.8,83.8 				"/>
				<polygon id="_Path_41" class="st2" points="668.8,84.8 672.6,88 669.7,83.9 669.4,84.6 668.6,84.5 				"/>
				<path id="_Path_42" class="st2" d="M722.7,94.8l-0.4-0.2L722.7,94.8z"/>
				<polygon id="_Path_43" class="st2" points="769.4,85.9 770,87.6 771.2,87.2 771.8,84.5 				"/>
				<polygon id="_Path_44" class="st2" points="722.8,84.4 727.9,83.8 722.4,83.6 				"/>
				<polygon id="_Path_45" class="st2" points="477.2,88.2 478.9,88.2 481.3,89.8 481.4,88 480.7,86.5 480.8,84.6 478.3,84.5 				
					"/>
				<polygon id="_Path_46" class="st2" points="483.3,92.2 485.3,89.2 482.9,92.3 				"/>
				<polygon id="_Path_47" class="st2" points="482.1,95.5 481.3,97.7 482.4,104.7 482.1,105.7 493.4,106.8 493.2,105.5 485,102.9 
					484.6,100 483.1,98.6 				"/>
				<polygon id="_Path_48" class="st2" points="488.5,86.6 492.1,87.3 488.9,88.3 488.4,89.7 490.7,92.9 491.3,91 492.6,91.4 
					494.4,89.7 493.7,91.3 497.8,87.8 497.3,87.5 497.7,85.5 496.8,85 495.3,78.5 493.6,80.5 492.3,81 491.6,80.4 491.2,81.8 
					490.4,81.8 491.8,82.9 489.4,82.4 490.4,84.9 				"/>
				<polygon id="_Path_49" class="st2" points="477,102.9 477.1,103.5 480,103.5 				"/>
				<polygon id="_Path_50" class="st2" points="501.5,87 498.3,90.8 497.5,90.9 499.8,91.6 494.5,91.6 493.8,92.2 493.7,94.1 
					496,92.7 494,96.3 496.8,95.4 491.7,96.2 491.3,97.3 489.9,97.4 487,99.4 487.8,100 488.6,98.7 488,100.1 489.3,99.6 
					489.6,100.6 490.3,99.9 497.8,101.1 496.8,97.4 500.9,97.7 505.6,93.6 503,91.9 507,92.2 505.5,90.5 511.4,89.6 513,87.6 
					516.3,86.9 520.5,84.2 516.6,84.5 524,80.1 520.3,77.6 520.1,75.5 519.2,75.7 518.2,74.6 517.1,76.3 514.5,73.7 513.9,76.5 
					512.2,75.1 508.4,77.7 499.9,77.4 501.5,78.6 498.8,80.6 503,80.4 498.7,81.8 504,81.5 500.3,83.2 503.8,83.6 502.7,84.3 
					510.1,81.8 508.8,84.4 502.9,89 				"/>
				<polygon id="_Path_51" class="st2" points="477.8,111.8 478.3,107.5 473,113.8 475.2,111.5 				"/>
				<polygon id="_Path_52" class="st2" points="471.8,112.3 471.7,110.3 473.3,107.5 469.8,107.5 469,107.2 470.1,108.5 
					467.6,112.5 470,114 				"/>
				<polygon id="_Path_53" class="st2" points="463.2,119.2 461.5,106.2 459.6,110.9 458.2,106.1 455.7,108.3 456.4,106.1 
					454.4,106.5 451.7,104.9 449,106.8 447.6,110.1 451.9,114.9 444.9,115.3 450,119.5 460.9,121.3 459.7,120.7 				"/>
				<polygon id="_Path_54" class="st2" points="464.5,123.2 467.6,123.3 466.3,120.1 465.7,121.2 465.5,120.7 				"/>
				<polygon id="_Path_55" class="st2" points="463.9,96.8 461.9,92.8 461.5,93.2 459.7,92.9 460.6,94.2 458,94.4 460,94.8 
					456.8,95.8 458.1,97.3 460.3,96.3 460.9,96.5 461.7,99.7 467.5,98.9 468,97.6 467.2,96.8 467.4,93.7 				"/>
				<polygon id="_Path_56" class="st2" points="474.2,96.7 474.7,97.1 474.2,98.9 472.4,99.1 475.7,99.8 473.9,102 475.8,102 
					478.3,99 478,97.1 476.4,98 				"/>
				<polygon id="_Path_57" class="st2" points="440.4,105.1 448.6,105.2 450.9,102.7 451.9,99.2 451.3,99.3 450.4,98.4 448.6,98.2 
					445.4,99.1 439.9,104.8 				"/>
				<polygon id="_Path_58" class="st2" points="369.2,117.8 370.8,119.8 372.6,119 370,116.6 				"/>
				<polygon id="_Path_59" class="st2" points="453.6,91.4 455,92.6 458,91 459.3,91 462.6,87.6 453.5,90.5 				"/>
				<polygon id="_Path_60" class="st2" points="567.8,159.2 566.9,159.9 566.8,160.7 				"/>
				<polygon id="_Path_61" class="st2" points="552.2,212.9 553.2,212.2 552.1,212.5 				"/>
				<path id="_Path_62" class="st2" d="M525.1,82.9l-15.8,14.9l-0.3,1.7l2.1,2.3l-4-0.3l1.7,5.1l4.3,0.4l3.1,7.7l1.1,0.9v3l-1.1,2.3
					l0.6-0.4l-1.1,2.7l2.3-2.4l0.1,1.8l1.4,0.5l-0.5,2l-2,0.6l2.8,2.4l-1.4,2.2l0.6,0.2l-0.6,1l-3.3,1.1l-0.9,2l3.4-0.3l-2.7,0.6
					l0.1,1.8l-1.2,1.2l2.9-1.3l-3,2l2.5,1l-2.2,2.3l1.4,0.5l0.6-1.4l0.7,2l-2,0.5l1.4-0.3l0.2,0.3l-1.6,1.2l0.7,2.3l0.8-0.5l1.4,5.1
					l-0.5,0.5l3-0.8l2.2,3.3l2.3-4.1l-0.3-0.1l0.8-1.4l-0.8-1.1l3.4-3.3l-1.1-0.5l1.7-0.5l-0.7-1.4l3.8-1.8l0.2-1.3l0.5,1.5l1.3-0.5
					l0.6,0.2l1-1.4l0.9-0.5l3.4-4.3l5.4,0.1l4.6-2.7l0.5-2l-4.6,0.5l-1.4-1.3l1.1-0.5l-0.1-1l2.8-1l3.6,2.9l0.9-2.1l-0.6-0.5
					l0.6-1.2l-4.6-3.3l4.4,2l-4.7-4.4l2.1-1.2l0.9,0.7l0.9-0.2l2.5,0.7l-0.3-3.4l1.9,0.7l-1.9-2.6l2.6-8.3l-0.7-0.7l5.8-8.6l1.4-6.6
					l-2.8-1.6l-4,3.8l2.4-5h-3.4l-1.2-1.5l2.4-5.3l-5.7,0.4l-0.5-3.6l-6.4,1.9l-1.7-0.9l-1.8,1l0.8,1.3l-2.3,5l-3.9-3.3l-2.1,2
					l-2.7-2.8l-2.1,4.2L525.1,82.9L525.1,82.9L525.1,82.9z"/>
				<polygon id="_Path_63" class="st2" points="559.7,144.3 559.4,142.8 558.6,142.5 558.8,140.7 551,143.4 549.5,140.3 
					549.6,140.7 549.4,141.7 548.5,141 548.2,141.3 548,141.8 548.6,142 550.2,143.4 547.9,144.5 550.2,144.9 549.9,145.4 
					550.3,145.5 548.8,146.8 550.7,146.6 551.2,147 553.7,147.8 				"/>
				<path id="_Path_64" class="st2" d="M556.3,212l-0.8,1L556.3,212z"/>
				<polygon id="_Path_65" class="st2" points="503.4,136.7 504.2,136.9 503.9,136 504.5,135.5 502.2,135.3 503.3,134.3 
					501.5,133.8 502.6,133.3 499.9,132.1 500.6,131 499.7,131.6 499.6,131.4 500.1,130.5 498,128.4 500.6,127.9 498.3,126.9 
					500.7,125.8 499,125.6 499.4,125 497.9,125.2 499.7,123.5 496.5,124.8 496.9,123.6 496.3,123.8 495.7,119.9 494.9,120.4 
					495.5,119.3 493.8,120.8 494.4,119.8 494.1,119.2 495.3,118.4 493.4,119.1 493.7,116 491.3,116.5 490.7,118 488.4,117.3 
					489.3,115.8 488.4,116.2 489.2,111.9 485.9,113.8 484.3,114 484.8,114.9 484.8,116.3 482.7,119.5 482.7,119 480.8,119.1 
					484.7,111 480.9,113.1 480.2,118.9 477.7,118.2 478.1,120.5 480,120.8 485.4,124.1 485,122.9 491.1,126.2 491.5,128.3 
					492.2,129.1 489.8,136.8 488.2,137.3 486.7,138.8 484,138.9 489,139.8 490.5,142.7 489.6,143 493.4,146.6 495.2,146.8 
					493.9,143.1 496,144.2 497.1,145.6 498,143.1 498.8,142.5 497.9,141.6 498.2,141.2 497,140.2 497,138.5 495.8,136.3 
					498.1,135.4 499.4,136.7 499.5,137.3 500.9,136.6 499.8,139.7 500.4,139 500.8,140.4 501.6,137.9 502.6,138.4 503.5,137.7 				
					"/>
				<polygon id="_Path_66" class="st2" points="504.2,180.5 504.8,178.3 506,177.4 504.6,177.5 505.2,177 504.7,176.8 504.5,175.3 
					503.2,176.1 503.1,175.4 502.4,175.4 502.4,175 503.2,174.5 501.5,175 503.4,171.5 500,174.8 499.6,176.1 497.9,176.9 
					499.1,177 498,178.5 502.1,178.5 501.6,179.1 503.5,178.9 502.1,180.1 504.5,178.9 				"/>
				<polygon id="_Path_67" class="st2" points="793.4,260.8 793.5,260.2 788.8,263 				"/>
				<path id="_Compound_Path_2" class="st2" d="M795,103.9l-0.1-0.8l-0.7-0.4l-2.5-3.2l1.4-2.3l-1.2-2.1l-1.7-0.5l-2.3,0.4l0.3,0.9
					l-0.4-0.8l1.5,3.9l-0.6-0.8l-0.5,0.3l-2.2-2.2h-0.5l-2.7-1.4l-1.3,0.3l-1.6-0.5l1.1,0.9l-8.8-2.3l-7.4,1.1L758,104l-8.5-6.8
					l-17.4,0.8l-0.1-1.4l1,0.9l-2.8-0.5l1.9-1.2l-5.6-0.1l-1.1,3.4l0.7-0.4l1.5,2.6h-1.8l0.3,1.3l-7.5-0.1l1.2,3.3l-0.9,1l-2.8-1.5
					l-1.4-1.7l0.3,0.8l-2.6-2.1l2.1,0.4l-1.6-1l-0.7-1.4l-1.9-1.6l-4.2-0.1l-1.1,0.7l-0.1,3.4l-3.3-0.5l-0.9-0.7l-5.7,1.6l0.7,0.4
					l0.1,0.9l1.2,1.6l-3.8-4.4l-1.4,0.2l-1.1,1.5l-0.1,1.1l-3,3.7l2.8-11.3l-1.9-2.1l1.5,0.7l-2.3-2.4l0.2,0.8l-7.5-0.1l-0.8-1.8
					l-2.6,0.5l1-1.7l-1.9,5.1l-2.8,0.5l2.2,2.5l-1.6-1.2l-1.4,1.6l-0.7,0.3l-2.9-0.2l-0.3,0.2l0.3,0.6l1.2-0.5l-5.4,5.4l2.7,4
					l-0.9,12.4l-8.8-3.4l4.5,2.3l-6.5-1.4l-0.1,1.9l10.4,9.6l-10.7,3.9l2-0.2l0.6,0.4l-2-13.1l-2.6-3.4l-4.7,4.5l4.1,6.8l-9-2.2
					l-0.2,1.3l0.4,0.5v1.1l-0.6,0.3l-0.2,0.9l-0.8-1.2h-1.1l-5.2,2.3l0.8-2.2l-8.6,6l-0.4-3l-3.5-0.9l2.4,7l-8.4,3.3l-0.3,1.6
					l-6.1-6.9l8,1.7l0.5-5.1l-3.5-1.8l-4.4-0.1l-1.7-2.3l-3.6-0.3l1.3-1.5l-2,1.3l-0.6-2.3l-1.3,1.9l-0.1-1.5l-1.8,1.3l-0.5-0.4
					l-0.9,2.1l-2.8,0.6l0.1,0.8l-0.7,0.5l0.1-1.7l-0.6,1.4l-0.6-0.7l-0.2,0.5v0.4l-1,0.5l-0.4,2l-1.3,1.5l-1.7,0.6l1,0.8l-1.1-0.1
					l1,0.5l-1.6,0.9l-0.8,1.6l1.1-0.2l-1.4,0.5l0.3,1.9l-3.6,4l2.2-0.8l-0.1,0.5l-3.2,2.3l-2-0.2l1.4,0.5l-0.5,0.4l-1.2,0.3l0.1,1.4
					l-2,0.1l0.2,1.4l2.6-0.5l0.2,0.5l-0.6,0.4l-2.3,0.1l0.6,2l-0.6,0.7l2.2-1.5l-2.1,2.5l1.4-0.5l0.6,3.1l4.5-3.6l3.3,9.1l1.8-0.5
					l0.5-0.8l1.3-0.7l1.1-4.5l-0.9-0.3l2.6-2.2l-1.9-4.7l0.1-1.8l0.5-0.9l0.2,0.2l0.3-0.5l2.4-2.1l2.2-5.1l2.8,0.7l0.5,1.6l-4,4.1
					l0.8,6l1.7,1.6l4.2-2l2.5,0.2l-0.2-0.1L609,156l-4.1,0.8l-3.5,9.2l0.5-1.3l-9,3.2l1,1l-6-1.5l-0.5-1.2l1.3-5.6l-2.7,3l0.3,2.1
					l1.8,3.5l-1.6,0.4l-1.4-0.5l-0.6,0.7l-1.5,0.2l-1.8,3.3l-1.1-0.1l1,0.3l-7.2,5.1l-2.3-0.2l-1.8,0.8l-0.2,0.5l3.9,1.5l1.5,4
					l-0.7-0.9l-0.1,1.5h0.2l-10.6,3.6l0.4,7.1h-0.3l-0.2,2.3l2.9-0.4l1.4,0.9l4.7-0.3l2.6-2.2l1.3-3.5l3.8-3.3l0.4-1.9l6.3-1
					l8.2,5.3l1.4,2.3l1.7,1.1l2.4-1.8l-8.2-9.8l-0.1,0.2l1.5-0.4l5.8,4.8l-0.9-0.3l3.2,1.9l0.2,2.5l3.6,3.4l1.7,0.3l-1.4,2.4
					l0.8,0.5h0.9l-1-4l0.3-2.9l1.1,1.1l0.9-0.4l-0.8-1l4.1,0.2l-0.7,1l3.7-2.1l-1.9-1.5l1.3-4.2l3.2-4.1l0.2-0.8l1.2,1.1l-1.4,0.2
					l1.4,2.1l5.4-0.1l-2-1.8l-0.2,0.6l4.7-2.3l0.6,0.1l-1.8,1l1.1,1l-2.3,1.4l-0.1,0.4l5.4,4.4l-0.8,2l-7.7-0.5l-6.2,2.6l-1.8-0.1
					l0.2,0.2l-1.9,1.4l1.2,2l-1-0.3l1.6,2.3l-0.4,0.3l1.4-0.1l-1.1,0.5l10.7,1.2l-0.7,4l-3.2,3.7l0.2-0.3l-29.8-3.3l0.3-5.8l-1,0.5
					l-0.6-0.9l-20.7,2.3l-16.9,23.3l0.7,0.2l0.4,4.5l-1.7,3.8l2.7,2.2l-1.8,0.2l0.1,0.9l0.9,1.4l1-0.2l-0.4,0.7l3.6,4l-0.5,0.3
					l5.1,4.3l8,0.4H569l11.9-1.9l2.2,1.5l0.5,0.1l1.7,1.1l2.2-0.3l1.9,1.6l0.6,5.1l-0.9-0.2l-0.9,1.4l1.2,1.4l-0.7-0.5l1.4,1.8
					l-0.5-0.1l4.5,4.7l6.9,42.7l5.8,0.2l6.4-2.3l11.7-13.8l-0.2-6.7l8.5-7.1l0.1-5.8l-1.4-2.5l-0.3-1.6l16.8-25.5l0.1-2.8l-12.4,0.4
					v-2.3l-4.1-2.8l-3.9-6.7l-0.1-2.1l-7.3-13.6l3.4,0.6l0.3,3l13,22.3l11.5-4.1l8.8-7.4l-1.8-6.7l-3.3-0.5l-4.8,1.3l-0.1-2.3
					l-0.8,1.8l-4.3-7.2l1.4-1.5l0.3,0.6l10.4,5.8l14.2,1l1.7,2.1l0.9,0.4h0.9l2.5,1.2l-0.2,2.6l3.5-1.4l6.4,19.1l-0.4-0.5l4.3,1.3
					l2.6-10.6l8.4-9.7l0.5,1.2l0.4-0.1l0.1-0.7l0.3,0.8l0.5-0.1l-0.1-0.7l1.3-0.6l0.6,0.8l-0.4-2.3l0.5-0.2l1.4,1.1l1.5,3.2l1.1,0.7
					l0.8,1.6l0.8,0.1l1.4,5.2h0.5l2.5-2.3l1.4,1.6l0.9,4.1v-0.5l0.8,3.2l0.4,0.2l-0.3,0.8l0.3,4.7l1.4,0.9l2.7,6.4l3.7,2.2l-5.5-8.8
					l0.2-0.2l-1.4-3.1l1.2-5.7l6.3,7.4l1.4-2.1l1,0.5l-0.5-0.8l0.7,0.4l-0.3-0.5l2.6-1l1.3-1.4l0.2-1.1l-0.4-1.8l-4.7-6.1l0.2,0.1
					l0.2-5.3l2-1.4l1.5,0.3l0.5,0.6l0.4,1.4l0.5-1.5l4.1-1.5l0.1-1.5l1.1,1.4l4.1-2.3l2.4-5.5l1.1-0.7l0.3-1.4l0.5-0.6l0.1-1.4h0.6
					l-0.7-0.6l0.7-0.7l-2.8-0.5l-0.7-3.1l2.6,0.3l-1.1-10.7l-6.4-1.5l3.6-5.4l0.7,3.2l-0.6,1.4l3.8-2.8l2.1,1.8l-0.2,0.9l0.6,1.6
					l2.5,1.6l-0.5-0.1l0.9,4.1l0.5,0.7l0.7-0.9l0.2,0.5v-0.6l1.7-0.5l0.5-2.7l-4.2-5.8l4.1-8.5l0.4-0.1l0.3,0.9l6-11.8l-1.9-13
					l-4.6-2.8l0.3,2.1l-1.4-1.1l-0.2-0.7l-0.2,1.3l-0.5,0.2l0.3-11.4l5.8-5.4l1.5-0.6l1.7-1.7l3.9,0.8l-1.3,0.7l5-1.4l-1-7l2.9-2.2
					l2.2,3.3l1.4-4.1l0.5,0.5l1.3-3.7l-0.4,2.9l1.1,2.5l-2.3,10.3l-0.8,0.7l7.3,18.8l1.6-16.5l-3.9-6.4l-0.5-3.6l3.7-2.8l4.7,0.4
					l3.2-11.5l3.2,0.9l-1.3-2.5l-4.5-4.1l-2.7,0.1l-0.8-1.1l-1.3,1.4l1.2-1.5h1.4l-1.3-0.4l4-1.2l-2.4-4.5l0.2,0.1l-0.3-1.4l0.6,0.3
					l-0.3-1l2.1,2.3l6-1l0.9,0.2L795,103.9L795,103.9L795,103.9z M649.6,191.2l-2.4-0.2l0.5,2.2l0.8,0.4l-0.4,0.7l0.9,1.4l0.5,2.3
					l-7.1-3.6l0.4-1.1l1.3-1l-4.5-6.2h-0.6l-0.5-1.2l0.5-2.1l4.3-2.4l3.4,2.8l-2.3,0.2l0.1,1.8l2.8,5.4L649.6,191.2L649.6,191.2
					L649.6,191.2z"/>
				<polygon id="_Path_68" class="st2" points="777.6,324.4 775.6,324.9 773.1,323.7 772.9,327.1 772.8,327.2 773.7,330.3 
					775.4,328.7 775.8,329 775.7,329.7 777.2,327 777.1,327.7 				"/>
				<path id="_Path_69" class="st2" d="M791.1,299.4l-1.2-7.2l-2.3-2.9l-1.1-3.6l-3-3l-4.5-12.9l-2.7,5.4l-3.9,3.4l-3.1-7.2
					l-3.2,0.1l-2.3-1l0.9,1.4l-1.5,0.1l-1.4,0.7l-1.8,3.9l-2.3,0.3l-1.3-2.1l-1.4-0.1l-0.3,1l-1.3,1.1l-0.7,0.2l0.2,1.5L737,288
					l0.1-1.1l-1,7.6l-0.5-0.8l-0.7,0.4l0.5,12.9l28.7,4.4l3.5-4.4l-2.3,5.1l2.2-2l-0.8,2.8l1.3-0.3l1.6,5.5l2.1,1l3.3-0.6l-0.5,0.6
					l2.1,1.2l-0.2,0.2l11.9-13.3L791.1,299.4L791.1,299.4L791.1,299.4z"/>
				<polygon id="_Path_70" class="st2" points="589.8,164.9 589.5,165 590.7,166.9 591.4,165.1 591.1,164.6 590.6,165 				"/>
				<polygon id="_Path_71" class="st2" points="598.2,161.2 598.3,162.4 599.1,160.2 				"/>
				<polygon id="_Path_72" class="st2" points="622.8,200.8 620.9,201.2 620,201.7 621.9,202.2 				"/>
				<polygon id="_Path_73" class="st2" points="821.6,321.3 818.3,318.4 817.7,319.7 816,313.6 815.8,314.9 816.4,315.6 
					816.4,318.1 816.4,317 816.8,317.5 816.5,318.2 816.8,319.6 814.7,328.5 817.5,327.3 				"/>
				<polygon id="_Path_74" class="st2" points="813.4,329.1 813.8,328.6 813.7,328.4 812.9,329.1 813.4,328.3 812.3,327.2 
					801.3,336.8 801.4,336.5 800.1,338.6 799.2,339.2 799.8,339.2 800.9,340.4 803.4,340.3 808.6,334.6 809.4,334.8 809.1,335 
					813.8,328.8 				"/>
				<polygon id="_Path_75" class="st2" points="586.7,192.8 588.4,194.9 588.6,192.2 				"/>
				<polygon id="_Path_76" class="st2" points="588.1,189.4 588,191.6 588.4,189.2 				"/>
				<polygon id="_Path_77" class="st2" points="594.3,197.2 593,196.9 595.9,199.3 596.9,196.8 				"/>
				<path id="_Path_78" class="st2" d="M608.1,201.2l3.7,0.3L608.1,201.2z"/>
				<polygon id="_Path_79" class="st2" points="637,285 643.4,283.9 646,271.6 643.3,275.2 642.9,275.2 642.4,276.2 641.7,276.3 
					641.3,276.9 639.3,278.3 				"/>
				<polygon id="_Path_80" class="st2" points="713.7,246.4 724.3,261.1 725.7,261.3 726.6,259.5 724.5,255.4 723.5,254.5 
					723.8,253.6 722.2,253.7 				"/>
				<polygon id="_Path_81" class="st2" points="689.4,242.4 692.2,243.1 689.9,240.1 689.7,241.7 689.5,242 				"/>
				<path id="_Path_82" class="st2" d="M500.1,337.7l0.2,0.2L500.1,337.7z"/>
				<polygon id="_Path_83" class="st2" points="498.6,337.2 498.8,336.8 497.2,336.6 497.3,337.4 496.9,338.1 				"/>
				<polygon id="_Path_84" class="st2" points="755.6,200.2 756.2,201.1 756.1,201.6 756.7,200.7 757.7,204.1 757.7,203.2 
					757.9,204.4 758.7,203.7 758.5,200.2 				"/>
				<polygon id="_Path_85" class="st2" points="746.1,256.8 747.7,262 748.7,258.5 751,260.2 751.3,254.9 750.8,256.3 752.3,251.6 
					750.3,251 747.9,252.9 				"/>
				<path id="_Path_86" class="st2" d="M757,201.8l0.1-0.2L757,201.8z"/>
				<polygon id="_Path_87" class="st2" points="754.5,240.9 752.3,242.2 751.8,241.3 750.3,242.7 751.6,243 753.4,244.9 
					755.3,243.3 755.9,244.8 755.7,240.4 				"/>
				<polygon id="_Path_88" class="st2" points="754,267.9 757.3,266.2 752.1,268.7 				"/>
				<polygon id="_Path_89" class="st2" points="731.5,252.2 733.5,257.4 735.4,258.4 737.2,258.2 739.1,258.5 740,259.8 
					741.9,257.6 741.9,256.5 742.5,255.5 743.4,254.8 744.3,252.4 745.4,252.5 744.1,251 744.3,250.5 743,248.8 745.1,247.3 
					745.2,246.4 743.5,245.5 734.7,251.9 732.1,251.3 				"/>
				<polygon id="_Path_90" class="st2" points="729,262.6 727.2,262.8 726.1,263.6 739.2,266.7 				"/>
				<polygon id="_Path_91" class="st2" points="771.8,176.3 766.2,173.9 766.9,182.2 772.9,178.1 				"/>
				<polygon id="_Path_92" class="st2" points="772.9,256.2 769.6,257.9 767.9,258 764.6,255.1 764.5,256.6 767.1,256.9 
					764.3,257.9 765.5,259.5 767,258.4 773.2,262.2 773.7,264.1 774.4,264.4 773.9,265.3 774.5,265.6 775.9,265.7 777.1,266.7 
					780.6,265.7 780.8,264.8 790.5,269.5 790.9,269.1 788.6,265.8 				"/>
				<polygon id="_Path_93" class="st2" points="759.1,195.9 757.1,198.9 766.7,197.1 768,196.1 769.3,196.4 768.8,184.7 
					766.6,186.1 764.5,191.4 				"/>
				<polygon id="_Path_94" class="st2" points="760.8,159.2 766.1,172.9 767.8,172.5 767.5,166.2 759.3,152.3 758.9,152.7 				"/>
				<polygon id="_Path_95" class="st2" points="745.1,217.8 745.5,219.6 746.4,220.7 747.1,216 				"/>
				<polygon id="_Path_96" class="st2" points="773.7,175.4 775.4,173.5 775,173.1 				"/>
				<polygon id="_Path_97" class="st2" points="747.3,226 746.3,230.6 747.4,233.5 752.4,235.4 751.3,233.4 749.6,233.4 				"/>
			</g>
		</g>
	</g>
</g>
<circle class="st3" cx="589.3" cy="38" r="7.8"/>
<path class="st1" d="M592.4,38c0,1.7-1.4,3.1-3.1,3.1c-1.7,0-3.1-1.4-3.1-3.1s1.4-3.1,3.1-3.1l0,0C591,34.9,592.4,36.3,592.4,38z"/>
<rect x="247.9" y="395" class="st4" width="682.9" height="12.4"/>
<path class="st5" d="M930.8,407.4c0,12-9.8,21.7-21.8,21.7H269.6c-12,0-21.7-9.7-21.7-21.7L930.8,407.4L930.8,407.4z"/>
<rect x="527.2" y="395" class="st5" width="124.2" height="6.2"/>
<path class="st0" d="M867.2,123.4c0,1.3-1,2.3-2.3,2.3s-2.3-1-2.3-2.3s1-2.3,2.3-2.3S867.2,122.2,867.2,123.4L867.2,123.4z"/>
<path class="st0" d="M99.6,456.7c-10.3,0-18.8-8.8-18.8-19.5V197c0-10.7,8.5-19.4,18.8-19.4h109.1c10.3,0,18.8,8.8,18.8,19.4v240.3
	c0,10.7-8.5,19.5-18.8,19.5L99.6,456.7L99.6,456.7z"/>
<path class="st3" d="M170.4,436.6c0.1,2.5-1.9,4.6-4.4,4.6c0,0,0,0-0.1,0h-23.5c-2.5,0-4.5-2.1-4.5-4.6c0,0,0,0,0,0v-1.9
	c0-2.5,2-4.6,4.5-4.7h23.5c2.5,0,4.5,2.1,4.5,4.6c0,0,0,0,0,0L170.4,436.6L170.4,436.6z"/>
<path class="st3" d="M173.8,199c0,1-0.8,1.9-1.8,1.9c0,0,0,0-0.1,0h-35.6c-1,0-1.9-0.8-1.9-1.8c0,0,0,0,0,0v-0.8
	c0-1,0.8-1.9,1.9-1.9H172c1,0,1.9,0.9,1.9,1.9c0,0,0,0,0,0L173.8,199L173.8,199z"/>
<rect x="91.4" y="219.7" class="st1" width="125.4" height="194.8"/>
<rect x="117.6" y="246.8" class="st2" width="73.1" height="75.7"/>
<rect x="117.6" y="340.2" class="st2" width="73.1" height="17.7"/>
<rect x="117.6" y="370.5" class="st6" width="73.1" height="17.6"/>
<path class="st1" d="M212.8,97.2c0,4.4-3.6,8-8,8s-8-3.6-8-8s3.6-8,8-8S212.8,92.8,212.8,97.2z"/>
<path class="st1" d="M242.5,97.2c0,4.4-3.6,8-8,8s-8-3.6-8-8s3.6-8,8-8S242.5,92.8,242.5,97.2z"/>
<path class="st1" d="M287.9,82.5c0,5.3-4.2,9.5-9.5,9.6c-5.3,0-9.5-4.2-9.6-9.5c0-5.3,4.2-9.5,9.5-9.6c0,0,0,0,0,0
	C283.6,73,287.9,77.2,287.9,82.5z"/>
<path class="st7" d="M192.1,79.2c-2,0-3.7,1.7-3.7,3.7c0,0,0,0,0,0v92.9l18-18h79.4c2.1,0,3.7-1.7,3.7-3.7l0,0V82.9
	c0-2-1.7-3.7-3.7-3.7c0,0,0,0,0,0C285.8,79.2,192.1,79.2,192.1,79.2z"/>
<path class="st1" d="M237.8,103.9h-27c-1.2,0-2.2-1-2.2-2.2c0-1.2,1-2.2,2.2-2.2h27c1.2,0,2.2,1,2.2,2.2
	C240,102.9,239,103.9,237.8,103.9L237.8,103.9z"/>
<path class="st1" d="M267,119.6h-56.2c-1.2,0-2.2-1-2.2-2.2s1-2.2,2.2-2.2H267c1.2,0,2.2,1,2.2,2.2S268.2,119.6,267,119.6L267,119.6
	z"/>
<path class="st1" d="M267,135.4h-56.2c-1.2,0-2.2-1-2.2-2.2s1-2.2,2.2-2.2H267c1.2,0,2.2,1,2.2,2.2S268.2,135.4,267,135.4L267,135.4
	z"/>
<path class="st8" d="M919.4,186c0,39-31.6,70.6-70.6,70.6S778.2,225,778.2,186s31.6-70.6,70.6-70.6l0,0
	C887.8,115.4,919.4,147,919.4,186C919.4,186,919.4,186,919.4,186L919.4,186z"/>
<path class="st9" d="M848.8,125.2c33.6,0,60.9,27.2,60.9,60.8c0,33.6-27.2,60.9-60.8,60.9c-33.6,0-60.9-27.2-60.9-60.8
	c0,0,0-0.1,0-0.1C788,152.4,815.3,125.2,848.8,125.2 M848.9,115.4c-39,0-70.6,31.6-70.7,70.6c0,39,31.6,70.6,70.6,70.7
	c39,0,70.6-31.6,70.7-70.6c0,0,0,0,0,0C919.4,147,887.8,115.4,848.9,115.4L848.9,115.4L848.9,115.4z"/>
<path class="st10" d="M848.8,129.8c-1.3,0-2.4,1.1-2.4,2.4l0,0v2.4c0,1.3,1.1,2.4,2.4,2.4s2.4-1.1,2.4-2.4v-2.4
	C851.3,130.8,850.2,129.8,848.8,129.8L848.8,129.8L848.8,129.8z"/>
<path class="st10" d="M848.8,234.4c-1.3,0-2.4,1.1-2.4,2.4v2.4c0,1.3,1.1,2.4,2.4,2.4s2.4-1.1,2.4-2.4v-2.4
	C851.3,235.5,850.2,234.4,848.8,234.4L848.8,234.4z"/>
<path class="st10" d="M902.4,183.3H900c-1.3-0.1-2.5,0.9-2.6,2.3c-0.1,1.3,0.9,2.5,2.3,2.6c0.1,0,0.2,0,0.3,0h2.4
	c1.3,0.1,2.5-0.9,2.6-2.3c0.1-1.3-0.9-2.5-2.3-2.6C902.6,183.3,902.5,183.3,902.4,183.3L902.4,183.3L902.4,183.3z"/>
<path class="st10" d="M797.7,183.3h-2.4c-1.3-0.1-2.5,0.9-2.6,2.3c-0.1,1.3,0.9,2.5,2.3,2.6c0.1,0,0.2,0,0.3,0h2.4
	c1.3,0.1,2.5-0.9,2.6-2.3c0.1-1.3-0.9-2.5-2.3-2.6C797.9,183.3,797.8,183.3,797.7,183.3L797.7,183.3z"/>
<path class="st10" d="M885,146.2l-1.7,1.7c-0.9,1-0.9,2.5,0.1,3.4c0.9,0.9,2.4,0.9,3.4,0l1.7-1.7c0.9-1,0.9-2.5,0-3.4
	S885.9,145.2,885,146.2L885,146.2L885,146.2z"/>
<path class="st10" d="M811,220.2l-1.7,1.7c-1,0.9-1,2.5,0,3.4c0,0,0,0,0,0c0.9,0.9,2.5,1,3.4,0c0,0,0,0,0,0l1.7-1.7
	c0.9-1,0.9-2.5,0-3.4S812,219.2,811,220.2L811,220.2L811,220.2z"/>
<path class="st10" d="M886.7,220.2c-0.9-1-2.5-1-3.4,0s-1,2.5,0,3.4l0,0l1.7,1.7c0.9,1,2.5,1,3.5,0.1s1-2.5,0.1-3.5c0,0,0,0-0.1-0.1
	L886.7,220.2z"/>
<path class="st10" d="M812.7,146.2c-0.9-0.9-2.5-0.9-3.4,0s-0.9,2.5,0,3.4l1.7,1.7c1,0.9,2.5,0.9,3.5-0.1c0.9-0.9,0.9-2.4,0-3.4
	L812.7,146.2z"/>
<path class="st9" d="M841.5,188.2H822c-1.3,0-2.4-1.1-2.4-2.4c0-1.3,1.1-2.4,2.4-2.4h19.5c1.3,0,2.4,1.1,2.4,2.4
	C843.9,187.1,842.8,188.2,841.5,188.2L841.5,188.2L841.5,188.2z"/>
<path class="st9" d="M848.8,180.9c-1.3,0-2.4-1.1-2.4-2.4l0,0v-26.8c0-1.3,1.1-2.4,2.4-2.4s2.4,1.1,2.4,2.4v26.8
	C851.3,179.8,850.2,180.9,848.8,180.9L848.8,180.9L848.8,180.9L848.8,180.9z"/>
<path class="st9" d="M848.8,195.5c-5.4,0-9.7-4.4-9.7-9.7c0-5.4,4.4-9.7,9.7-9.7c5.4,0,9.7,4.4,9.7,9.7
	C858.6,191.1,854.2,195.5,848.8,195.5L848.8,195.5z M848.8,180.9c-2.7,0-4.9,2.2-4.9,4.9c0,2.7,2.2,4.9,4.9,4.9
	c2.7,0,4.9-2.2,4.9-4.9C853.7,183.1,851.5,180.9,848.8,180.9L848.8,180.9L848.8,180.9z"/>
<path class="st11" d="M922.8,227.4c0,16.1-13.1,29.2-29.2,29.2c-16.1,0-29.2-13.1-29.2-29.2s13.1-29.2,29.2-29.2l0,0
	C909.7,198.2,922.8,211.3,922.8,227.4C922.8,227.4,922.8,227.4,922.8,227.4L922.8,227.4z"/>
<path class="st1" d="M909.6,213.3c-1.1-0.8-2.6-0.5-3.4,0.6c0,0,0,0,0,0l-13.6,19.6l-9.6-7.9c-1-0.9-2.6-0.7-3.4,0.3
	c-0.9,1-0.7,2.6,0.3,3.4l11.7,9.6c0.4,0.4,1,0.6,1.5,0.6c0.1,0,0.2,0,0.3,0c0.7-0.1,1.3-0.5,1.7-1l15.1-21.7
	C911,215.6,910.7,214.1,909.6,213.3C909.6,213.3,909.6,213.3,909.6,213.3L909.6,213.3L909.6,213.3z"/>
<path class="st1" d="M570.5,138.6c0.1,4.3,3.8,7.7,8.1,7.5c4.3-0.1,7.7-3.8,7.5-8.1c-0.1-4.2-3.6-7.5-7.8-7.5
	C573.9,130.6,570.4,134.2,570.5,138.6C570.5,138.6,570.5,138.6,570.5,138.6z"/>
<path class="st1" d="M541.6,138.6c0.1,4.3,3.8,7.7,8.1,7.5c4.3-0.1,7.7-3.8,7.5-8.1c-0.1-4.2-3.6-7.5-7.8-7.5
	C545,130.6,541.5,134.3,541.6,138.6C541.6,138.6,541.6,138.6,541.6,138.6z"/>
<path class="st1" d="M498.6,123.4c0.2,5.1,4.4,9.1,9.6,9c5.1-0.2,9.1-4.4,9-9.6c-0.2-5-4.3-9-9.3-9
	C502.6,114,498.5,118.2,498.6,123.4z"/>
<path class="st1" d="M563.3,141.4c0,4.4,3.6,8,8,8s8-3.6,8-8s-3.6-8-8-8S563.3,136.9,563.3,141.4z"/>
<path class="st1" d="M533.6,141.4c0,4.4,3.6,8,8,8s8-3.6,8-8s-3.6-8-8-8S533.6,136.9,533.6,141.4z"/>
<path class="st1" d="M488.1,126.7c0,5.3,4.2,9.5,9.5,9.5c5.3,0,9.5-4.2,9.5-9.5c0-5.3-4.2-9.5-9.5-9.5c0,0,0,0,0,0
	C492.4,117.2,488.2,121.4,488.1,126.7z"/>
<path class="st12" d="M510.3,145.4c-2,0-3.7,1.7-3.7,3.7c0,0,0,0,0,0v71.2c0,2.1,1.7,3.7,3.7,3.7l0,0h79.4l18,18v-92.9
	c0-2-1.7-3.7-3.7-3.7c0,0,0,0,0,0L510.3,145.4L510.3,145.4z"/>
<path class="st1" d="M529.2,170.1c-1.2,0-2.2-1-2.2-2.2c0-1.2,1-2.2,2.2-2.2h27c1.2,0,2.2,1,2.2,2.2s-1,2.2-2.2,2.2c0,0,0,0,0,0
	H529.2z"/>
<path class="st1" d="M529.1,185.8c-1.2,0-2.2-1-2.2-2.2s1-2.2,2.2-2.2h56.2c1.2,0,2.2,1,2.2,2.2s-1,2.2-2.2,2.2H529.1z"/>
<path class="st1" d="M529.1,201.6c-1.2,0-2.2-1-2.2-2.2s1-2.2,2.2-2.2h56.2c1.2,0,2.2,1,2.2,2.2s-1,2.2-2.2,2.2H529.1z"/>
</svg>
